Ubuntu-CondensedLightItalic.ufo
<glyph name="exclam" format="2">
  <advance width="218"/>
  <unicode hex="0021"/>
  <outline>
    <contour>
      <point x="135" y="193" type="curve"/>
      <point x="171" y="193" type="line"/>
      <point x="205" y="293"/>
      <point x="236" y="401"/>
      <point x="260" y="500" type="curve" smooth="yes"/>
      <point x="306" y="693" type="line"/>
      <point x="241" y="693" type="line"/>
      <point x="195" y="500" type="line" smooth="yes"/>
      <point x="171" y="401"/>
      <point x="150" y="293"/>
    </contour>
    <contour>
      <point x="114" y="-7" type="curve" smooth="yes"/>
      <point x="139" y="-7"/>
      <point x="162" y="16"/>
      <point x="162" y="47" type="curve" smooth="yes"/>
      <point x="162" y="70"/>
      <point x="146" y="87"/>
      <point x="122" y="87" type="curve" smooth="yes"/>
      <point x="95" y="87"/>
      <point x="73" y="61"/>
      <point x="73" y="32" type="curve" smooth="yes"/>
      <point x="73" y="10"/>
      <point x="91" y="-7"/>
    </contour>
  </outline>
</glyph>
<glyph name="numbersign" format="2">
  <advance width="498"/>
  <unicode hex="0023"/>
  <outline>
    <contour>
      <point x="84" y="0" type="line"/>
      <point x="135" y="0" type="line"/>
      <point x="207" y="190" type="line"/>
      <point x="342" y="190" type="line"/>
      <point x="270" y="0" type="line"/>
      <point x="322" y="0" type="line"/>
      <point x="394" y="190" type="line"/>
      <point x="514" y="190" type="line"/>
      <point x="524" y="236" type="line"/>
      <point x="411" y="236" type="line"/>
      <point x="494" y="456" type="line"/>
      <point x="577" y="456" type="line"/>
      <point x="588" y="504" type="line"/>
      <point x="512" y="504" type="line"/>
      <point x="584" y="693" type="line"/>
      <point x="532" y="693" type="line"/>
      <point x="460" y="504" type="line"/>
      <point x="326" y="504" type="line"/>
      <point x="397" y="693" type="line"/>
      <point x="345" y="693" type="line"/>
      <point x="273" y="504" type="line"/>
      <point x="151" y="504" type="line"/>
      <point x="140" y="456" type="line"/>
      <point x="256" y="456" type="line"/>
      <point x="173" y="236" type="line"/>
      <point x="87" y="236" type="line"/>
      <point x="76" y="190" type="line"/>
      <point x="155" y="190" type="line"/>
    </contour>
    <contour>
      <point x="224" y="236" type="line"/>
      <point x="308" y="456" type="line"/>
      <point x="442" y="456" type="line"/>
      <point x="360" y="236" type="line"/>
    </contour>
  </outline>
</glyph>
<glyph name="dollar" format="2">
  <advance width="418"/>
  <unicode hex="0024"/>
  <outline>
    <contour>
      <point x="158" y="-109" type="line"/>
      <point x="216" y="-109" type="line"/>
      <point x="247" y="23" type="line"/>
      <point x="345" y="40"/>
      <point x="412" y="113"/>
      <point x="412" y="211" type="curve" smooth="yes"/>
      <point x="412" y="282"/>
      <point x="389" y="316"/>
      <point x="328" y="365" type="curve" smooth="yes"/>
      <point x="269" y="412"/>
      <point x="243" y="440"/>
      <point x="243" y="490" type="curve" smooth="yes"/>
      <point x="243" y="561"/>
      <point x="297" y="606"/>
      <point x="375" y="606" type="curve" smooth="yes"/>
      <point x="408" y="606"/>
      <point x="445" y="598"/>
      <point x="474" y="585" type="curve"/>
      <point x="492" y="635" type="line"/>
      <point x="467" y="648"/>
      <point x="440" y="656"/>
      <point x="408" y="658" type="curve"/>
      <point x="436" y="776" type="line"/>
      <point x="378" y="776" type="line"/>
      <point x="349" y="655" type="line"/>
      <point x="251" y="643"/>
      <point x="183" y="575"/>
      <point x="183" y="482" type="curve" smooth="yes"/>
      <point x="183" y="410"/>
      <point x="213" y="377"/>
      <point x="275" y="329" type="curve" smooth="yes"/>
      <point x="330" y="285"/>
      <point x="351" y="255"/>
      <point x="351" y="203" type="curve" smooth="yes"/>
      <point x="351" y="125"/>
      <point x="295" y="73"/>
      <point x="209" y="73" type="curve" smooth="yes"/>
      <point x="172" y="73"/>
      <point x="124" y="83"/>
      <point x="86" y="102" type="curve"/>
      <point x="67" y="49" type="line"/>
      <point x="105" y="31"/>
      <point x="153" y="22"/>
      <point x="189" y="20" type="curve"/>
    </contour>
  </outline>
</glyph>
<glyph name="percent" format="2">
  <advance width="615"/>
  <unicode hex="0025"/>
  <outline>
    <contour>
      <point x="147" y="0" type="line"/>
      <point x="202" y="0" type="line"/>
      <point x="634" y="693" type="line"/>
      <point x="579" y="693" type="line"/>
    </contour>
    <contour>
      <point x="229" y="352" type="curve" smooth="yes"/>
      <point x="321" y="352"/>
      <point x="393" y="485"/>
      <point x="393" y="617" type="curve" smooth="yes"/>
      <point x="393" y="676"/>
      <point x="365" y="708"/>
      <point x="314" y="708" type="curve" smooth="yes"/>
      <point x="222" y="708"/>
      <point x="151" y="577"/>
      <point x="151" y="445" type="curve" smooth="yes"/>
      <point x="151" y="384"/>
      <point x="178" y="352"/>
    </contour>
    <contour>
      <point x="233" y="396" type="curve" smooth="yes"/>
      <point x="213" y="396"/>
      <point x="202" y="412"/>
      <point x="202" y="448" type="curve" smooth="yes"/>
      <point x="202" y="542"/>
      <point x="253" y="664"/>
      <point x="310" y="664" type="curve" smooth="yes"/>
      <point x="332" y="664"/>
      <point x="342" y="648"/>
      <point x="342" y="613" type="curve" smooth="yes"/>
      <point x="342" y="519"/>
      <point x="290" y="396"/>
    </contour>
    <contour>
      <point x="468" y="-12" type="curve" smooth="yes"/>
      <point x="560" y="-12"/>
      <point x="632" y="122"/>
      <point x="632" y="253" type="curve" smooth="yes"/>
      <point x="632" y="313"/>
      <point x="604" y="344"/>
      <point x="553" y="344" type="curve" smooth="yes"/>
      <point x="461" y="344"/>
      <point x="390" y="213"/>
      <point x="390" y="82" type="curve" smooth="yes"/>
      <point x="390" y="20"/>
      <point x="417" y="-12"/>
    </contour>
    <contour>
      <point x="472" y="32" type="curve" smooth="yes"/>
      <point x="452" y="32"/>
      <point x="441" y="49"/>
      <point x="441" y="85" type="curve" smooth="yes"/>
      <point x="441" y="179"/>
      <point x="492" y="300"/>
      <point x="549" y="300" type="curve" smooth="yes"/>
      <point x="571" y="300"/>
      <point x="581" y="285"/>
      <point x="581" y="249" type="curve" smooth="yes"/>
      <point x="581" y="156"/>
      <point x="529" y="32"/>
    </contour>
  </outline>
</glyph>
<glyph name="ampersand" format="2">
  <advance width="493"/>
  <unicode hex="0026"/>
  <outline>
    <contour>
      <point x="209" y="-10" type="curve" smooth="yes"/>
      <point x="276" y="-10"/>
      <point x="337" y="27"/>
      <point x="389" y="87" type="curve"/>
      <point x="403" y="59"/>
      <point x="416" y="28"/>
      <point x="425" y="0" type="curve"/>
      <point x="484" y="0" type="line"/>
      <point x="470" y="43"/>
      <point x="451" y="91"/>
      <point x="430" y="131" type="curve"/>
      <point x="468" y="191"/>
      <point x="504" y="269"/>
      <point x="519" y="349" type="curve"/>
      <point x="468" y="356" type="line"/>
      <point x="454" y="290"/>
      <point x="429" y="228"/>
      <point x="404" y="179" type="curve"/>
      <point x="314" y="366" type="line"/>
      <point x="324" y="372" type="line"/>
      <point x="416" y="432"/>
      <point x="478" y="511"/>
      <point x="478" y="595" type="curve" smooth="yes"/>
      <point x="478" y="659"/>
      <point x="446" y="706"/>
      <point x="368" y="706" type="curve" smooth="yes"/>
      <point x="276" y="706"/>
      <point x="208" y="622"/>
      <point x="208" y="514" type="curve" smooth="yes"/>
      <point x="208" y="466"/>
      <point x="222" y="424"/>
      <point x="243" y="382" type="curve"/>
      <point x="236" y="378" type="line"/>
      <point x="143" y="322"/>
      <point x="81" y="246"/>
      <point x="81" y="133" type="curve" smooth="yes"/>
      <point x="81" y="56"/>
      <point x="124" y="-10"/>
    </contour>
    <contour>
      <point x="221" y="42" type="curve" smooth="yes"/>
      <point x="169" y="42"/>
      <point x="138" y="83"/>
      <point x="138" y="144" type="curve" smooth="yes"/>
      <point x="138" y="220"/>
      <point x="178" y="287"/>
      <point x="255" y="336" type="curve"/>
      <point x="263" y="342" type="line"/>
      <point x="367" y="128" type="line"/>
      <point x="327" y="77"/>
      <point x="277" y="42"/>
    </contour>
    <contour>
      <point x="294" y="405" type="line"/>
      <point x="276" y="442"/>
      <point x="264" y="481"/>
      <point x="264" y="520" type="curve" smooth="yes"/>
      <point x="264" y="597"/>
      <point x="303" y="657"/>
      <point x="360" y="657" type="curve" smooth="yes"/>
      <point x="400" y="657"/>
      <point x="422" y="633"/>
      <point x="422" y="586" type="curve" smooth="yes"/>
      <point x="422" y="522"/>
      <point x="374" y="457"/>
      <point x="302" y="410" type="curve"/>
    </contour>
  </outline>
</glyph>
<glyph name="quotesingle" format="2">
  <advance width="173"/>
  <unicode hex="0027"/>
  <outline>
    <contour>
      <point x="191" y="515" type="curve"/>
      <point x="227" y="515" type="line"/>
      <point x="249" y="580"/>
      <point x="270" y="642"/>
      <point x="285" y="704" type="curve" smooth="yes"/>
      <point x="298" y="760" type="line"/>
      <point x="238" y="760" type="line"/>
      <point x="225" y="704" type="line" smooth="yes"/>
      <point x="211" y="643"/>
      <point x="200" y="580"/>
    </contour>
  </outline>
</glyph>
<glyph name="parenleft" format="2">
  <advance width="253"/>
  <unicode hex="0028"/>
  <outline>
    <contour>
      <point x="162" y="-187" type="curve"/>
      <point x="208" y="-166" type="line"/>
      <point x="183" y="-79"/>
      <point x="173" y="2"/>
      <point x="173" y="85" type="curve" smooth="yes"/>
      <point x="173" y="316"/>
      <point x="258" y="542"/>
      <point x="429" y="760" type="curve"/>
      <point x="388" y="785" type="line"/>
      <point x="212" y="572"/>
      <point x="113" y="328"/>
      <point x="113" y="87" type="curve" smooth="yes"/>
      <point x="113" y="-8"/>
      <point x="131" y="-98"/>
    </contour>
  </outline>
</glyph>
<glyph name="parenright" format="2">
  <advance width="253"/>
  <unicode hex="0029"/>
  <outline>
    <contour>
      <point x="9" y="-187" type="line"/>
      <point x="185" y="26"/>
      <point x="283" y="270"/>
      <point x="283" y="511" type="curve" smooth="yes"/>
      <point x="283" y="606"/>
      <point x="266" y="696"/>
      <point x="235" y="785" type="curve"/>
      <point x="189" y="764" type="line"/>
      <point x="213" y="677"/>
      <point x="224" y="596"/>
      <point x="224" y="513" type="curve" smooth="yes"/>
      <point x="224" y="282"/>
      <point x="139" y="56"/>
      <point x="-32" y="-162" type="curve"/>
    </contour>
  </outline>
</glyph>
<glyph name="asterisk" format="2">
  <advance width="395"/>
  <unicode hex="002A"/>
  <outline>
    <contour>
      <point x="262" y="411" type="line"/>
      <point x="290" y="449"/>
      <point x="307" y="482"/>
      <point x="326" y="527" type="curve"/>
      <point x="344" y="482"/>
      <point x="362" y="450"/>
      <point x="389" y="411" type="curve"/>
      <point x="435" y="444" type="line"/>
      <point x="409" y="485"/>
      <point x="385" y="513"/>
      <point x="348" y="545" type="curve"/>
      <point x="395" y="549"/>
      <point x="431" y="556"/>
      <point x="475" y="573" type="curve"/>
      <point x="457" y="626" type="line"/>
      <point x="414" y="612"/>
      <point x="380" y="597"/>
      <point x="340" y="572" type="curve"/>
      <point x="351" y="619"/>
      <point x="356" y="656"/>
      <point x="354" y="707" type="curve"/>
      <point x="298" y="707" type="line"/>
      <point x="297" y="657"/>
      <point x="301" y="619"/>
      <point x="313" y="571" type="curve"/>
      <point x="272" y="596"/>
      <point x="239" y="612"/>
      <point x="194" y="626" type="curve"/>
      <point x="177" y="572" type="line"/>
      <point x="220" y="556"/>
      <point x="255" y="548"/>
      <point x="303" y="544" type="curve"/>
      <point x="267" y="513"/>
      <point x="242" y="485"/>
      <point x="216" y="444" type="curve"/>
    </contour>
  </outline>
</glyph>
<glyph name="plus" format="2">
  <advance width="437"/>
  <unicode hex="002B"/>
  <outline>
    <contour>
      <point x="220" y="120" type="line"/>
      <point x="276" y="120" type="line"/>
      <point x="312" y="274" type="line"/>
      <point x="452" y="274" type="line"/>
      <point x="464" y="326" type="line"/>
      <point x="325" y="326" type="line"/>
      <point x="362" y="480" type="line"/>
      <point x="306" y="480" type="line"/>
      <point x="270" y="326" type="line"/>
      <point x="129" y="326" type="line"/>
      <point x="116" y="274" type="line"/>
      <point x="257" y="274" type="line"/>
    </contour>
  </outline>
</glyph>
<glyph name="comma" format="2">
  <advance width="202"/>
  <unicode hex="002C"/>
  <outline>
    <contour>
      <point x="56" y="-139" type="line"/>
      <point x="111" y="-73"/>
      <point x="153" y="4"/>
      <point x="161" y="91" type="curve"/>
      <point x="97" y="91" type="line"/>
      <point x="91" y="25"/>
      <point x="59" y="-58"/>
      <point x="18" y="-124" type="curve"/>
    </contour>
  </outline>
</glyph>
<glyph name="hyphen" format="2">
  <advance width="241"/>
  <unicode hex="002D"/>
  <outline>
    <contour>
      <point x="91" y="257" type="line"/>
      <point x="272" y="257" type="line"/>
      <point x="287" y="313" type="line"/>
      <point x="106" y="313" type="line"/>
    </contour>
  </outline>
</glyph>
<glyph name="period" format="2">
  <advance width="202"/>
  <unicode hex="002E"/>
  <outline>
    <contour>
      <point x="106" y="-7" type="curve" smooth="yes"/>
      <point x="131" y="-7"/>
      <point x="154" y="16"/>
      <point x="154" y="46" type="curve" smooth="yes"/>
      <point x="154" y="69"/>
      <point x="138" y="85"/>
      <point x="115" y="85" type="curve" smooth="yes"/>
      <point x="88" y="85"/>
      <point x="66" y="59"/>
      <point x="66" y="32" type="curve" smooth="yes"/>
      <point x="66" y="10"/>
      <point x="84" y="-7"/>
    </contour>
  </outline>
</glyph>
<glyph name="slash" format="2">
  <advance width="271"/>
  <unicode hex="002F"/>
  <outline>
    <contour>
      <point x="-66" y="-185" type="line"/>
      <point x="-9" y="-185" type="line"/>
      <point x="457" y="783" type="line"/>
      <point x="400" y="783" type="line"/>
    </contour>
  </outline>
</glyph>
<glyph name="zero" format="2">
  <advance width="437"/>
  <unicode hex="0030"/>
  <outline>
    <contour>
      <point x="226" y="-11" type="curve" smooth="yes"/>
      <point x="369" y="-11"/>
      <point x="486" y="271"/>
      <point x="486" y="548" type="curve" smooth="yes"/>
      <point x="486" y="653"/>
      <point x="450" y="707"/>
      <point x="380" y="707" type="curve" smooth="yes"/>
      <point x="236" y="707"/>
      <point x="119" y="432"/>
      <point x="119" y="153" type="curve" smooth="yes"/>
      <point x="119" y="45"/>
      <point x="156" y="-11"/>
    </contour>
    <contour>
      <point x="235" y="43" type="curve" smooth="yes"/>
      <point x="197" y="43"/>
      <point x="180" y="78"/>
      <point x="180" y="159" type="curve" smooth="yes"/>
      <point x="180" y="374"/>
      <point x="278" y="653"/>
      <point x="372" y="653" type="curve" smooth="yes"/>
      <point x="409" y="653"/>
      <point x="425" y="618"/>
      <point x="425" y="541" type="curve" smooth="yes"/>
      <point x="425" y="326"/>
      <point x="328" y="43"/>
    </contour>
  </outline>
</glyph>
<glyph name="one" format="2">
  <advance width="437"/>
  <unicode hex="0031"/>
  <outline>
    <contour>
      <point x="229" y="0" type="line"/>
      <point x="290" y="0" type="line"/>
      <point x="456" y="693" type="line"/>
      <point x="409" y="693" type="line"/>
      <point x="359" y="627"/>
      <point x="293" y="585"/>
      <point x="234" y="557" type="curve"/>
      <point x="254" y="510" type="line"/>
      <point x="291" y="527"/>
      <point x="338" y="557"/>
      <point x="371" y="594" type="curve"/>
    </contour>
  </outline>
</glyph>
<glyph name="two" format="2">
  <advance width="427"/>
  <unicode hex="0032"/>
  <outline>
    <contour>
      <point x="96" y="0" type="curve"/>
      <point x="392" y="0" type="line"/>
      <point x="405" y="55" type="line"/>
      <point x="169" y="55" type="line"/>
      <point x="189" y="136"/>
      <point x="248" y="223"/>
      <point x="326" y="300" type="curve" smooth="yes"/>
      <point x="425" y="396"/>
      <point x="478" y="480"/>
      <point x="478" y="569" type="curve" smooth="yes"/>
      <point x="478" y="657"/>
      <point x="433" y="707"/>
      <point x="354" y="707" type="curve" smooth="yes"/>
      <point x="297" y="707"/>
      <point x="245" y="688"/>
      <point x="203" y="652" type="curve"/>
      <point x="225" y="610" type="line"/>
      <point x="261" y="638"/>
      <point x="298" y="653"/>
      <point x="337" y="653" type="curve" smooth="yes"/>
      <point x="386" y="653"/>
      <point x="415" y="622"/>
      <point x="415" y="559" type="curve" smooth="yes"/>
      <point x="415" y="483"/>
      <point x="367" y="409"/>
      <point x="269" y="315" type="curve" smooth="yes"/>
      <point x="181" y="230"/>
      <point x="112" y="118"/>
    </contour>
  </outline>
</glyph>
<glyph name="three" format="2">
  <advance width="437"/>
  <unicode hex="0033"/>
  <outline>
    <contour>
      <point x="194" y="-15" type="curve" smooth="yes"/>
      <point x="320" y="-15"/>
      <point x="415" y="95"/>
      <point x="415" y="228" type="curve" smooth="yes"/>
      <point x="415" y="293"/>
      <point x="392" y="340"/>
      <point x="336" y="369" type="curve"/>
      <point x="439" y="411"/>
      <point x="476" y="498"/>
      <point x="476" y="575" type="curve" smooth="yes"/>
      <point x="476" y="657"/>
      <point x="431" y="706"/>
      <point x="349" y="706" type="curve" smooth="yes"/>
      <point x="300" y="706"/>
      <point x="245" y="690"/>
      <point x="209" y="662" type="curve"/>
      <point x="229" y="618" type="line"/>
      <point x="261" y="639"/>
      <point x="299" y="653"/>
      <point x="331" y="653" type="curve" smooth="yes"/>
      <point x="386" y="653"/>
      <point x="413" y="618"/>
      <point x="413" y="562" type="curve" smooth="yes"/>
      <point x="413" y="493"/>
      <point x="367" y="396"/>
      <point x="254" y="396" type="curve" smooth="yes"/>
      <point x="224" y="396" type="line"/>
      <point x="212" y="341" type="line"/>
      <point x="243" y="341" type="line" smooth="yes"/>
      <point x="313" y="341"/>
      <point x="353" y="301"/>
      <point x="353" y="225" type="curve" smooth="yes"/>
      <point x="353" y="116"/>
      <point x="277" y="39"/>
      <point x="199" y="39" type="curve" smooth="yes"/>
      <point x="161" y="39"/>
      <point x="128" y="48"/>
      <point x="97" y="67" type="curve"/>
      <point x="71" y="17" type="line"/>
      <point x="104" y="-4"/>
      <point x="147" y="-15"/>
    </contour>
  </outline>
</glyph>
<glyph name="four" format="1">
  <advance width="427"/>
  <unicode hex="0034"/>
  <outline>
    <contour>
      <point x="268" y="0" type="line"/>
      <point x="328" y="0" type="line"/>
      <point x="369" y="172" type="line"/>
      <point x="438" y="172" type="line"/>
      <point x="450" y="223" type="line"/>
      <point x="382" y="223" type="line"/>
      <point x="494" y="693" type="line"/>
      <point x="430" y="693" type="line"/>
      <point x="327" y="572"/>
      <point x="196" y="395"/>
      <point x="101" y="216" type="curve"/>
      <point x="91" y="172" type="line"/>
      <point x="310" y="172" type="line"/>
    </contour>
    <contour>
      <point x="158" y="223" type="line"/>
      <point x="232" y="359"/>
      <point x="314" y="478"/>
      <point x="412" y="602" type="curve"/>
      <point x="322" y="223" type="line"/>
    </contour>
  </outline>
</glyph>
<glyph name="five" format="2">
  <advance width="437"/>
  <unicode hex="0035"/>
  <outline>
    <contour>
      <point x="194" y="-15" type="curve" smooth="yes"/>
      <point x="319" y="-15"/>
      <point x="418" y="102"/>
      <point x="418" y="245" type="curve" smooth="yes"/>
      <point x="418" y="333"/>
      <point x="371" y="390"/>
      <point x="256" y="413" type="curve"/>
      <point x="282" y="491"/>
      <point x="302" y="557"/>
      <point x="322" y="639" type="curve"/>
      <point x="501" y="639" type="line"/>
      <point x="515" y="693" type="line"/>
      <point x="281" y="693" type="line"/>
      <point x="262" y="610"/>
      <point x="223" y="476"/>
      <point x="186" y="367" type="curve"/>
      <point x="301" y="361"/>
      <point x="355" y="315"/>
      <point x="355" y="235" type="curve" smooth="yes"/>
      <point x="355" y="130"/>
      <point x="285" y="39"/>
      <point x="200" y="39" type="curve" smooth="yes"/>
      <point x="167" y="39"/>
      <point x="127" y="48"/>
      <point x="99" y="67" type="curve"/>
      <point x="73" y="17" type="line"/>
      <point x="110" y="-5"/>
      <point x="149" y="-15"/>
    </contour>
  </outline>
</glyph>
<glyph name="six" format="2">
  <advance width="437"/>
  <unicode hex="0036"/>
  <outline>
    <contour>
      <point x="238" y="-11" type="curve" smooth="yes"/>
      <point x="351" y="-11"/>
      <point x="438" y="131"/>
      <point x="438" y="286" type="curve" smooth="yes"/>
      <point x="438" y="373"/>
      <point x="397" y="423"/>
      <point x="328" y="423" type="curve" smooth="yes"/>
      <point x="292" y="423"/>
      <point x="259" y="414"/>
      <point x="224" y="396" type="curve"/>
      <point x="271" y="526"/>
      <point x="356" y="639"/>
      <point x="497" y="649" type="curve"/>
      <point x="504" y="699" type="line"/>
      <point x="215" y="686"/>
      <point x="123" y="339"/>
      <point x="123" y="158" type="curve" smooth="yes"/>
      <point x="123" y="47"/>
      <point x="166" y="-11"/>
    </contour>
    <contour>
      <point x="246" y="43" type="curve" smooth="yes"/>
      <point x="203" y="43"/>
      <point x="181" y="78"/>
      <point x="181" y="153" type="curve" smooth="yes"/>
      <point x="181" y="209"/>
      <point x="189" y="275"/>
      <point x="206" y="338" type="curve"/>
      <point x="236" y="360"/>
      <point x="270" y="372"/>
      <point x="305" y="372" type="curve" smooth="yes"/>
      <point x="350" y="372"/>
      <point x="376" y="339"/>
      <point x="376" y="275" type="curve" smooth="yes"/>
      <point x="376" y="153"/>
      <point x="317" y="43"/>
    </contour>
  </outline>
</glyph>
<glyph name="seven" format="2">
  <advance width="437"/>
  <unicode hex="0037"/>
  <outline>
    <contour>
      <point x="143" y="0" type="curve"/>
      <point x="207" y="0" type="line"/>
      <point x="266" y="206"/>
      <point x="402" y="485"/>
      <point x="538" y="651" type="curve"/>
      <point x="547" y="693" type="line"/>
      <point x="243" y="693" type="line"/>
      <point x="230" y="638" type="line"/>
      <point x="466" y="638" type="line"/>
      <point x="331" y="459"/>
      <point x="193" y="180"/>
    </contour>
  </outline>
</glyph>
<glyph name="eight" format="2">
  <advance width="427"/>
  <unicode hex="0038"/>
  <outline>
    <contour>
      <point x="222" y="-11" type="curve" smooth="yes"/>
      <point x="326" y="-11"/>
      <point x="417" y="75"/>
      <point x="417" y="202" type="curve" smooth="yes"/>
      <point x="417" y="264"/>
      <point x="387" y="305"/>
      <point x="347" y="347" type="curve"/>
      <point x="426" y="404"/>
      <point x="487" y="486"/>
      <point x="487" y="581" type="curve" smooth="yes"/>
      <point x="487" y="665"/>
      <point x="437" y="706"/>
      <point x="367" y="706" type="curve" smooth="yes"/>
      <point x="281" y="706"/>
      <point x="190" y="637"/>
      <point x="190" y="505" type="curve" smooth="yes"/>
      <point x="190" y="448"/>
      <point x="213" y="407"/>
      <point x="246" y="369" type="curve"/>
      <point x="152" y="314"/>
      <point x="92" y="242"/>
      <point x="92" y="133" type="curve" smooth="yes"/>
      <point x="92" y="49"/>
      <point x="140" y="-11"/>
    </contour>
    <contour>
      <point x="236" y="39" type="curve" smooth="yes"/>
      <point x="184" y="39"/>
      <point x="155" y="78"/>
      <point x="155" y="137" type="curve" smooth="yes"/>
      <point x="155" y="229"/>
      <point x="199" y="285"/>
      <point x="275" y="338" type="curve"/>
      <point x="317" y="293"/>
      <point x="354" y="253"/>
      <point x="354" y="191" type="curve" smooth="yes"/>
      <point x="354" y="96"/>
      <point x="293" y="39"/>
    </contour>
    <contour>
      <point x="318" y="377" type="curve"/>
      <point x="281" y="418"/>
      <point x="251" y="457"/>
      <point x="251" y="517" type="curve" smooth="yes"/>
      <point x="251" y="618"/>
      <point x="313" y="656"/>
      <point x="359" y="656" type="curve" smooth="yes"/>
      <point x="399" y="656"/>
      <point x="427" y="633"/>
      <point x="427" y="574" type="curve" smooth="yes"/>
      <point x="427" y="493"/>
      <point x="386" y="431"/>
    </contour>
  </outline>
</glyph>
<glyph name="nine" format="2">
  <advance width="437"/>
  <unicode hex="0039"/>
  <outline>
    <contour>
      <point x="90" y="-4" type="curve" smooth="yes"/>
      <point x="388" y="-1"/>
      <point x="483" y="356"/>
      <point x="483" y="537" type="curve" smooth="yes"/>
      <point x="483" y="648"/>
      <point x="440" y="706"/>
      <point x="368" y="706" type="curve" smooth="yes"/>
      <point x="254" y="706"/>
      <point x="166" y="563"/>
      <point x="166" y="407" type="curve" smooth="yes"/>
      <point x="166" y="319"/>
      <point x="208" y="269"/>
      <point x="278" y="269" type="curve" smooth="yes"/>
      <point x="314" y="269"/>
      <point x="346" y="276"/>
      <point x="378" y="294" type="curve"/>
      <point x="329" y="158"/>
      <point x="239" y="49"/>
      <point x="90" y="47" type="curve"/>
      <point x="82" y="-4" type="line"/>
      <point x="84" y="-4"/>
      <point x="87" y="-4"/>
    </contour>
    <contour>
      <point x="301" y="320" type="curve" smooth="yes"/>
      <point x="255" y="320"/>
      <point x="229" y="353"/>
      <point x="229" y="419" type="curve" smooth="yes"/>
      <point x="229" y="541"/>
      <point x="288" y="652"/>
      <point x="360" y="652" type="curve" smooth="yes"/>
      <point x="403" y="652"/>
      <point x="425" y="616"/>
      <point x="425" y="542" type="curve" smooth="yes"/>
      <point x="425" y="483"/>
      <point x="416" y="417"/>
      <point x="398" y="352" type="curve"/>
      <point x="366" y="330"/>
      <point x="335" y="320"/>
    </contour>
  </outline>
</glyph>
<glyph name="less" format="2">
  <advance width="437"/>
  <unicode hex="003C"/>
  <outline>
    <contour>
      <point x="374" y="95" type="line"/>
      <point x="403" y="142" type="line"/>
      <point x="185" y="293" type="line"/>
      <point x="479" y="447" type="line"/>
      <point x="475" y="501" type="line"/>
      <point x="134" y="324" type="line"/>
      <point x="119" y="272" type="line"/>
    </contour>
  </outline>
</glyph>
<glyph name="equal" format="2">
  <advance width="427"/>
  <unicode hex="003D"/>
  <outline>
    <contour>
      <point x="135" y="370" type="line"/>
      <point x="470" y="370" type="line"/>
      <point x="483" y="422" type="line"/>
      <point x="148" y="422" type="line"/>
    </contour>
    <contour>
      <point x="89" y="176" type="line"/>
      <point x="424" y="176" type="line"/>
      <point x="437" y="228" type="line"/>
      <point x="102" y="228" type="line"/>
    </contour>
  </outline>
</glyph>
<glyph name="greater" format="2">
  <advance width="437"/>
  <unicode hex="003E"/>
  <outline>
    <contour>
      <point x="93" y="95" type="line"/>
      <point x="434" y="271" type="line"/>
      <point x="448" y="324" type="line"/>
      <point x="193" y="501" type="line"/>
      <point x="164" y="454" type="line"/>
      <point x="382" y="303" type="line"/>
      <point x="88" y="148" type="line"/>
    </contour>
  </outline>
</glyph>
<glyph name="question" format="2">
  <advance width="310"/>
  <unicode hex="003F"/>
  <outline>
    <contour>
      <point x="144" y="193" type="curve"/>
      <point x="200" y="193" type="line"/>
      <point x="200" y="302"/>
      <point x="260" y="353"/>
      <point x="319" y="408" type="curve" smooth="yes"/>
      <point x="369" y="454"/>
      <point x="417" y="509"/>
      <point x="417" y="592" type="curve" smooth="yes"/>
      <point x="417" y="656"/>
      <point x="376" y="706"/>
      <point x="298" y="706" type="curve" smooth="yes"/>
      <point x="251" y="706"/>
      <point x="211" y="695"/>
      <point x="175" y="673" type="curve"/>
      <point x="190" y="625" type="line"/>
      <point x="218" y="641"/>
      <point x="247" y="651"/>
      <point x="281" y="651" type="curve" smooth="yes"/>
      <point x="325" y="651"/>
      <point x="353" y="626"/>
      <point x="353" y="580" type="curve" smooth="yes"/>
      <point x="353" y="521"/>
      <point x="314" y="472"/>
      <point x="270" y="431" type="curve" smooth="yes"/>
      <point x="219" y="383"/>
      <point x="144" y="322"/>
    </contour>
    <contour>
      <point x="144" y="-7" type="curve" smooth="yes"/>
      <point x="169" y="-7"/>
      <point x="193" y="16"/>
      <point x="193" y="47" type="curve" smooth="yes"/>
      <point x="193" y="70"/>
      <point x="176" y="87"/>
      <point x="153" y="87" type="curve" smooth="yes"/>
      <point x="125" y="87"/>
      <point x="103" y="61"/>
      <point x="103" y="32" type="curve" smooth="yes"/>
      <point x="103" y="10"/>
      <point x="121" y="-7"/>
    </contour>
  </outline>
</glyph>
<glyph name="at" format="2">
  <advance width="805"/>
  <unicode hex="0040"/>
  <outline>
    <contour>
      <point x="403" y="-151" type="curve" smooth="yes"/>
      <point x="453" y="-151"/>
      <point x="501" y="-145"/>
      <point x="531" y="-133" type="curve"/>
      <point x="533" y="-86" type="line"/>
      <point x="498" y="-97"/>
      <point x="455" y="-104"/>
      <point x="413" y="-104" type="curve" smooth="yes"/>
      <point x="264" y="-104"/>
      <point x="187" y="-3"/>
      <point x="187" y="182" type="curve" smooth="yes"/>
      <point x="187" y="446"/>
      <point x="356" y="658"/>
      <point x="546" y="658" type="curve" smooth="yes"/>
      <point x="690" y="658"/>
      <point x="759" y="574"/>
      <point x="759" y="411" type="curve" smooth="yes"/>
      <point x="759" y="234"/>
      <point x="691" y="105"/>
      <point x="625" y="105" type="curve" smooth="yes"/>
      <point x="599" y="105"/>
      <point x="575" y="122"/>
      <point x="575" y="165" type="curve" smooth="yes"/>
      <point x="575" y="178"/>
      <point x="578" y="193"/>
      <point x="582" y="212" type="curve" smooth="yes"/>
      <point x="647" y="481" type="line"/>
      <point x="619" y="494"/>
      <point x="573" y="502"/>
      <point x="543" y="502" type="curve" smooth="yes"/>
      <point x="415" y="502"/>
      <point x="315" y="359"/>
      <point x="315" y="185" type="curve" smooth="yes"/>
      <point x="315" y="103"/>
      <point x="351" y="56"/>
      <point x="421" y="56" type="curve" smooth="yes"/>
      <point x="459" y="56"/>
      <point x="497" y="74"/>
      <point x="531" y="106" type="curve"/>
      <point x="550" y="69"/>
      <point x="586" y="58"/>
      <point x="616" y="58" type="curve" smooth="yes"/>
      <point x="728" y="58"/>
      <point x="812" y="218"/>
      <point x="812" y="420" type="curve" smooth="yes"/>
      <point x="812" y="604"/>
      <point x="720" y="706"/>
      <point x="555" y="706" type="curve" smooth="yes"/>
      <point x="325" y="706"/>
      <point x="132" y="471"/>
      <point x="132" y="170" type="curve" smooth="yes"/>
      <point x="132" y="-41"/>
      <point x="235" y="-151"/>
    </contour>
    <contour>
      <point x="435" y="106" type="curve" smooth="yes"/>
      <point x="391" y="106"/>
      <point x="371" y="131"/>
      <point x="371" y="188" type="curve" smooth="yes"/>
      <point x="371" y="328"/>
      <point x="446" y="453"/>
      <point x="529" y="453" type="curve" smooth="yes"/>
      <point x="545" y="453"/>
      <point x="558" y="452"/>
      <point x="581" y="444" type="curve"/>
      <point x="528" y="221" type="line" smooth="yes"/>
      <point x="521" y="193"/>
      <point x="519" y="170"/>
      <point x="521" y="150" type="curve"/>
      <point x="493" y="121"/>
      <point x="462" y="106"/>
    </contour>
  </outline>
</glyph>
<glyph name="A" format="2">
  <advance width="472"/>
  <unicode hex="0041"/>
  <outline>
    <contour>
      <point x="25" y="0" type="curve"/>
      <point x="87" y="0" type="line"/>
      <point x="107" y="56"/>
      <point x="134" y="119"/>
      <point x="163" y="186" type="curve"/>
      <point x="392" y="186" type="line"/>
      <point x="391" y="119"/>
      <point x="389" y="58"/>
      <point x="386" y="0" type="curve"/>
      <point x="450" y="0" type="line"/>
      <point x="460" y="230"/>
      <point x="451" y="464"/>
      <point x="430" y="693" type="curve"/>
      <point x="362" y="693" type="line"/>
      <point x="243" y="488"/>
      <point x="112" y="229"/>
    </contour>
    <contour>
      <point x="187" y="240" type="line"/>
      <point x="243" y="364"/>
      <point x="311" y="498"/>
      <point x="379" y="619" type="curve"/>
      <point x="389" y="484"/>
      <point x="392" y="357"/>
      <point x="393" y="240" type="curve"/>
    </contour>
  </outline>
</glyph>
<glyph name="B" format="2">
  <advance width="492"/>
  <unicode hex="0042"/>
  <outline>
    <contour>
      <point x="220" y="-4" type="curve" smooth="yes"/>
      <point x="403" y="-4"/>
      <point x="493" y="92"/>
      <point x="493" y="223" type="curve" smooth="yes"/>
      <point x="493" y="284"/>
      <point x="463" y="333"/>
      <point x="396" y="359" type="curve"/>
      <point x="518" y="394"/>
      <point x="553" y="487"/>
      <point x="553" y="564" type="curve" smooth="yes"/>
      <point x="553" y="652"/>
      <point x="492" y="699"/>
      <point x="374" y="699" type="curve" smooth="yes"/>
      <point x="333" y="699"/>
      <point x="287" y="693"/>
      <point x="242" y="683" type="curve"/>
      <point x="82" y="11" type="line"/>
      <point x="124" y="1"/>
      <point x="174" y="-4"/>
    </contour>
    <contour>
      <point x="233" y="50" type="curve" smooth="yes"/>
      <point x="208" y="50"/>
      <point x="178" y="53"/>
      <point x="155" y="57" type="curve"/>
      <point x="221" y="333" type="line"/>
      <point x="295" y="333" type="line" smooth="yes"/>
      <point x="382" y="333"/>
      <point x="427" y="293"/>
      <point x="427" y="219" type="curve" smooth="yes"/>
      <point x="427" y="112"/>
      <point x="362" y="50"/>
    </contour>
    <contour>
      <point x="234" y="386" type="line"/>
      <point x="295" y="638" type="line"/>
      <point x="314" y="642"/>
      <point x="341" y="644"/>
      <point x="365" y="644" type="curve" smooth="yes"/>
      <point x="449" y="644"/>
      <point x="488" y="618"/>
      <point x="488" y="554" type="curve" smooth="yes"/>
      <point x="488" y="476"/>
      <point x="445" y="386"/>
      <point x="313" y="386" type="curve" smooth="yes"/>
    </contour>
  </outline>
</glyph>
<glyph name="C" format="2">
  <advance width="468"/>
  <unicode hex="0043"/>
  <outline>
    <contour>
      <point x="306" y="-10" type="curve" smooth="yes"/>
      <point x="359" y="-10"/>
      <point x="406" y="3"/>
      <point x="452" y="32" type="curve"/>
      <point x="445" y="88" type="line"/>
      <point x="404" y="59"/>
      <point x="363" y="45"/>
      <point x="323" y="45" type="curve" smooth="yes"/>
      <point x="241" y="45"/>
      <point x="198" y="95"/>
      <point x="198" y="204" type="curve" smooth="yes"/>
      <point x="198" y="456"/>
      <point x="322" y="649"/>
      <point x="471" y="649" type="curve" smooth="yes"/>
      <point x="500" y="649"/>
      <point x="535" y="642"/>
      <point x="560" y="628" type="curve"/>
      <point x="583" y="682" type="line"/>
      <point x="555" y="696"/>
      <point x="517" y="704"/>
      <point x="474" y="704" type="curve" smooth="yes"/>
      <point x="277" y="704"/>
      <point x="132" y="478"/>
      <point x="132" y="203" type="curve" smooth="yes"/>
      <point x="132" y="67"/>
      <point x="191" y="-10"/>
    </contour>
  </outline>
</glyph>
<glyph name="D" format="2">
  <advance width="552"/>
  <unicode hex="0044"/>
  <outline>
    <contour>
      <point x="220" y="-4" type="curve" smooth="yes"/>
      <point x="446" y="-4"/>
      <point x="586" y="227"/>
      <point x="586" y="478" type="curve" smooth="yes"/>
      <point x="586" y="621"/>
      <point x="522" y="699"/>
      <point x="388" y="699" type="curve" smooth="yes"/>
      <point x="341" y="699"/>
      <point x="297" y="695"/>
      <point x="248" y="683" type="curve"/>
      <point x="88" y="12" type="line"/>
      <point x="120" y="3"/>
      <point x="175" y="-4"/>
    </contour>
    <contour>
      <point x="235" y="51" type="curve" smooth="yes"/>
      <point x="218" y="51"/>
      <point x="191" y="54"/>
      <point x="161" y="59" type="curve"/>
      <point x="300" y="636" type="line"/>
      <point x="327" y="641"/>
      <point x="354" y="643"/>
      <point x="379" y="643" type="curve" smooth="yes"/>
      <point x="479" y="643"/>
      <point x="521" y="588"/>
      <point x="521" y="470" type="curve" smooth="yes"/>
      <point x="521" y="249"/>
      <point x="401" y="51"/>
    </contour>
  </outline>
</glyph>
<glyph name="E" format="2">
  <advance width="416"/>
  <unicode hex="0045"/>
  <outline>
    <contour>
      <point x="78" y="0" type="line"/>
      <point x="389" y="0" type="line"/>
      <point x="401" y="54" type="line"/>
      <point x="154" y="54" type="line"/>
      <point x="222" y="338" type="line"/>
      <point x="427" y="338" type="line"/>
      <point x="439" y="392" type="line"/>
      <point x="235" y="392" type="line"/>
      <point x="294" y="639" type="line"/>
      <point x="523" y="639" type="line"/>
      <point x="536" y="693" type="line"/>
      <point x="244" y="693" type="line"/>
    </contour>
  </outline>
</glyph>
<glyph name="F" format="2">
  <advance width="401"/>
  <unicode hex="0046"/>
  <outline>
    <contour>
      <point x="84" y="0" type="line"/>
      <point x="147" y="0" type="line"/>
      <point x="227" y="336" type="line"/>
      <point x="428" y="336" type="line"/>
      <point x="441" y="389" type="line"/>
      <point x="240" y="389" type="line"/>
      <point x="300" y="639" type="line"/>
      <point x="525" y="639" type="line"/>
      <point x="537" y="693" type="line"/>
      <point x="250" y="693" type="line"/>
    </contour>
  </outline>
</glyph>
<glyph name="G" format="2">
  <advance width="501"/>
  <unicode hex="0047"/>
  <outline>
    <contour>
      <point x="309" y="-10" type="curve" smooth="yes"/>
      <point x="370" y="-10"/>
      <point x="415" y="3"/>
      <point x="450" y="20" type="curve"/>
      <point x="525" y="332" type="line"/>
      <point x="462" y="332" type="line"/>
      <point x="397" y="61" type="line"/>
      <point x="371" y="49"/>
      <point x="349" y="45"/>
      <point x="317" y="45" type="curve" smooth="yes"/>
      <point x="230" y="45"/>
      <point x="193" y="97"/>
      <point x="193" y="208" type="curve" smooth="yes"/>
      <point x="193" y="449"/>
      <point x="319" y="649"/>
      <point x="469" y="649" type="curve" smooth="yes"/>
      <point x="508" y="649"/>
      <point x="545" y="639"/>
      <point x="573" y="623" type="curve"/>
      <point x="597" y="678" type="line"/>
      <point x="566" y="693"/>
      <point x="528" y="704"/>
      <point x="480" y="704" type="curve" smooth="yes"/>
      <point x="278" y="704"/>
      <point x="128" y="481"/>
      <point x="128" y="203" type="curve" smooth="yes"/>
      <point x="128" y="64"/>
      <point x="187" y="-10"/>
    </contour>
  </outline>
</glyph>
<glyph name="H" format="1">
  <advance width="538"/>
  <unicode hex="0048"/>
  <outline>
    <contour>
      <point x="79" y="0" type="line"/>
      <point x="142" y="0" type="line"/>
      <point x="222" y="334" type="line"/>
      <point x="476" y="334" type="line"/>
      <point x="396" y="0" type="line"/>
      <point x="459" y="0" type="line"/>
      <point x="625" y="693" type="line"/>
      <point x="562" y="693" type="line"/>
      <point x="490" y="390" type="line"/>
      <point x="235" y="390" type="line"/>
      <point x="308" y="693" type="line"/>
      <point x="245" y="693" type="line"/>
    </contour>
  </outline>
</glyph>
<glyph name="I" format="2">
  <advance width="221"/>
  <unicode hex="0049"/>
  <outline>
    <contour>
      <point x="80" y="0" type="line"/>
      <point x="142" y="0" type="line"/>
      <point x="308" y="693" type="line"/>
      <point x="246" y="693" type="line"/>
    </contour>
  </outline>
</glyph>
<glyph name="J" format="1">
  <advance width="351"/>
  <unicode hex="004A"/>
  <outline>
    <contour>
      <point x="128" y="-9" type="curve" smooth="yes"/>
      <point x="229" y="-9"/>
      <point x="287" y="35"/>
      <point x="322" y="182" type="curve" smooth="yes"/>
      <point x="445" y="693" type="line"/>
      <point x="382" y="693" type="line"/>
      <point x="259" y="182" type="line" smooth="yes"/>
      <point x="237" y="87"/>
      <point x="203" y="46"/>
      <point x="138" y="46" type="curve" smooth="yes"/>
      <point x="106" y="46"/>
      <point x="75" y="56"/>
      <point x="49" y="73" type="curve"/>
      <point x="20" y="23" type="line"/>
      <point x="54" y="3"/>
      <point x="92" y="-9"/>
    </contour>
  </outline>
</glyph>
<glyph name="K" format="2">
  <advance width="471"/>
  <unicode hex="004B"/>
  <outline>
    <contour>
      <point x="78" y="0" type="line"/>
      <point x="140" y="0" type="line"/>
      <point x="220" y="334" type="line"/>
      <point x="298" y="250"/>
      <point x="351" y="117"/>
      <point x="376" y="0" type="curve"/>
      <point x="441" y="0" type="line"/>
      <point x="418" y="118"/>
      <point x="363" y="249"/>
      <point x="283" y="355" type="curve"/>
      <point x="401" y="469"/>
      <point x="490" y="578"/>
      <point x="587" y="693" type="curve"/>
      <point x="522" y="693" type="line"/>
      <point x="435" y="590"/>
      <point x="341" y="480"/>
      <point x="229" y="373" type="curve"/>
      <point x="306" y="693" type="line"/>
      <point x="244" y="693" type="line"/>
    </contour>
  </outline>
</glyph>
<glyph name="L" format="2">
  <advance width="381"/>
  <unicode hex="004C"/>
  <outline>
    <contour>
      <point x="79" y="0" type="line"/>
      <point x="365" y="0" type="line"/>
      <point x="378" y="55" type="line"/>
      <point x="154" y="55" type="line"/>
      <point x="308" y="693" type="line"/>
      <point x="245" y="693" type="line"/>
    </contour>
  </outline>
</glyph>
<glyph name="M" format="2">
  <advance width="675"/>
  <unicode hex="004D"/>
  <outline>
    <contour>
      <point x="67" y="0" type="curve"/>
      <point x="128" y="0" type="line"/>
      <point x="176" y="184"/>
      <point x="231" y="391"/>
      <point x="294" y="600" type="curve"/>
      <point x="322" y="418"/>
      <point x="325" y="258"/>
      <point x="332" y="99" type="curve"/>
      <point x="391" y="99" type="line"/>
      <point x="473" y="253"/>
      <point x="557" y="414"/>
      <point x="667" y="591" type="curve"/>
      <point x="630" y="384"/>
      <point x="588" y="182"/>
      <point x="547" y="0" type="curve"/>
      <point x="608" y="0" type="line"/>
      <point x="659" y="238"/>
      <point x="708" y="487"/>
      <point x="740" y="693" type="curve"/>
      <point x="675" y="693" type="line"/>
      <point x="582" y="553"/>
      <point x="486" y="378"/>
      <point x="379" y="176" type="curve"/>
      <point x="371" y="377"/>
      <point x="358" y="552"/>
      <point x="332" y="693" type="curve"/>
      <point x="267" y="693" type="line"/>
      <point x="200" y="487"/>
      <point x="130" y="238"/>
    </contour>
  </outline>
</glyph>
<glyph name="N" format="2">
  <advance width="547"/>
  <unicode hex="004E"/>
  <outline>
    <contour>
      <point x="79" y="0" type="line"/>
      <point x="140" y="0" type="line"/>
      <point x="279" y="581" type="line"/>
      <point x="335" y="392"/>
      <point x="380" y="190"/>
      <point x="413" y="0" type="curve"/>
      <point x="468" y="0" type="line"/>
      <point x="634" y="693" type="line"/>
      <point x="573" y="693" type="line"/>
      <point x="441" y="142" type="line"/>
      <point x="402" y="343"/>
      <point x="352" y="539"/>
      <point x="303" y="693" type="curve"/>
      <point x="245" y="693" type="line"/>
    </contour>
  </outline>
</glyph>
<glyph name="O" format="2">
  <advance width="571"/>
  <unicode hex="004F"/>
  <outline>
    <contour>
      <point x="294" y="-10" type="curve" smooth="yes"/>
      <point x="471" y="-10"/>
      <point x="610" y="228"/>
      <point x="610" y="491" type="curve" smooth="yes"/>
      <point x="610" y="627"/>
      <point x="556" y="704"/>
      <point x="445" y="704" type="curve" smooth="yes"/>
      <point x="268" y="704"/>
      <point x="129" y="469"/>
      <point x="129" y="207" type="curve" smooth="yes"/>
      <point x="129" y="68"/>
      <point x="183" y="-10"/>
    </contour>
    <contour>
      <point x="301" y="45" type="curve" smooth="yes"/>
      <point x="224" y="45"/>
      <point x="194" y="98"/>
      <point x="194" y="211" type="curve" smooth="yes"/>
      <point x="194" y="419"/>
      <point x="302" y="649"/>
      <point x="438" y="649" type="curve" smooth="yes"/>
      <point x="511" y="649"/>
      <point x="545" y="596"/>
      <point x="545" y="487" type="curve" smooth="yes"/>
      <point x="545" y="275"/>
      <point x="435" y="45"/>
    </contour>
  </outline>
</glyph>
<glyph name="P" format="2">
  <advance width="453"/>
  <unicode hex="0050"/>
  <outline>
    <contour>
      <point x="78" y="0" type="line"/>
      <point x="141" y="0" type="line"/>
      <point x="205" y="268" type="line"/>
      <point x="258" y="268" type="line" smooth="yes"/>
      <point x="435" y="268"/>
      <point x="550" y="385"/>
      <point x="550" y="541" type="curve" smooth="yes"/>
      <point x="550" y="647"/>
      <point x="490" y="699"/>
      <point x="378" y="699" type="curve" smooth="yes"/>
      <point x="337" y="699"/>
      <point x="289" y="695"/>
      <point x="242" y="683" type="curve"/>
    </contour>
    <contour>
      <point x="219" y="323" type="line"/>
      <point x="294" y="636" type="line"/>
      <point x="319" y="642"/>
      <point x="349" y="643"/>
      <point x="369" y="643" type="curve" smooth="yes"/>
      <point x="446" y="643"/>
      <point x="486" y="613"/>
      <point x="486" y="534" type="curve" smooth="yes"/>
      <point x="486" y="412"/>
      <point x="409" y="323"/>
      <point x="270" y="323" type="curve" smooth="yes"/>
    </contour>
  </outline>
</glyph>
<glyph name="Q" format="2">
  <advance width="570"/>
  <unicode hex="0051"/>
  <outline>
    <contour>
      <point x="466" y="-169" type="curve"/>
      <point x="487" y="-116" type="line"/>
      <point x="398" y="-107"/>
      <point x="337" y="-68"/>
      <point x="335" y="-11" type="curve" smooth="yes"/>
      <point x="335" y="-9"/>
      <point x="335" y="-7"/>
      <point x="335" y="-5" type="curve"/>
      <point x="491" y="27"/>
      <point x="610" y="247"/>
      <point x="610" y="491" type="curve" smooth="yes"/>
      <point x="610" y="627"/>
      <point x="556" y="704"/>
      <point x="445" y="704" type="curve" smooth="yes"/>
      <point x="267" y="704"/>
      <point x="128" y="469"/>
      <point x="128" y="207" type="curve" smooth="yes"/>
      <point x="128" y="74"/>
      <point x="178" y="-2"/>
      <point x="277" y="-8" type="curve"/>
      <point x="277" y="-10"/>
      <point x="277" y="-13"/>
      <point x="277" y="-15" type="curve" smooth="yes"/>
      <point x="279" y="-105"/>
      <point x="350" y="-152"/>
    </contour>
    <contour>
      <point x="301" y="45" type="curve" smooth="yes"/>
      <point x="224" y="45"/>
      <point x="193" y="98"/>
      <point x="193" y="211" type="curve" smooth="yes"/>
      <point x="193" y="419"/>
      <point x="302" y="649"/>
      <point x="437" y="649" type="curve" smooth="yes"/>
      <point x="511" y="649"/>
      <point x="544" y="596"/>
      <point x="544" y="487" type="curve" smooth="yes"/>
      <point x="544" y="275"/>
      <point x="435" y="45"/>
    </contour>
  </outline>
</glyph>
<glyph name="R" format="2">
  <advance width="488"/>
  <unicode hex="0052"/>
  <outline>
    <contour>
      <point x="84" y="0" type="line"/>
      <point x="147" y="0" type="line"/>
      <point x="213" y="277" type="line"/>
      <point x="276" y="277" type="line" smooth="yes"/>
      <point x="288" y="277"/>
      <point x="301" y="278"/>
      <point x="322" y="280" type="curve"/>
      <point x="353" y="200"/>
      <point x="382" y="90"/>
      <point x="396" y="0" type="curve"/>
      <point x="462" y="0" type="line"/>
      <point x="439" y="125"/>
      <point x="412" y="217"/>
      <point x="381" y="299" type="curve"/>
      <point x="496" y="347"/>
      <point x="551" y="436"/>
      <point x="551" y="544" type="curve" smooth="yes"/>
      <point x="551" y="644"/>
      <point x="492" y="699"/>
      <point x="382" y="699" type="curve" smooth="yes"/>
      <point x="337" y="699"/>
      <point x="288" y="692"/>
      <point x="248" y="683" type="curve"/>
    </contour>
    <contour>
      <point x="226" y="331" type="line"/>
      <point x="300" y="636" type="line"/>
      <point x="323" y="641"/>
      <point x="350" y="644"/>
      <point x="371" y="644" type="curve" smooth="yes"/>
      <point x="447" y="644"/>
      <point x="486" y="608"/>
      <point x="486" y="536" type="curve" smooth="yes"/>
      <point x="486" y="417"/>
      <point x="409" y="331"/>
      <point x="283" y="331" type="curve" smooth="yes"/>
    </contour>
  </outline>
</glyph>
<glyph name="S" format="2">
  <advance width="369"/>
  <unicode hex="0053"/>
  <outline>
    <contour>
      <point x="174" y="-11" type="curve" smooth="yes"/>
      <point x="301" y="-11"/>
      <point x="390" y="81"/>
      <point x="390" y="210" type="curve" smooth="yes"/>
      <point x="390" y="285"/>
      <point x="367" y="323"/>
      <point x="305" y="374" type="curve" smooth="yes"/>
      <point x="244" y="422"/>
      <point x="220" y="452"/>
      <point x="220" y="506" type="curve" smooth="yes"/>
      <point x="220" y="594"/>
      <point x="274" y="649"/>
      <point x="353" y="649" type="curve" smooth="yes"/>
      <point x="386" y="649"/>
      <point x="423" y="640"/>
      <point x="452" y="627" type="curve"/>
      <point x="472" y="679" type="line"/>
      <point x="440" y="695"/>
      <point x="405" y="704"/>
      <point x="360" y="704" type="curve" smooth="yes"/>
      <point x="244" y="704"/>
      <point x="157" y="617"/>
      <point x="157" y="496" type="curve" smooth="yes"/>
      <point x="157" y="422"/>
      <point x="186" y="385"/>
      <point x="250" y="336" type="curve" smooth="yes"/>
      <point x="306" y="291"/>
      <point x="326" y="257"/>
      <point x="326" y="202" type="curve" smooth="yes"/>
      <point x="326" y="108"/>
      <point x="270" y="44"/>
      <point x="183" y="44" type="curve" smooth="yes"/>
      <point x="146" y="44"/>
      <point x="98" y="55"/>
      <point x="59" y="75" type="curve"/>
      <point x="39" y="19" type="line"/>
      <point x="81" y="0"/>
      <point x="131" y="-11"/>
    </contour>
  </outline>
</glyph>
<glyph name="T" format="2">
  <advance width="415"/>
  <unicode hex="0054"/>
  <outline>
    <contour>
      <point x="176" y="0" type="line"/>
      <point x="238" y="0" type="line"/>
      <point x="392" y="638" type="line"/>
      <point x="545" y="638" type="line"/>
      <point x="558" y="693" type="line"/>
      <point x="189" y="693" type="line"/>
      <point x="176" y="638" type="line"/>
      <point x="329" y="638" type="line"/>
    </contour>
  </outline>
</glyph>
<glyph name="U" format="2">
  <advance width="528"/>
  <unicode hex="0055"/>
  <outline>
    <contour>
      <point x="276" y="-10" type="curve" smooth="yes"/>
      <point x="401" y="-10"/>
      <point x="466" y="66"/>
      <point x="502" y="213" type="curve" smooth="yes"/>
      <point x="616" y="693" type="line"/>
      <point x="553" y="693" type="line"/>
      <point x="438" y="212" type="line" smooth="yes"/>
      <point x="411" y="100"/>
      <point x="368" y="47"/>
      <point x="284" y="47" type="curve" smooth="yes"/>
      <point x="218" y="47"/>
      <point x="183" y="78"/>
      <point x="183" y="144" type="curve" smooth="yes"/>
      <point x="183" y="164"/>
      <point x="186" y="187"/>
      <point x="192" y="213" type="curve" smooth="yes"/>
      <point x="308" y="693" type="line"/>
      <point x="245" y="693" type="line"/>
      <point x="130" y="216" type="line" smooth="yes"/>
      <point x="123" y="186"/>
      <point x="120" y="158"/>
      <point x="120" y="134" type="curve" smooth="yes"/>
      <point x="120" y="37"/>
      <point x="176" y="-10"/>
    </contour>
  </outline>
</glyph>
<glyph name="V" format="2">
  <advance width="447"/>
  <unicode hex="0056"/>
  <outline>
    <contour>
      <point x="195" y="0" type="curve"/>
      <point x="263" y="0" type="line"/>
      <point x="394" y="235"/>
      <point x="507" y="464"/>
      <point x="594" y="693" type="curve"/>
      <point x="532" y="693" type="line"/>
      <point x="468" y="521"/>
      <point x="374" y="314"/>
      <point x="247" y="74" type="curve"/>
      <point x="232" y="319"/>
      <point x="234" y="521"/>
      <point x="247" y="693" type="curve"/>
      <point x="183" y="693" type="line"/>
      <point x="168" y="463"/>
      <point x="175" y="237"/>
    </contour>
  </outline>
</glyph>
<glyph name="W" format="2">
  <advance width="696"/>
  <unicode hex="0057"/>
  <outline>
    <contour>
      <point x="156" y="0" type="curve"/>
      <point x="227" y="0" type="line"/>
      <point x="314" y="155"/>
      <point x="389" y="324"/>
      <point x="475" y="521" type="curve"/>
      <point x="471" y="322"/>
      <point x="474" y="156"/>
      <point x="489" y="0" type="curve"/>
      <point x="557" y="0" type="line"/>
      <point x="666" y="210"/>
      <point x="760" y="469"/>
      <point x="829" y="693" type="curve"/>
      <point x="765" y="693" type="line"/>
      <point x="713" y="508"/>
      <point x="642" y="310"/>
      <point x="537" y="74" type="curve"/>
      <point x="523" y="280"/>
      <point x="523" y="453"/>
      <point x="528" y="608" type="curve"/>
      <point x="460" y="608" type="line"/>
      <point x="394" y="454"/>
      <point x="321" y="281"/>
      <point x="214" y="81" type="curve"/>
      <point x="216" y="315"/>
      <point x="233" y="511"/>
      <point x="263" y="693" type="curve"/>
      <point x="198" y="693" type="line"/>
      <point x="166" y="469"/>
      <point x="149" y="212"/>
    </contour>
  </outline>
</glyph>
<glyph name="X" format="2">
  <advance width="418"/>
  <unicode hex="0058"/>
  <outline>
    <contour>
      <point x="11" y="0" type="curve"/>
      <point x="79" y="0" type="line"/>
      <point x="88" y="18"/>
      <point x="260" y="277"/>
      <point x="283" y="310" type="curve"/>
      <point x="312" y="202"/>
      <point x="329" y="111"/>
      <point x="343" y="0" type="curve"/>
      <point x="408" y="0" type="line"/>
      <point x="392" y="118"/>
      <point x="373" y="220"/>
      <point x="334" y="361" type="curve"/>
      <point x="407" y="472"/>
      <point x="481" y="582"/>
      <point x="554" y="693" type="curve"/>
      <point x="488" y="693" type="line"/>
      <point x="428" y="600"/>
      <point x="369" y="508"/>
      <point x="309" y="415" type="curve"/>
      <point x="249" y="693" type="line"/>
      <point x="183" y="693" type="line"/>
      <point x="258" y="367" type="line"/>
      <point x="227" y="323"/>
      <point x="26" y="26"/>
    </contour>
  </outline>
</glyph>
<glyph name="Y" format="2">
  <advance width="443"/>
  <unicode hex="0059"/>
  <outline>
    <contour>
      <point x="191" y="0" type="line"/>
      <point x="253" y="0" type="line"/>
      <point x="319" y="271" type="line"/>
      <point x="408" y="392"/>
      <point x="508" y="549"/>
      <point x="587" y="693" type="curve"/>
      <point x="521" y="693" type="line"/>
      <point x="467" y="587"/>
      <point x="397" y="469"/>
      <point x="300" y="333" type="curve"/>
      <point x="273" y="470"/>
      <point x="258" y="586"/>
      <point x="253" y="693" type="curve"/>
      <point x="187" y="693" type="line"/>
      <point x="199" y="547"/>
      <point x="227" y="391"/>
      <point x="255" y="269" type="curve"/>
    </contour>
  </outline>
</glyph>
<glyph name="Z" format="2">
  <advance width="410"/>
  <unicode hex="005A"/>
  <outline>
    <contour>
      <point x="45" y="0" type="line"/>
      <point x="380" y="0" type="line"/>
      <point x="394" y="55" type="line"/>
      <point x="131" y="55" type="line"/>
      <point x="262" y="273"/>
      <point x="390" y="463"/>
      <point x="530" y="641" type="curve"/>
      <point x="543" y="693" type="line"/>
      <point x="225" y="693" type="line"/>
      <point x="212" y="638" type="line"/>
      <point x="458" y="638" type="line"/>
      <point x="293" y="424"/>
      <point x="168" y="234"/>
      <point x="55" y="44" type="curve"/>
    </contour>
  </outline>
</glyph>
<glyph name="bracketleft" format="2">
  <advance width="255"/>
  <unicode hex="005B"/>
  <outline>
    <contour>
      <point x="38" y="-185" type="line"/>
      <point x="191" y="-185" type="line"/>
      <point x="202" y="-137" type="line"/>
      <point x="106" y="-137" type="line"/>
      <point x="315" y="734" type="line"/>
      <point x="411" y="734" type="line"/>
      <point x="423" y="783" type="line"/>
      <point x="270" y="783" type="line"/>
    </contour>
  </outline>
</glyph>
<glyph name="backslash" format="2">
  <advance width="266"/>
  <unicode hex="005C"/>
  <outline>
    <contour>
      <point x="209" y="-186" type="line"/>
      <point x="264" y="-186" type="line"/>
      <point x="226" y="782" type="line"/>
      <point x="171" y="782" type="line"/>
    </contour>
  </outline>
</glyph>
<glyph name="bracketright" format="2">
  <advance width="255"/>
  <unicode hex="005D"/>
  <outline>
    <contour>
      <point x="-23" y="-185" type="line"/>
      <point x="129" y="-185" type="line"/>
      <point x="361" y="783" type="line"/>
      <point x="209" y="783" type="line"/>
      <point x="197" y="735" type="line"/>
      <point x="293" y="735" type="line"/>
      <point x="84" y="-136" type="line"/>
      <point x="-12" y="-136" type="line"/>
    </contour>
  </outline>
</glyph>
<glyph name="asciicircum" format="2">
  <advance width="427"/>
  <unicode hex="005E"/>
  <outline>
    <contour>
      <point x="400" y="321" type="line"/>
      <point x="457" y="333" type="line"/>
      <point x="402" y="686" type="line"/>
      <point x="349" y="686" type="line"/>
      <point x="132" y="342" type="line"/>
      <point x="182" y="321" type="line"/>
      <point x="358" y="607" type="line"/>
    </contour>
  </outline>
</glyph>
<glyph name="underscore" format="2">
  <advance width="335"/>
  <unicode hex="005F"/>
  <outline>
    <contour>
      <point x="-43" y="-183" type="line"/>
      <point x="290" y="-183" type="line"/>
      <point x="303" y="-132" type="line"/>
      <point x="-30" y="-132" type="line"/>
    </contour>
  </outline>
</glyph>
<glyph name="grave" format="2">
  <advance width="288"/>
  <unicode hex="0060"/>
  <outline>
    <contour>
      <point x="358" y="591" type="line"/>
      <point x="387" y="616" type="line"/>
      <point x="261" y="777" type="line"/>
      <point x="218" y="740" type="line"/>
    </contour>
  </outline>
</glyph>
<glyph name="a" format="2">
  <advance width="444"/>
  <unicode hex="0061"/>
  <outline>
    <contour>
      <point x="214" y="-10" type="curve" smooth="yes"/>
      <point x="256" y="-10"/>
      <point x="299" y="12"/>
      <point x="335" y="41" type="curve"/>
      <point x="338" y="24"/>
      <point x="342" y="11"/>
      <point x="347" y="-7" type="curve"/>
      <point x="405" y="3" type="line"/>
      <point x="391" y="49"/>
      <point x="382" y="88"/>
      <point x="404" y="179" type="curve" smooth="yes"/>
      <point x="482" y="507" type="line"/>
      <point x="449" y="523"/>
      <point x="401" y="533"/>
      <point x="366" y="533" type="curve" smooth="yes"/>
      <point x="217" y="533"/>
      <point x="99" y="359"/>
      <point x="99" y="146" type="curve" smooth="yes"/>
      <point x="99" y="47"/>
      <point x="134" y="-10"/>
    </contour>
    <contour>
      <point x="231" y="43" type="curve" smooth="yes"/>
      <point x="179" y="43"/>
      <point x="160" y="76"/>
      <point x="160" y="150" type="curve" smooth="yes"/>
      <point x="160" y="324"/>
      <point x="250" y="481"/>
      <point x="350" y="481" type="curve" smooth="yes"/>
      <point x="373" y="481"/>
      <point x="395" y="477"/>
      <point x="413" y="469" type="curve"/>
      <point x="348" y="199" type="line" smooth="yes"/>
      <point x="337" y="152"/>
      <point x="330" y="119"/>
      <point x="329" y="94" type="curve"/>
      <point x="298" y="63"/>
      <point x="262" y="43"/>
    </contour>
  </outline>
</glyph>
<glyph name="b" format="2">
  <advance width="445"/>
  <unicode hex="0062"/>
  <outline>
    <contour>
      <point x="198" y="-10" type="curve" smooth="yes"/>
      <point x="351" y="-10"/>
      <point x="472" y="164"/>
      <point x="473" y="375" type="curve" smooth="yes"/>
      <point x="474" y="476"/>
      <point x="436" y="533"/>
      <point x="355" y="533" type="curve" smooth="yes"/>
      <point x="325" y="533"/>
      <point x="291" y="522"/>
      <point x="256" y="495" type="curve"/>
      <point x="324" y="776" type="line"/>
      <point x="261" y="765" type="line"/>
      <point x="81" y="16" type="line"/>
      <point x="114" y="0"/>
      <point x="162" y="-10"/>
    </contour>
    <contour>
      <point x="214" y="42" type="curve" smooth="yes"/>
      <point x="191" y="42"/>
      <point x="168" y="46"/>
      <point x="151" y="54" type="curve"/>
      <point x="241" y="432" type="line"/>
      <point x="273" y="463"/>
      <point x="309" y="480"/>
      <point x="340" y="480" type="curve" smooth="yes"/>
      <point x="391" y="480"/>
      <point x="412" y="446"/>
      <point x="412" y="372" type="curve" smooth="yes"/>
      <point x="412" y="199"/>
      <point x="317" y="42"/>
    </contour>
  </outline>
</glyph>
<glyph name="c" format="2">
  <advance width="339"/>
  <unicode hex="0063"/>
  <outline>
    <contour>
      <point x="222" y="-11" type="curve" smooth="yes"/>
      <point x="261" y="-11"/>
      <point x="294" y="-1"/>
      <point x="325" y="18" type="curve"/>
      <point x="319" y="68" type="line"/>
      <point x="297" y="53"/>
      <point x="267" y="42"/>
      <point x="240" y="42" type="curve" smooth="yes"/>
      <point x="179" y="42"/>
      <point x="158" y="76"/>
      <point x="158" y="163" type="curve" smooth="yes"/>
      <point x="158" y="341"/>
      <point x="236" y="480"/>
      <point x="339" y="480" type="curve" smooth="yes"/>
      <point x="362" y="480"/>
      <point x="384" y="476"/>
      <point x="406" y="465" type="curve"/>
      <point x="426" y="518" type="line"/>
      <point x="400" y="529"/>
      <point x="372" y="534"/>
      <point x="343" y="534" type="curve" smooth="yes"/>
      <point x="202" y="534"/>
      <point x="96" y="369"/>
      <point x="96" y="155" type="curve" smooth="yes"/>
      <point x="96" y="43"/>
      <point x="136" y="-11"/>
    </contour>
  </outline>
</glyph>
<glyph name="d" format="2">
  <advance width="436"/>
  <unicode hex="0064"/>
  <outline>
    <contour>
      <point x="206" y="-10" type="curve" smooth="yes"/>
      <point x="250" y="-10"/>
      <point x="295" y="11"/>
      <point x="332" y="41" type="curve"/>
      <point x="335" y="24"/>
      <point x="339" y="11"/>
      <point x="344" y="-7" type="curve"/>
      <point x="402" y="3" type="line"/>
      <point x="389" y="49"/>
      <point x="379" y="88"/>
      <point x="401" y="179" type="curve" smooth="yes"/>
      <point x="544" y="776" type="line"/>
      <point x="482" y="765" type="line"/>
      <point x="423" y="521" type="line"/>
      <point x="404" y="528"/>
      <point x="381" y="533"/>
      <point x="360" y="533" type="curve" smooth="yes"/>
      <point x="215" y="533"/>
      <point x="93" y="359"/>
      <point x="93" y="146" type="curve" smooth="yes"/>
      <point x="93" y="47"/>
      <point x="131" y="-10"/>
    </contour>
    <contour>
      <point x="223" y="43" type="curve" smooth="yes"/>
      <point x="176" y="43"/>
      <point x="154" y="76"/>
      <point x="154" y="150" type="curve" smooth="yes"/>
      <point x="154" y="324"/>
      <point x="247" y="480"/>
      <point x="350" y="480" type="curve" smooth="yes"/>
      <point x="371" y="480"/>
      <point x="392" y="476"/>
      <point x="411" y="471" type="curve"/>
      <point x="345" y="199" type="line" smooth="yes"/>
      <point x="333" y="152"/>
      <point x="328" y="119"/>
      <point x="326" y="94" type="curve"/>
      <point x="294" y="62"/>
      <point x="256" y="43"/>
    </contour>
  </outline>
</glyph>
<glyph name="e" format="2">
  <advance width="385"/>
  <unicode hex="0065"/>
  <outline>
    <contour>
      <point x="228" y="-11" type="curve" smooth="yes"/>
      <point x="277" y="-11"/>
      <point x="323" y="6"/>
      <point x="356" y="30" type="curve"/>
      <point x="349" y="79" type="line"/>
      <point x="320" y="56"/>
      <point x="280" y="41"/>
      <point x="246" y="41" type="curve" smooth="yes"/>
      <point x="182" y="41"/>
      <point x="157" y="67"/>
      <point x="157" y="159" type="curve" smooth="yes"/>
      <point x="157" y="178"/>
      <point x="158" y="198"/>
      <point x="160" y="216" type="curve"/>
      <point x="330" y="224"/>
      <point x="439" y="294"/>
      <point x="441" y="422" type="curve" smooth="yes"/>
      <point x="442" y="490"/>
      <point x="401" y="534"/>
      <point x="336" y="534" type="curve" smooth="yes"/>
      <point x="198" y="534"/>
      <point x="96" y="355"/>
      <point x="96" y="154" type="curve" smooth="yes"/>
      <point x="96" y="45"/>
      <point x="134" y="-11"/>
    </contour>
    <contour>
      <point x="166" y="263" type="curve"/>
      <point x="189" y="390"/>
      <point x="254" y="482"/>
      <point x="326" y="482" type="curve" smooth="yes"/>
      <point x="362" y="482"/>
      <point x="384" y="457"/>
      <point x="384" y="418" type="curve" smooth="yes"/>
      <point x="384" y="333"/>
      <point x="307" y="270"/>
    </contour>
  </outline>
</glyph>
<glyph name="f" format="2">
  <advance width="286"/>
  <unicode hex="0066"/>
  <outline>
    <contour>
      <point x="39" y="-189" type="line"/>
      <point x="91" y="-125"/>
      <point x="120" y="-55"/>
      <point x="146" y="54" type="curve" smooth="yes"/>
      <point x="245" y="469" type="line"/>
      <point x="376" y="469" type="line"/>
      <point x="388" y="521" type="line"/>
      <point x="258" y="521" type="line"/>
      <point x="275" y="591" type="line" smooth="yes"/>
      <point x="298" y="692"/>
      <point x="338" y="724"/>
      <point x="390" y="724" type="curve" smooth="yes"/>
      <point x="416" y="724"/>
      <point x="433" y="718"/>
      <point x="452" y="711" type="curve"/>
      <point x="473" y="762" type="line"/>
      <point x="453" y="770"/>
      <point x="431" y="776"/>
      <point x="399" y="776" type="curve" smooth="yes"/>
      <point x="321" y="776"/>
      <point x="250" y="738"/>
      <point x="216" y="593" type="curve" smooth="yes"/>
      <point x="78" y="24" type="line" smooth="yes"/>
      <point x="59" y="-56"/>
      <point x="32" y="-119"/>
      <point x="-15" y="-179" type="curve"/>
    </contour>
  </outline>
</glyph>
<glyph name="g" format="2">
  <advance width="429"/>
  <unicode hex="0067"/>
  <outline>
    <contour>
      <point x="137" y="-188" type="curve" smooth="yes"/>
      <point x="255" y="-188"/>
      <point x="328" y="-124"/>
      <point x="366" y="35" type="curve" smooth="yes"/>
      <point x="478" y="505" type="line"/>
      <point x="445" y="521"/>
      <point x="399" y="531"/>
      <point x="365" y="531" type="curve" smooth="yes"/>
      <point x="213" y="531"/>
      <point x="92" y="367"/>
      <point x="91" y="167" type="curve" smooth="yes"/>
      <point x="90" y="71"/>
      <point x="127" y="17"/>
      <point x="208" y="17" type="curve" smooth="yes"/>
      <point x="242" y="17"/>
      <point x="277" y="31"/>
      <point x="309" y="52" type="curve"/>
      <point x="303" y="29" type="line" smooth="yes"/>
      <point x="276" y="-88"/>
      <point x="228" y="-137"/>
      <point x="143" y="-137" type="curve" smooth="yes"/>
      <point x="105" y="-137"/>
      <point x="69" y="-125"/>
      <point x="41" y="-106" type="curve"/>
      <point x="17" y="-157" type="line"/>
      <point x="46" y="-176"/>
      <point x="95" y="-188"/>
    </contour>
    <contour>
      <point x="223" y="70" type="curve" smooth="yes"/>
      <point x="173" y="70"/>
      <point x="153" y="101"/>
      <point x="153" y="171" type="curve" smooth="yes"/>
      <point x="153" y="333"/>
      <point x="246" y="479"/>
      <point x="349" y="479" type="curve" smooth="yes"/>
      <point x="370" y="479"/>
      <point x="391" y="475"/>
      <point x="408" y="467" type="curve"/>
      <point x="324" y="114" type="line"/>
      <point x="291" y="85"/>
      <point x="255" y="70"/>
    </contour>
  </outline>
</glyph>
<glyph name="h" format="2">
  <advance width="461"/>
  <unicode hex="0068"/>
  <outline>
    <contour>
      <point x="79" y="0" type="line"/>
      <point x="139" y="0" type="line"/>
      <point x="251" y="466" type="line"/>
      <point x="276" y="474"/>
      <point x="306" y="481"/>
      <point x="330" y="481" type="curve" smooth="yes"/>
      <point x="386" y="481"/>
      <point x="413" y="455"/>
      <point x="413" y="395" type="curve" smooth="yes"/>
      <point x="413" y="372"/>
      <point x="409" y="344"/>
      <point x="400" y="310" type="curve" smooth="yes"/>
      <point x="326" y="0" type="line"/>
      <point x="386" y="0" type="line"/>
      <point x="462" y="317" type="line" smooth="yes"/>
      <point x="470" y="350"/>
      <point x="474" y="378"/>
      <point x="474" y="403" type="curve" smooth="yes"/>
      <point x="474" y="489"/>
      <point x="429" y="532"/>
      <point x="346" y="532" type="curve" smooth="yes"/>
      <point x="321" y="532"/>
      <point x="292" y="526"/>
      <point x="263" y="516" type="curve"/>
      <point x="325" y="776" type="line"/>
      <point x="263" y="765" type="line"/>
    </contour>
  </outline>
</glyph>
<glyph name="i" format="2">
  <advance width="207"/>
  <unicode hex="0069"/>
  <outline>
    <contour>
      <point x="73" y="0" type="line"/>
      <point x="134" y="0" type="line"/>
      <point x="259" y="521" type="line"/>
      <point x="199" y="521" type="line"/>
    </contour>
    <contour>
      <point x="260" y="625" type="curve" smooth="yes"/>
      <point x="285" y="625"/>
      <point x="308" y="648"/>
      <point x="308" y="678" type="curve" smooth="yes"/>
      <point x="308" y="700"/>
      <point x="292" y="716"/>
      <point x="271" y="716" type="curve" smooth="yes"/>
      <point x="242" y="716"/>
      <point x="221" y="691"/>
      <point x="221" y="663" type="curve" smooth="yes"/>
      <point x="221" y="641"/>
      <point x="238" y="625"/>
    </contour>
  </outline>
</glyph>
<glyph name="j" format="2">
  <advance width="223"/>
  <unicode hex="006A"/>
  <outline>
    <contour>
      <point x="-12" y="-189" type="curve" smooth="yes"/>
      <point x="73" y="-189"/>
      <point x="114" y="-130"/>
      <point x="143" y="-8" type="curve" smooth="yes"/>
      <point x="269" y="521" type="line"/>
      <point x="209" y="521" type="line"/>
      <point x="81" y="-15" type="line" smooth="yes"/>
      <point x="64" y="-86"/>
      <point x="39" y="-138"/>
      <point x="-8" y="-138" type="curve" smooth="yes"/>
      <point x="-25" y="-138"/>
      <point x="-42" y="-133"/>
      <point x="-56" y="-125" type="curve"/>
      <point x="-73" y="-174" type="line"/>
      <point x="-55" y="-183"/>
      <point x="-34" y="-189"/>
    </contour>
    <contour>
      <point x="270" y="625" type="curve" smooth="yes"/>
      <point x="295" y="625"/>
      <point x="318" y="648"/>
      <point x="318" y="678" type="curve" smooth="yes"/>
      <point x="318" y="700"/>
      <point x="302" y="716"/>
      <point x="281" y="716" type="curve" smooth="yes"/>
      <point x="253" y="716"/>
      <point x="232" y="691"/>
      <point x="232" y="663" type="curve" smooth="yes"/>
      <point x="232" y="641"/>
      <point x="248" y="625"/>
    </contour>
  </outline>
</glyph>
<glyph name="k" format="1">
  <advance width="393"/>
  <unicode hex="006B"/>
  <outline>
    <contour>
      <point x="73" y="0" type="line"/>
      <point x="133" y="0" type="line"/>
      <point x="198" y="269" type="line"/>
      <point x="255" y="214"/>
      <point x="301" y="114"/>
      <point x="329" y="0" type="curve"/>
      <point x="391" y="0" type="line"/>
      <point x="373" y="99"/>
      <point x="319" y="215"/>
      <point x="258" y="288" type="curve"/>
      <point x="330" y="354"/>
      <point x="437" y="469"/>
      <point x="470" y="521" type="curve"/>
      <point x="405" y="521" type="line"/>
      <point x="373" y="473"/>
      <point x="274" y="366"/>
      <point x="206" y="303" type="curve"/>
      <point x="319" y="776" type="line"/>
      <point x="257" y="765" type="line"/>
    </contour>
  </outline>
</glyph>
<glyph name="l" format="2">
  <advance width="231"/>
  <unicode hex="006C"/>
  <outline>
    <contour>
      <point x="208" y="-11" type="curve"/>
      <point x="220" y="40" type="line"/>
      <point x="140" y="54"/>
      <point x="158" y="138"/>
      <point x="173" y="199" type="curve" smooth="yes"/>
      <point x="311" y="776" type="line"/>
      <point x="249" y="765" type="line"/>
      <point x="110" y="188" type="line" smooth="yes"/>
      <point x="89" y="102"/>
      <point x="87" y="7"/>
    </contour>
  </outline>
</glyph>
<glyph name="m" format="2">
  <advance width="661"/>
  <unicode hex="006D"/>
  <outline>
    <contour>
      <point x="73" y="0" type="line"/>
      <point x="134" y="0" type="line"/>
      <point x="246" y="467" type="line"/>
      <point x="267" y="475"/>
      <point x="293" y="480"/>
      <point x="313" y="480" type="curve" smooth="yes"/>
      <point x="369" y="480"/>
      <point x="393" y="454"/>
      <point x="393" y="403" type="curve" smooth="yes"/>
      <point x="393" y="383"/>
      <point x="389" y="359"/>
      <point x="382" y="332" type="curve" smooth="yes"/>
      <point x="303" y="0" type="line"/>
      <point x="363" y="0" type="line"/>
      <point x="444" y="339" type="line" smooth="yes"/>
      <point x="451" y="364"/>
      <point x="454" y="386"/>
      <point x="454" y="406" type="curve" smooth="yes"/>
      <point x="454" y="417"/>
      <point x="453" y="427"/>
      <point x="451" y="435" type="curve"/>
      <point x="480" y="463"/>
      <point x="513" y="480"/>
      <point x="550" y="480" type="curve" smooth="yes"/>
      <point x="595" y="480"/>
      <point x="619" y="454"/>
      <point x="619" y="398" type="curve" smooth="yes"/>
      <point x="619" y="375"/>
      <point x="616" y="348"/>
      <point x="608" y="316" type="curve" smooth="yes"/>
      <point x="532" y="0" type="line"/>
      <point x="592" y="0" type="line"/>
      <point x="670" y="323" type="line" smooth="yes"/>
      <point x="678" y="356"/>
      <point x="681" y="384"/>
      <point x="681" y="408" type="curve" smooth="yes"/>
      <point x="681" y="492"/>
      <point x="638" y="531"/>
      <point x="562" y="531" type="curve" smooth="yes"/>
      <point x="520" y="531"/>
      <point x="471" y="513"/>
      <point x="432" y="482" type="curve"/>
      <point x="413" y="513"/>
      <point x="377" y="531"/>
      <point x="323" y="531" type="curve" smooth="yes"/>
      <point x="284" y="531"/>
      <point x="236" y="521"/>
      <point x="195" y="506" type="curve"/>
    </contour>
  </outline>
</glyph>
<glyph name="n" format="2">
  <advance width="461"/>
  <unicode hex="006E"/>
  <outline>
    <contour>
      <point x="79" y="0" type="line"/>
      <point x="139" y="0" type="line"/>
      <point x="251" y="467" type="line"/>
      <point x="275" y="475"/>
      <point x="303" y="480"/>
      <point x="327" y="480" type="curve" smooth="yes"/>
      <point x="409" y="480"/>
      <point x="429" y="429"/>
      <point x="400" y="310" type="curve" smooth="yes"/>
      <point x="326" y="0" type="line"/>
      <point x="386" y="0" type="line"/>
      <point x="462" y="317" type="line" smooth="yes"/>
      <point x="497" y="463"/>
      <point x="456" y="531"/>
      <point x="336" y="531" type="curve" smooth="yes"/>
      <point x="295" y="531"/>
      <point x="244" y="521"/>
      <point x="201" y="506" type="curve"/>
    </contour>
  </outline>
</glyph>
<glyph name="o" format="2">
  <advance width="431"/>
  <unicode hex="006F"/>
  <outline>
    <contour>
      <point x="224" y="-10" type="curve" smooth="yes"/>
      <point x="356" y="-10"/>
      <point x="456" y="175"/>
      <point x="456" y="379" type="curve" smooth="yes"/>
      <point x="456" y="477"/>
      <point x="413" y="533"/>
      <point x="334" y="533" type="curve" smooth="yes"/>
      <point x="201" y="533"/>
      <point x="101" y="350"/>
      <point x="101" y="147" type="curve" smooth="yes"/>
      <point x="101" y="46"/>
      <point x="143" y="-10"/>
    </contour>
    <contour>
      <point x="230" y="42" type="curve" smooth="yes"/>
      <point x="182" y="42"/>
      <point x="163" y="75"/>
      <point x="163" y="147" type="curve" smooth="yes"/>
      <point x="163" y="305"/>
      <point x="235" y="480"/>
      <point x="327" y="480" type="curve" smooth="yes"/>
      <point x="374" y="480"/>
      <point x="394" y="448"/>
      <point x="394" y="379" type="curve" smooth="yes"/>
      <point x="394" y="217"/>
      <point x="322" y="42"/>
    </contour>
  </outline>
</glyph>
<glyph name="p" format="2">
  <advance width="442"/>
  <unicode hex="0070"/>
  <outline>
    <contour>
      <point x="33" y="-185" type="line"/>
      <point x="93" y="-185" type="line"/>
      <point x="138" y="1" type="line"/>
      <point x="160" y="-7"/>
      <point x="185" y="-11"/>
      <point x="205" y="-11" type="curve" smooth="yes"/>
      <point x="346" y="-11"/>
      <point x="469" y="162"/>
      <point x="469" y="374" type="curve" smooth="yes"/>
      <point x="469" y="478"/>
      <point x="426" y="532"/>
      <point x="330" y="532" type="curve"/>
      <point x="298" y="532"/>
      <point x="244" y="524"/>
      <point x="199" y="506" type="curve"/>
    </contour>
    <contour>
      <point x="214" y="42" type="curve" smooth="yes"/>
      <point x="192" y="42"/>
      <point x="169" y="45"/>
      <point x="151" y="53" type="curve"/>
      <point x="250" y="465" type="line"/>
      <point x="271" y="475"/>
      <point x="300" y="480"/>
      <point x="325" y="480" type="curve" smooth="yes"/>
      <point x="381" y="480"/>
      <point x="407" y="446"/>
      <point x="407" y="370" type="curve" smooth="yes"/>
      <point x="407" y="196"/>
      <point x="314" y="42"/>
    </contour>
  </outline>
</glyph>
<glyph name="q" format="2">
  <advance width="441"/>
  <unicode hex="0071"/>
  <outline>
    <contour>
      <point x="258" y="-185" type="line"/>
      <point x="319" y="-185" type="line"/>
      <point x="485" y="507" type="line"/>
      <point x="452" y="522"/>
      <point x="403" y="532"/>
      <point x="368" y="532" type="curve" smooth="yes"/>
      <point x="218" y="532"/>
      <point x="99" y="359"/>
      <point x="98" y="147" type="curve" smooth="yes"/>
      <point x="97" y="46"/>
      <point x="134" y="-11"/>
      <point x="214" y="-11" type="curve" smooth="yes"/>
      <point x="245" y="-11"/>
      <point x="279" y="3"/>
      <point x="308" y="22" type="curve"/>
    </contour>
    <contour>
      <point x="228" y="43" type="curve" smooth="yes"/>
      <point x="178" y="43"/>
      <point x="159" y="76"/>
      <point x="159" y="151" type="curve" smooth="yes"/>
      <point x="159" y="324"/>
      <point x="252" y="480"/>
      <point x="352" y="480" type="curve" smooth="yes"/>
      <point x="375" y="480"/>
      <point x="397" y="476"/>
      <point x="415" y="468" type="curve"/>
      <point x="323" y="82" type="line"/>
      <point x="293" y="57"/>
      <point x="258" y="43"/>
    </contour>
  </outline>
</glyph>
<glyph name="r" format="2">
  <advance width="303"/>
  <unicode hex="0072"/>
  <outline>
    <contour>
      <point x="79" y="0" type="line"/>
      <point x="139" y="0" type="line"/>
      <point x="250" y="463" type="line"/>
      <point x="276" y="473"/>
      <point x="302" y="479"/>
      <point x="329" y="479" type="curve" smooth="yes"/>
      <point x="350" y="479"/>
      <point x="369" y="476"/>
      <point x="386" y="470" type="curve"/>
      <point x="403" y="522" type="line"/>
      <point x="385" y="528"/>
      <point x="361" y="531"/>
      <point x="334" y="531" type="curve" smooth="yes"/>
      <point x="292" y="531"/>
      <point x="245" y="520"/>
      <point x="199" y="500" type="curve"/>
    </contour>
  </outline>
</glyph>
<glyph name="s" format="2">
  <advance width="316"/>
  <unicode hex="0073"/>
  <outline>
    <contour>
      <point x="144" y="-11" type="curve" smooth="yes"/>
      <point x="248" y="-11"/>
      <point x="322" y="59"/>
      <point x="322" y="158" type="curve" smooth="yes"/>
      <point x="322" y="214"/>
      <point x="305" y="240"/>
      <point x="251" y="283" type="curve" smooth="yes"/>
      <point x="203" y="321"/>
      <point x="186" y="342"/>
      <point x="186" y="380" type="curve" smooth="yes"/>
      <point x="186" y="441"/>
      <point x="227" y="482"/>
      <point x="288" y="482" type="curve" smooth="yes"/>
      <point x="313" y="482"/>
      <point x="340" y="477"/>
      <point x="362" y="466" type="curve"/>
      <point x="382" y="516" type="line"/>
      <point x="362" y="526"/>
      <point x="332" y="534"/>
      <point x="295" y="534" type="curve" smooth="yes"/>
      <point x="196" y="534"/>
      <point x="126" y="464"/>
      <point x="126" y="370" type="curve" smooth="yes"/>
      <point x="126" y="314"/>
      <point x="147" y="288"/>
      <point x="199" y="248" type="curve" smooth="yes"/>
      <point x="247" y="211"/>
      <point x="262" y="190"/>
      <point x="262" y="151" type="curve" smooth="yes"/>
      <point x="262" y="86"/>
      <point x="220" y="40"/>
      <point x="151" y="40" type="curve" smooth="yes"/>
      <point x="122" y="40"/>
      <point x="88" y="48"/>
      <point x="58" y="62" type="curve"/>
      <point x="38" y="12" type="line"/>
      <point x="68" y="-3"/>
      <point x="109" y="-11"/>
    </contour>
  </outline>
</glyph>
<glyph name="t" format="2">
  <advance width="298"/>
  <unicode hex="0074"/>
  <outline>
    <contour>
      <point x="207" y="-12" type="curve" smooth="yes"/>
      <point x="239" y="-12"/>
      <point x="271" y="-5"/>
      <point x="297" y="7" type="curve"/>
      <point x="291" y="57" type="line"/>
      <point x="268" y="47"/>
      <point x="243" y="41"/>
      <point x="221" y="41" type="curve" smooth="yes"/>
      <point x="164" y="41"/>
      <point x="147" y="81"/>
      <point x="167" y="164" type="curve" smooth="yes"/>
      <point x="241" y="470" type="line"/>
      <point x="379" y="470" type="line"/>
      <point x="391" y="521" type="line"/>
      <point x="253" y="521" type="line"/>
      <point x="291" y="681" type="line"/>
      <point x="229" y="670" type="line"/>
      <point x="108" y="166" type="line" smooth="yes"/>
      <point x="80" y="52"/>
      <point x="111" y="-12"/>
    </contour>
  </outline>
</glyph>
<glyph name="u" format="2">
  <advance width="447"/>
  <unicode hex="0075"/>
  <outline>
    <contour>
      <point x="221" y="-10" type="curve" smooth="yes"/>
      <point x="264" y="-10"/>
      <point x="307" y="12"/>
      <point x="343" y="41" type="curve"/>
      <point x="346" y="24"/>
      <point x="350" y="10"/>
      <point x="355" y="-7" type="curve"/>
      <point x="413" y="3" type="line"/>
      <point x="399" y="49"/>
      <point x="390" y="90"/>
      <point x="412" y="179" type="curve" smooth="yes"/>
      <point x="493" y="521" type="line"/>
      <point x="434" y="521" type="line"/>
      <point x="356" y="199" type="line" smooth="yes"/>
      <point x="344" y="153"/>
      <point x="339" y="120"/>
      <point x="337" y="94" type="curve"/>
      <point x="306" y="63"/>
      <point x="270" y="42"/>
      <point x="238" y="42" type="curve" smooth="yes"/>
      <point x="164" y="42"/>
      <point x="147" y="95"/>
      <point x="175" y="211" type="curve" smooth="yes"/>
      <point x="250" y="521" type="line"/>
      <point x="190" y="521" type="line"/>
      <point x="113" y="204" type="line" smooth="yes"/>
      <point x="79" y="63"/>
      <point x="121" y="-10"/>
    </contour>
  </outline>
</glyph>
<glyph name="v" format="2">
  <advance width="362"/>
  <unicode hex="0076"/>
  <outline>
    <contour>
      <point x="152" y="0" type="curve"/>
      <point x="216" y="0" type="line"/>
      <point x="307" y="133"/>
      <point x="409" y="334"/>
      <point x="464" y="521" type="curve"/>
      <point x="403" y="521" type="line"/>
      <point x="363" y="374"/>
      <point x="293" y="216"/>
      <point x="199" y="59" type="curve"/>
      <point x="183" y="216"/>
      <point x="181" y="378"/>
      <point x="194" y="521" type="curve"/>
      <point x="135" y="521" type="line"/>
      <point x="119" y="338"/>
      <point x="130" y="150"/>
    </contour>
  </outline>
</glyph>
<glyph name="w" format="2">
  <advance width="577"/>
  <unicode hex="0077"/>
  <outline>
    <contour>
      <point x="151" y="0" type="curve"/>
      <point x="213" y="0" type="line"/>
      <point x="266" y="83"/>
      <point x="324" y="219"/>
      <point x="383" y="389" type="curve"/>
      <point x="380" y="221"/>
      <point x="385" y="99"/>
      <point x="400" y="0" type="curve"/>
      <point x="462" y="0" type="line"/>
      <point x="537" y="126"/>
      <point x="637" y="359"/>
      <point x="678" y="521" type="curve"/>
      <point x="621" y="521" type="line"/>
      <point x="588" y="399"/>
      <point x="531" y="243"/>
      <point x="439" y="61" type="curve"/>
      <point x="426" y="250"/>
      <point x="426" y="390"/>
      <point x="438" y="521" type="curve"/>
      <point x="377" y="521" type="line"/>
      <point x="345" y="399"/>
      <point x="289" y="247"/>
      <point x="197" y="63" type="curve"/>
      <point x="183" y="250"/>
      <point x="183" y="390"/>
      <point x="196" y="521" type="curve"/>
      <point x="136" y="521" type="line"/>
      <point x="120" y="343"/>
      <point x="129" y="140"/>
    </contour>
  </outline>
</glyph>
<glyph name="x" format="2">
  <advance width="361"/>
  <unicode hex="0078"/>
  <outline>
    <contour>
      <point x="13" y="0" type="line"/>
      <point x="78" y="0" type="line"/>
      <point x="234" y="227" type="line"/>
      <point x="262" y="148"/>
      <point x="283" y="71"/>
      <point x="295" y="0" type="curve"/>
      <point x="355" y="0" type="line"/>
      <point x="343" y="75"/>
      <point x="315" y="165"/>
      <point x="277" y="269" type="curve"/>
      <point x="351" y="364"/>
      <point x="407" y="451"/>
      <point x="448" y="521" type="curve"/>
      <point x="386" y="521" type="line"/>
      <point x="355" y="464"/>
      <point x="305" y="388"/>
      <point x="254" y="317" type="curve"/>
      <point x="196" y="521" type="line"/>
      <point x="133" y="521" type="line"/>
      <point x="210" y="277" type="line"/>
    </contour>
  </outline>
</glyph>
<glyph name="y" format="2">
  <advance width="366"/>
  <unicode hex="0079"/>
  <outline>
    <contour>
      <point x="25" y="-188" type="curve" smooth="yes"/>
      <point x="103" y="-188"/>
      <point x="158" y="-134"/>
      <point x="243" y="6" type="curve" smooth="yes"/>
      <point x="332" y="151"/>
      <point x="417" y="342"/>
      <point x="465" y="521" type="curve"/>
      <point x="404" y="521" type="line"/>
      <point x="374" y="396"/>
      <point x="309" y="226"/>
      <point x="222" y="62" type="curve"/>
      <point x="196" y="221"/>
      <point x="186" y="390"/>
      <point x="197" y="521" type="curve"/>
      <point x="137" y="521" type="line"/>
      <point x="129" y="343"/>
      <point x="139" y="183"/>
      <point x="175" y="-5" type="curve"/>
      <point x="118" y="-97"/>
      <point x="69" y="-135"/>
      <point x="27" y="-135" type="curve" smooth="yes"/>
      <point x="14" y="-135"/>
      <point x="-1" y="-132"/>
      <point x="-12" y="-127" type="curve"/>
      <point x="-30" y="-176" type="line"/>
      <point x="-15" y="-184"/>
      <point x="4" y="-188"/>
    </contour>
  </outline>
</glyph>
<glyph name="z" format="2">
  <advance width="318"/>
  <unicode hex="007A"/>
  <outline>
    <contour>
      <point x="32" y="0" type="line"/>
      <point x="307" y="0" type="line"/>
      <point x="319" y="52" type="line"/>
      <point x="109" y="52" type="line"/>
      <point x="194" y="196"/>
      <point x="308" y="356"/>
      <point x="405" y="473" type="curve"/>
      <point x="416" y="521" type="line"/>
      <point x="160" y="521" type="line"/>
      <point x="148" y="469" type="line"/>
      <point x="336" y="469" type="line"/>
      <point x="222" y="329"/>
      <point x="116" y="174"/>
      <point x="42" y="45" type="curve"/>
    </contour>
  </outline>
</glyph>
<glyph name="braceleft" format="2">
  <advance width="260"/>
  <unicode hex="007B"/>
  <outline>
    <contour>
      <point x="190" y="-185" type="curve"/>
      <point x="202" y="-135" type="line"/>
      <point x="155" y="-135"/>
      <point x="133" y="-115"/>
      <point x="151" y="-43" type="curve" smooth="yes"/>
      <point x="199" y="159" type="line" smooth="yes"/>
      <point x="214" y="225"/>
      <point x="208" y="268"/>
      <point x="166" y="297" type="curve"/>
      <point x="222" y="323"/>
      <point x="250" y="370"/>
      <point x="266" y="439" type="curve" smooth="yes"/>
      <point x="316" y="647" type="line" smooth="yes"/>
      <point x="331" y="710"/>
      <point x="358" y="732"/>
      <point x="410" y="732" type="curve"/>
      <point x="422" y="783" type="line"/>
      <point x="329" y="783"/>
      <point x="283" y="744"/>
      <point x="259" y="647" type="curve" smooth="yes"/>
      <point x="211" y="446" type="line" smooth="yes"/>
      <point x="192" y="368"/>
      <point x="163" y="328"/>
      <point x="117" y="324" type="curve"/>
      <point x="105" y="274" type="line"/>
      <point x="145" y="269"/>
      <point x="160" y="229"/>
      <point x="141" y="151" type="curve" smooth="yes"/>
      <point x="94" y="-43" type="line" smooth="yes"/>
      <point x="69" y="-147"/>
      <point x="111" y="-185"/>
    </contour>
  </outline>
</glyph>
<glyph name="bar" format="2">
  <advance width="242"/>
  <unicode hex="007C"/>
  <outline>
    <contour>
      <point x="48" y="-185" type="line"/>
      <point x="106" y="-185" type="line"/>
      <point x="338" y="783" type="line"/>
      <point x="280" y="783" type="line"/>
    </contour>
  </outline>
</glyph>
<glyph name="braceright" format="2">
  <advance width="260"/>
  <unicode hex="007D"/>
  <outline>
    <contour>
      <point x="-18" y="-185" type="line"/>
      <point x="75" y="-185"/>
      <point x="122" y="-146"/>
      <point x="145" y="-49" type="curve" smooth="yes"/>
      <point x="193" y="152" type="line" smooth="yes"/>
      <point x="212" y="230"/>
      <point x="242" y="270"/>
      <point x="287" y="275" type="curve"/>
      <point x="299" y="324" type="line"/>
      <point x="259" y="329"/>
      <point x="244" y="369"/>
      <point x="263" y="447" type="curve" smooth="yes"/>
      <point x="310" y="641" type="line" smooth="yes"/>
      <point x="335" y="745"/>
      <point x="293" y="783"/>
      <point x="214" y="783" type="curve"/>
      <point x="202" y="733" type="line"/>
      <point x="250" y="733"/>
      <point x="271" y="714"/>
      <point x="254" y="641" type="curve" smooth="yes"/>
      <point x="206" y="440" type="line" smooth="yes"/>
      <point x="190" y="373"/>
      <point x="197" y="331"/>
      <point x="238" y="301" type="curve"/>
      <point x="183" y="275"/>
      <point x="155" y="229"/>
      <point x="138" y="159" type="curve" smooth="yes"/>
      <point x="89" y="-49" type="line" smooth="yes"/>
      <point x="74" y="-111"/>
      <point x="46" y="-134"/>
      <point x="-6" y="-134" type="curve"/>
    </contour>
  </outline>
</glyph>
<glyph name="asciitilde" format="2">
  <advance width="437"/>
  <unicode hex="007E"/>
  <outline>
    <contour>
      <point x="352" y="230" type="curve" smooth="yes"/>
      <point x="402" y="230"/>
      <point x="450" y="266"/>
      <point x="481" y="353" type="curve"/>
      <point x="437" y="366" type="line"/>
      <point x="411" y="295"/>
      <point x="379" y="287"/>
      <point x="362" y="287" type="curve" smooth="yes"/>
      <point x="317" y="287"/>
      <point x="292" y="369"/>
      <point x="228" y="369" type="curve" smooth="yes"/>
      <point x="178" y="369"/>
      <point x="130" y="333"/>
      <point x="100" y="245" type="curve"/>
      <point x="143" y="232" type="line"/>
      <point x="168" y="303"/>
      <point x="201" y="311"/>
      <point x="218" y="311" type="curve" smooth="yes"/>
      <point x="262" y="311"/>
      <point x="289" y="230"/>
    </contour>
  </outline>
</glyph>
<glyph name="exclamdown" format="2">
  <advance width="232"/>
  <unicode hex="00A1"/>
  <outline>
    <contour>
      <point x="44" y="-185" type="line"/>
      <point x="106" y="-185" type="line"/>
      <point x="153" y="9" type="line" smooth="yes"/>
      <point x="178" y="114"/>
      <point x="194" y="212"/>
      <point x="202" y="295" type="curve"/>
      <point x="177" y="295" type="line"/>
      <point x="150" y="233"/>
      <point x="100" y="44"/>
      <point x="90" y="9" type="curve"/>
    </contour>
    <contour>
      <point x="224" y="415" type="curve" smooth="yes"/>
      <point x="254" y="415"/>
      <point x="276" y="448"/>
      <point x="277" y="475" type="curve" smooth="yes"/>
      <point x="277" y="496"/>
      <point x="264" y="520"/>
      <point x="234" y="520" type="curve" smooth="yes"/>
      <point x="204" y="520"/>
      <point x="182" y="488"/>
      <point x="182" y="460" type="curve" smooth="yes"/>
      <point x="181" y="439"/>
      <point x="194" y="415"/>
    </contour>
  </outline>
</glyph>
<glyph name="cent" format="2">
  <advance width="428"/>
  <unicode hex="00A2"/>
  <outline>
    <contour>
      <point x="185" y="-100" type="line"/>
      <point x="242" y="-100" type="line"/>
      <point x="273" y="31" type="line"/>
      <point x="306" y="32"/>
      <point x="337" y="41"/>
      <point x="366" y="60" type="curve"/>
      <point x="360" y="110" type="line"/>
      <point x="338" y="95"/>
      <point x="309" y="84"/>
      <point x="282" y="84" type="curve" smooth="yes"/>
      <point x="216" y="84"/>
      <point x="188" y="121"/>
      <point x="188" y="209" type="curve" smooth="yes"/>
      <point x="188" y="384"/>
      <point x="275" y="502"/>
      <point x="380" y="502" type="curve" smooth="yes"/>
      <point x="403" y="502"/>
      <point x="426" y="498"/>
      <point x="447" y="487" type="curve"/>
      <point x="467" y="540" type="line"/>
      <point x="446" y="549"/>
      <point x="422" y="554"/>
      <point x="399" y="555" type="curve"/>
      <point x="430" y="685" type="line"/>
      <point x="373" y="685" type="line"/>
      <point x="341" y="550" type="line"/>
      <point x="219" y="526"/>
      <point x="127" y="391"/>
      <point x="127" y="201" type="curve" smooth="yes"/>
      <point x="127" y="109"/>
      <point x="157" y="55"/>
      <point x="218" y="38" type="curve"/>
    </contour>
  </outline>
</glyph>
<glyph name="sterling" format="1">
  <advance width="443"/>
  <unicode hex="00A3"/>
  <outline>
    <contour>
      <point x="99" y="0" type="curve"/>
      <point x="395" y="0" type="line"/>
      <point x="410" y="53" type="line"/>
      <point x="183" y="53" type="line"/>
      <point x="213" y="140"/>
      <point x="240" y="240"/>
      <point x="255" y="312" type="curve"/>
      <point x="403" y="312" type="line"/>
      <point x="418" y="362" type="line"/>
      <point x="270" y="362" type="line"/>
      <point x="291" y="457" type="line" smooth="yes"/>
      <point x="325" y="607"/>
      <point x="371" y="649"/>
      <point x="432" y="649" type="curve" smooth="yes"/>
      <point x="463" y="649"/>
      <point x="488" y="641"/>
      <point x="510" y="623" type="curve"/>
      <point x="540" y="674" type="line"/>
      <point x="514" y="693"/>
      <point x="479" y="706"/>
      <point x="443" y="706" type="curve" smooth="yes"/>
      <point x="350" y="706"/>
      <point x="277" y="648"/>
      <point x="231" y="454" type="curve" smooth="yes"/>
      <point x="208" y="362" type="line"/>
      <point x="136" y="362" type="line"/>
      <point x="121" y="312" type="line"/>
      <point x="194" y="312" type="line"/>
      <point x="170" y="204"/>
      <point x="133" y="90"/>
    </contour>
  </outline>
</glyph>
<glyph name="currency" format="2">
  <advance width="418"/>
  <unicode hex="00A4"/>
  <outline>
    <contour>
      <point x="159" y="116" type="line"/>
      <point x="212" y="188" type="line"/>
      <point x="234" y="169"/>
      <point x="262" y="159"/>
      <point x="293" y="159" type="curve" smooth="yes"/>
      <point x="324" y="159"/>
      <point x="352" y="169"/>
      <point x="374" y="187" type="curve"/>
      <point x="426" y="116" type="line"/>
      <point x="468" y="150" type="line"/>
      <point x="411" y="226" type="line"/>
      <point x="431" y="257"/>
      <point x="442" y="297"/>
      <point x="442" y="347" type="curve" smooth="yes"/>
      <point x="442" y="397"/>
      <point x="430" y="439"/>
      <point x="410" y="470" type="curve"/>
      <point x="468" y="547" type="line"/>
      <point x="426" y="581" type="line"/>
      <point x="373" y="509" type="line"/>
      <point x="351" y="526"/>
      <point x="324" y="535"/>
      <point x="293" y="535" type="curve" smooth="yes"/>
      <point x="263" y="535"/>
      <point x="235" y="526"/>
      <point x="213" y="508" type="curve"/>
      <point x="159" y="581" type="line"/>
      <point x="118" y="547" type="line"/>
      <point x="176" y="469" type="line"/>
      <point x="156" y="438"/>
      <point x="145" y="397"/>
      <point x="145" y="347" type="curve" smooth="yes"/>
      <point x="145" y="298"/>
      <point x="156" y="257"/>
      <point x="175" y="227" type="curve"/>
      <point x="118" y="150" type="line"/>
    </contour>
    <contour>
      <point x="293" y="210" type="curve" smooth="yes"/>
      <point x="239" y="210"/>
      <point x="200" y="255"/>
      <point x="200" y="347" type="curve" smooth="yes"/>
      <point x="200" y="441"/>
      <point x="239" y="485"/>
      <point x="293" y="485" type="curve" smooth="yes"/>
      <point x="348" y="485"/>
      <point x="387" y="441"/>
      <point x="387" y="347" type="curve" smooth="yes"/>
      <point x="387" y="255"/>
      <point x="348" y="210"/>
    </contour>
  </outline>
</glyph>
<glyph name="yen" format="1">
  <advance width="443"/>
  <unicode hex="00A5"/>
  <outline>
    <contour>
      <point x="185" y="0" type="line"/>
      <point x="246" y="0" type="line"/>
      <point x="274" y="116" type="line"/>
      <point x="401" y="116" type="line"/>
      <point x="414" y="166" type="line"/>
      <point x="288" y="166" type="line"/>
      <point x="315" y="288" type="line"/>
      <point x="441" y="288" type="line"/>
      <point x="456" y="338" type="line"/>
      <point x="342" y="338" type="line"/>
      <point x="437" y="463"/>
      <point x="507" y="578"/>
      <point x="578" y="693" type="curve"/>
      <point x="516" y="693" type="line"/>
      <point x="451" y="587"/>
      <point x="382" y="474"/>
      <point x="305" y="368" type="curve"/>
      <point x="279" y="474"/>
      <point x="261" y="579"/>
      <point x="249" y="693" type="curve"/>
      <point x="186" y="693" type="line"/>
      <point x="201" y="576"/>
      <point x="224" y="462"/>
      <point x="255" y="338" type="curve"/>
      <point x="142" y="338" type="line"/>
      <point x="128" y="288" type="line"/>
      <point x="254" y="288" type="line"/>
      <point x="227" y="166" type="line"/>
      <point x="101" y="166" type="line"/>
      <point x="87" y="116" type="line"/>
      <point x="213" y="116" type="line"/>
    </contour>
  </outline>
</glyph>
<glyph name="brokenbar" format="2">
  <advance width="242"/>
  <unicode hex="00A6"/>
  <outline>
    <contour>
      <point x="189" y="406" type="line"/>
      <point x="248" y="406" type="line"/>
      <point x="338" y="783" type="line"/>
      <point x="280" y="783" type="line"/>
    </contour>
    <contour>
      <point x="48" y="-185" type="line"/>
      <point x="106" y="-185" type="line"/>
      <point x="196" y="191" type="line"/>
      <point x="137" y="191" type="line"/>
    </contour>
  </outline>
</glyph>
<glyph name="section" format="2">
  <advance width="390"/>
  <unicode hex="00A7"/>
  <outline>
    <contour>
      <point x="165" y="-109" type="curve" smooth="yes"/>
      <point x="260" y="-109"/>
      <point x="343" y="-60"/>
      <point x="350" y="62" type="curve" smooth="yes"/>
      <point x="352" y="102"/>
      <point x="342" y="130"/>
      <point x="325" y="149" type="curve"/>
      <point x="386" y="191"/>
      <point x="429" y="247"/>
      <point x="433" y="321" type="curve" smooth="yes"/>
      <point x="438" y="407"/>
      <point x="400" y="434"/>
      <point x="356" y="454" type="curve"/>
      <point x="307" y="475"/>
      <point x="267" y="491"/>
      <point x="271" y="559" type="curve" smooth="yes"/>
      <point x="275" y="627"/>
      <point x="326" y="661"/>
      <point x="381" y="661" type="curve" smooth="yes"/>
      <point x="411" y="661"/>
      <point x="442" y="651"/>
      <point x="467" y="630" type="curve"/>
      <point x="493" y="678" type="line"/>
      <point x="463" y="697"/>
      <point x="424" y="708"/>
      <point x="384" y="708" type="curve" smooth="yes"/>
      <point x="297" y="708"/>
      <point x="217" y="662"/>
      <point x="210" y="545" type="curve" smooth="yes"/>
      <point x="209" y="520"/>
      <point x="215" y="488"/>
      <point x="229" y="463" type="curve"/>
      <point x="165" y="417"/>
      <point x="122" y="360"/>
      <point x="118" y="284" type="curve" smooth="yes"/>
      <point x="113" y="201"/>
      <point x="151" y="172"/>
      <point x="196" y="149" type="curve" smooth="yes"/>
      <point x="247" y="126"/>
      <point x="292" y="111"/>
      <point x="289" y="50" type="curve" smooth="yes"/>
      <point x="284" y="-24"/>
      <point x="230" y="-57"/>
      <point x="171" y="-57" type="curve" smooth="yes"/>
      <point x="134" y="-57"/>
      <point x="97" y="-45"/>
      <point x="70" y="-20" type="curve"/>
      <point x="41" y="-74" type="line"/>
      <point x="76" y="-97"/>
      <point x="121" y="-109"/>
    </contour>
    <contour>
      <point x="282" y="174" type="curve"/>
      <point x="227" y="209" type="line"/>
      <point x="189" y="229"/>
      <point x="175" y="252"/>
      <point x="177" y="293" type="curve" smooth="yes"/>
      <point x="181" y="353"/>
      <point x="219" y="404"/>
      <point x="260" y="433" type="curve"/>
      <point x="323" y="395" type="line" smooth="yes"/>
      <point x="365" y="372"/>
      <point x="376" y="345"/>
      <point x="374" y="311" type="curve" smooth="yes"/>
      <point x="371" y="260"/>
      <point x="333" y="204"/>
    </contour>
  </outline>
</glyph>
<glyph name="dieresis" format="2">
  <advance width="324"/>
  <unicode hex="00A8"/>
  <outline>
    <contour>
      <point x="390" y="630" type="curve" smooth="yes"/>
      <point x="414" y="630"/>
      <point x="434" y="651"/>
      <point x="434" y="678" type="curve" smooth="yes"/>
      <point x="434" y="698"/>
      <point x="419" y="714"/>
      <point x="398" y="714" type="curve" smooth="yes"/>
      <point x="372" y="714"/>
      <point x="354" y="691"/>
      <point x="354" y="665" type="curve" smooth="yes"/>
      <point x="354" y="645"/>
      <point x="369" y="630"/>
    </contour>
    <contour>
      <point x="248" y="630" type="curve" smooth="yes"/>
      <point x="272" y="630"/>
      <point x="292" y="651"/>
      <point x="292" y="678" type="curve" smooth="yes"/>
      <point x="292" y="698"/>
      <point x="277" y="714"/>
      <point x="256" y="714" type="curve" smooth="yes"/>
      <point x="230" y="714"/>
      <point x="212" y="691"/>
      <point x="212" y="665" type="curve" smooth="yes"/>
      <point x="212" y="645"/>
      <point x="227" y="630"/>
    </contour>
  </outline>
</glyph>
<glyph name="copyright" format="2">
  <advance width="594"/>
  <unicode hex="00A9"/>
  <outline>
    <contour>
      <point x="356" y="-15" type="curve" smooth="yes"/>
      <point x="494" y="-15"/>
      <point x="626" y="119"/>
      <point x="638" y="347" type="curve" smooth="yes"/>
      <point x="651" y="575"/>
      <point x="535" y="708"/>
      <point x="397" y="708" type="curve" smooth="yes"/>
      <point x="258" y="708"/>
      <point x="127" y="575"/>
      <point x="114" y="347" type="curve" smooth="yes"/>
      <point x="101" y="119"/>
      <point x="217" y="-15"/>
    </contour>
    <contour>
      <point x="370" y="141" type="curve" smooth="yes"/>
      <point x="419" y="141"/>
      <point x="455" y="162"/>
      <point x="469" y="172" type="curve"/>
      <point x="457" y="217" type="line"/>
      <point x="444" y="208"/>
      <point x="420" y="191"/>
      <point x="378" y="191" type="curve" smooth="yes"/>
      <point x="318" y="191"/>
      <point x="287" y="247"/>
      <point x="292" y="348" type="curve" smooth="yes"/>
      <point x="298" y="446"/>
      <point x="341" y="502"/>
      <point x="394" y="502" type="curve" smooth="yes"/>
      <point x="432" y="502"/>
      <point x="453" y="485"/>
      <point x="467" y="474" type="curve"/>
      <point x="486" y="517" type="line"/>
      <point x="475" y="528"/>
      <point x="445" y="552"/>
      <point x="395" y="552" type="curve" smooth="yes"/>
      <point x="318" y="552"/>
      <point x="247" y="477"/>
      <point x="240" y="348" type="curve" smooth="yes"/>
      <point x="232" y="216"/>
      <point x="287" y="141"/>
    </contour>
    <contour>
      <point x="358" y="35" type="curve" smooth="yes"/>
      <point x="235" y="35"/>
      <point x="154" y="161"/>
      <point x="164" y="347" type="curve" smooth="yes"/>
      <point x="175" y="533"/>
      <point x="270" y="658"/>
      <point x="394" y="658" type="curve" smooth="yes"/>
      <point x="517" y="658"/>
      <point x="598" y="533"/>
      <point x="588" y="347" type="curve" smooth="yes"/>
      <point x="577" y="161"/>
      <point x="482" y="35"/>
    </contour>
  </outline>
</glyph>
<glyph name="ordfeminine" format="2">
  <advance width="339"/>
  <unicode hex="00AA"/>
  <outline>
    <contour>
      <point x="247" y="326" type="curve" smooth="yes"/>
      <point x="275" y="326"/>
      <point x="304" y="341"/>
      <point x="328" y="360" type="curve"/>
      <point x="329" y="348"/>
      <point x="332" y="340"/>
      <point x="335" y="328" type="curve"/>
      <point x="384" y="335" type="line"/>
      <point x="375" y="366"/>
      <point x="369" y="394"/>
      <point x="385" y="456" type="curve" smooth="yes"/>
      <point x="440" y="682" type="line"/>
      <point x="416" y="694"/>
      <point x="379" y="700"/>
      <point x="353" y="700" type="curve" smooth="yes"/>
      <point x="247" y="700"/>
      <point x="164" y="581"/>
      <point x="164" y="435" type="curve" smooth="yes"/>
      <point x="164" y="366"/>
      <point x="189" y="326"/>
    </contour>
    <contour>
      <point x="259" y="370" type="curve" smooth="yes"/>
      <point x="229" y="370"/>
      <point x="216" y="392"/>
      <point x="216" y="438" type="curve" smooth="yes"/>
      <point x="216" y="553"/>
      <point x="278" y="656"/>
      <point x="340" y="656" type="curve" smooth="yes"/>
      <point x="354" y="656"/>
      <point x="368" y="654"/>
      <point x="379" y="649" type="curve"/>
      <point x="336" y="472" type="line" smooth="yes"/>
      <point x="329" y="440"/>
      <point x="325" y="419"/>
      <point x="324" y="403" type="curve"/>
      <point x="303" y="382"/>
      <point x="280" y="370"/>
    </contour>
  </outline>
</glyph>
<glyph name="logicalnot" format="2">
  <advance width="437"/>
  <unicode hex="00AC"/>
  <outline>
    <contour>
      <point x="356" y="136" type="line"/>
      <point x="412" y="136" type="line"/>
      <point x="472" y="390" type="line"/>
      <point x="138" y="390" type="line"/>
      <point x="126" y="338" type="line"/>
      <point x="405" y="338" type="line"/>
    </contour>
  </outline>
</glyph>
<glyph name="registered" format="2">
  <advance width="693"/>
  <unicode hex="00AE"/>
  <outline>
    <contour>
      <point x="430" y="-15" type="curve" smooth="yes"/>
      <point x="612" y="-15"/>
      <point x="721" y="136"/>
      <point x="721" y="346" type="curve" smooth="yes"/>
      <point x="721" y="555"/>
      <point x="612" y="707"/>
      <point x="430" y="707" type="curve" smooth="yes"/>
      <point x="248" y="707"/>
      <point x="138" y="555"/>
      <point x="138" y="346" type="curve" smooth="yes"/>
      <point x="138" y="136"/>
      <point x="248" y="-15"/>
    </contour>
    <contour>
      <point x="430" y="29" type="curve" smooth="yes"/>
      <point x="281" y="29"/>
      <point x="185" y="154"/>
      <point x="185" y="346" type="curve" smooth="yes"/>
      <point x="185" y="536"/>
      <point x="281" y="663"/>
      <point x="430" y="663" type="curve" smooth="yes"/>
      <point x="575" y="663"/>
      <point x="674" y="538"/>
      <point x="674" y="346" type="curve" smooth="yes"/>
      <point x="674" y="155"/>
      <point x="577" y="29"/>
    </contour>
    <contour>
      <point x="327" y="154" type="line"/>
      <point x="374" y="154" type="line"/>
      <point x="374" y="309" type="line"/>
      <point x="399" y="309" type="line" smooth="yes"/>
      <point x="408" y="309"/>
      <point x="417" y="309"/>
      <point x="426" y="309" type="curve"/>
      <point x="457" y="263"/>
      <point x="484" y="210"/>
      <point x="508" y="154" type="curve"/>
      <point x="560" y="154" type="line"/>
      <point x="527" y="225"/>
      <point x="500" y="275"/>
      <point x="472" y="321" type="curve"/>
      <point x="515" y="339"/>
      <point x="541" y="374"/>
      <point x="541" y="425" type="curve" smooth="yes"/>
      <point x="541" y="502"/>
      <point x="502" y="544"/>
      <point x="415" y="544" type="curve" smooth="yes"/>
      <point x="387" y="544"/>
      <point x="356" y="539"/>
      <point x="327" y="531" type="curve"/>
    </contour>
    <contour>
      <point x="374" y="349" type="line"/>
      <point x="374" y="499" type="line"/>
      <point x="389" y="501"/>
      <point x="402" y="503"/>
      <point x="417" y="503" type="curve" smooth="yes"/>
      <point x="468" y="503"/>
      <point x="493" y="478"/>
      <point x="493" y="425" type="curve"/>
      <point x="493" y="373"/>
      <point x="466" y="349"/>
      <point x="414" y="349" type="curve" smooth="yes"/>
    </contour>
  </outline>
</glyph>
<glyph name="macron" format="2">
  <advance width="291"/>
  <unicode hex="00AF"/>
  <outline>
    <contour>
      <point x="203" y="653" type="line"/>
      <point x="402" y="653" type="line"/>
      <point x="414" y="702" type="line"/>
      <point x="214" y="702" type="line"/>
    </contour>
  </outline>
</glyph>
<glyph name="degree" format="2">
  <advance width="272"/>
  <unicode hex="00B0"/>
  <outline>
    <contour>
      <point x="289" y="528" type="curve" smooth="yes"/>
      <point x="352" y="528"/>
      <point x="400" y="572"/>
      <point x="400" y="640" type="curve" smooth="yes"/>
      <point x="400" y="705"/>
      <point x="351" y="752"/>
      <point x="289" y="752" type="curve" smooth="yes"/>
      <point x="226" y="752"/>
      <point x="178" y="708"/>
      <point x="178" y="640" type="curve" smooth="yes"/>
      <point x="178" y="575"/>
      <point x="226" y="528"/>
    </contour>
    <contour>
      <point x="289" y="571" type="curve" smooth="yes"/>
      <point x="252" y="571"/>
      <point x="224" y="599"/>
      <point x="224" y="640" type="curve" smooth="yes"/>
      <point x="224" y="681"/>
      <point x="252" y="709"/>
      <point x="289" y="709" type="curve" smooth="yes"/>
      <point x="327" y="709"/>
      <point x="354" y="681"/>
      <point x="354" y="640" type="curve" smooth="yes"/>
      <point x="354" y="599"/>
      <point x="327" y="571"/>
    </contour>
  </outline>
</glyph>
<glyph name="plusminus" format="1">
  <advance width="443"/>
  <unicode hex="00B1"/>
  <outline>
    <contour>
      <point x="225" y="125" type="line"/>
      <point x="279" y="125" type="line"/>
      <point x="331" y="346" type="line"/>
      <point x="474" y="346" type="line"/>
      <point x="489" y="398" type="line"/>
      <point x="345" y="398" type="line"/>
      <point x="398" y="617" type="line"/>
      <point x="343" y="617" type="line"/>
      <point x="291" y="398" type="line"/>
      <point x="147" y="398" type="line"/>
      <point x="132" y="346" type="line"/>
      <point x="276" y="346" type="line"/>
    </contour>
    <contour>
      <point x="57" y="1" type="line"/>
      <point x="392" y="1" type="line"/>
      <point x="407" y="53" type="line"/>
      <point x="71" y="53" type="line"/>
    </contour>
  </outline>
</glyph>
<glyph name="twosuperior" format="2">
  <advance width="291"/>
  <unicode hex="00B2"/>
  <outline>
    <contour>
      <point x="139" y="305" type="curve"/>
      <point x="318" y="305" type="line"/>
      <point x="326" y="348" type="line"/>
      <point x="202" y="348" type="line"/>
      <point x="219" y="400"/>
      <point x="255" y="437"/>
      <point x="291" y="472" type="curve" smooth="yes"/>
      <point x="340" y="521"/>
      <point x="373" y="567"/>
      <point x="373" y="618" type="curve" smooth="yes"/>
      <point x="373" y="668"/>
      <point x="343" y="698"/>
      <point x="288" y="698" type="curve" smooth="yes"/>
      <point x="255" y="698"/>
      <point x="224" y="687"/>
      <point x="199" y="666" type="curve"/>
      <point x="217" y="631" type="line"/>
      <point x="235" y="646"/>
      <point x="257" y="654"/>
      <point x="278" y="654" type="curve" smooth="yes"/>
      <point x="306" y="654"/>
      <point x="322" y="640"/>
      <point x="322" y="613" type="curve" smooth="yes"/>
      <point x="322" y="573"/>
      <point x="292" y="532"/>
      <point x="243" y="484" type="curve" smooth="yes"/>
      <point x="193" y="436"/>
      <point x="149" y="375"/>
    </contour>
  </outline>
</glyph>
<glyph name="threesuperior" format="2">
  <advance width="291"/>
  <unicode hex="00B3"/>
  <outline>
    <contour>
      <point x="202" y="297" type="curve" smooth="yes"/>
      <point x="279" y="297"/>
      <point x="338" y="358"/>
      <point x="338" y="431" type="curve" smooth="yes"/>
      <point x="338" y="467"/>
      <point x="325" y="496"/>
      <point x="293" y="510" type="curve"/>
      <point x="349" y="533"/>
      <point x="371" y="579"/>
      <point x="371" y="621" type="curve" smooth="yes"/>
      <point x="371" y="669"/>
      <point x="339" y="697"/>
      <point x="286" y="697" type="curve" smooth="yes"/>
      <point x="260" y="697"/>
      <point x="228" y="689"/>
      <point x="203" y="672" type="curve"/>
      <point x="214" y="634" type="line"/>
      <point x="233" y="646"/>
      <point x="256" y="655"/>
      <point x="274" y="655" type="curve" smooth="yes"/>
      <point x="305" y="655"/>
      <point x="320" y="637"/>
      <point x="320" y="611" type="curve" smooth="yes"/>
      <point x="320" y="578"/>
      <point x="297" y="530"/>
      <point x="233" y="530" type="curve" smooth="yes"/>
      <point x="216" y="530" type="line"/>
      <point x="207" y="489" type="line"/>
      <point x="227" y="489" type="line" smooth="yes"/>
      <point x="268" y="489"/>
      <point x="290" y="466"/>
      <point x="290" y="429" type="curve" smooth="yes"/>
      <point x="290" y="375"/>
      <point x="248" y="340"/>
      <point x="205" y="340" type="curve" smooth="yes"/>
      <point x="183" y="340"/>
      <point x="163" y="345"/>
      <point x="144" y="357" type="curve"/>
      <point x="128" y="317" type="line"/>
      <point x="148" y="303"/>
      <point x="174" y="297"/>
    </contour>
  </outline>
</glyph>
<glyph name="acute" format="2">
  <advance width="300"/>
  <unicode hex="00B4"/>
  <outline>
    <contour>
      <point x="243" y="591" type="line"/>
      <point x="404" y="738" type="line"/>
      <point x="365" y="777" type="line"/>
      <point x="217" y="618" type="line"/>
    </contour>
  </outline>
</glyph>
<glyph name="mu" format="2">
  <advance width="455"/>
  <unicode hex="00B5"/>
  <outline>
    <contour>
      <point x="27" y="-185" type="line"/>
      <point x="86" y="-185" type="line"/>
      <point x="123" y="-24" type="line" smooth="yes"/>
      <point x="129" y="1"/>
      <point x="133" y="25"/>
      <point x="136" y="45" type="curve"/>
      <point x="151" y="5"/>
      <point x="185" y="-10"/>
      <point x="234" y="-10" type="curve" smooth="yes"/>
      <point x="274" y="-9"/>
      <point x="315" y="12"/>
      <point x="350" y="40" type="curve"/>
      <point x="352" y="23"/>
      <point x="357" y="10"/>
      <point x="362" y="-7" type="curve"/>
      <point x="419" y="3" type="line"/>
      <point x="405" y="49"/>
      <point x="397" y="90"/>
      <point x="418" y="179" type="curve" smooth="yes"/>
      <point x="500" y="521" type="line"/>
      <point x="440" y="521" type="line"/>
      <point x="362" y="199" type="line" smooth="yes"/>
      <point x="351" y="153"/>
      <point x="345" y="120"/>
      <point x="343" y="94" type="curve"/>
      <point x="312" y="63"/>
      <point x="276" y="42"/>
      <point x="244" y="42" type="curve" smooth="yes"/>
      <point x="172" y="42"/>
      <point x="155" y="99"/>
      <point x="179" y="202" type="curve" smooth="yes"/>
      <point x="256" y="521" type="line"/>
      <point x="196" y="521" type="line"/>
    </contour>
  </outline>
</glyph>
<glyph name="paragraph" format="2">
  <advance width="473"/>
  <unicode hex="00B6"/>
  <outline>
    <contour>
      <point x="164" y="-185" type="line"/>
      <point x="221" y="-185" type="line"/>
      <point x="421" y="646" type="line"/>
      <point x="444" y="649"/>
      <point x="470" y="647"/>
      <point x="488" y="644" type="curve"/>
      <point x="290" y="-185" type="line"/>
      <point x="346" y="-185" type="line"/>
      <point x="554" y="683" type="line"/>
      <point x="531" y="692"/>
      <point x="486" y="698"/>
      <point x="447" y="698" type="curve" smooth="yes"/>
      <point x="273" y="698"/>
      <point x="138" y="581"/>
      <point x="138" y="415" type="curve" smooth="yes"/>
      <point x="138" y="329"/>
      <point x="183" y="273"/>
      <point x="272" y="264" type="curve"/>
    </contour>
  </outline>
</glyph>
<glyph name="cedilla" format="2">
  <advance width="283"/>
  <unicode hex="00B8"/>
  <outline>
    <contour>
      <point x="81" y="-192" type="curve" smooth="yes"/>
      <point x="143" y="-192"/>
      <point x="189" y="-155"/>
      <point x="189" y="-102" type="curve" smooth="yes"/>
      <point x="189" y="-78"/>
      <point x="177" y="-56"/>
      <point x="145" y="-39" type="curve"/>
      <point x="163" y="-13"/>
      <point x="172" y="3"/>
      <point x="183" y="19" type="curve"/>
      <point x="138" y="19" type="line"/>
      <point x="125" y="1"/>
      <point x="106" y="-29"/>
      <point x="89" y="-57" type="curve"/>
      <point x="124" y="-68"/>
      <point x="138" y="-84"/>
      <point x="138" y="-105" type="curve" smooth="yes"/>
      <point x="138" y="-133"/>
      <point x="118" y="-149"/>
      <point x="87" y="-149" type="curve" smooth="yes"/>
      <point x="71" y="-149"/>
      <point x="51" y="-146"/>
      <point x="36" y="-141" type="curve"/>
      <point x="22" y="-182" type="line"/>
      <point x="40" y="-188"/>
      <point x="60" y="-192"/>
    </contour>
  </outline>
</glyph>
<glyph name="onesuperior" format="2">
  <advance width="291"/>
  <unicode hex="00B9"/>
  <outline>
    <contour>
      <point x="211" y="305" type="line"/>
      <point x="260" y="305" type="line"/>
      <point x="353" y="691" type="line"/>
      <point x="311" y="691" type="line"/>
      <point x="282" y="658"/>
      <point x="243" y="634"/>
      <point x="207" y="618" type="curve"/>
      <point x="226" y="578" type="line"/>
      <point x="248" y="588"/>
      <point x="270" y="603"/>
      <point x="287" y="620" type="curve"/>
    </contour>
  </outline>
</glyph>
<glyph name="ordmasculine" format="2">
  <advance width="352"/>
  <unicode hex="00BA"/>
  <outline>
    <contour>
      <point x="260" y="326" type="curve" smooth="yes"/>
      <point x="355" y="326"/>
      <point x="427" y="453"/>
      <point x="427" y="594" type="curve" smooth="yes"/>
      <point x="427" y="662"/>
      <point x="395" y="700"/>
      <point x="337" y="700" type="curve" smooth="yes"/>
      <point x="243" y="700"/>
      <point x="172" y="574"/>
      <point x="172" y="434" type="curve" smooth="yes"/>
      <point x="172" y="365"/>
      <point x="203" y="326"/>
    </contour>
    <contour>
      <point x="266" y="368" type="curve" smooth="yes"/>
      <point x="236" y="368"/>
      <point x="224" y="389"/>
      <point x="224" y="434" type="curve" smooth="yes"/>
      <point x="224" y="539"/>
      <point x="272" y="657"/>
      <point x="333" y="657" type="curve" smooth="yes"/>
      <point x="362" y="657"/>
      <point x="374" y="638"/>
      <point x="374" y="593" type="curve" smooth="yes"/>
      <point x="374" y="486"/>
      <point x="326" y="368"/>
    </contour>
  </outline>
</glyph>
<glyph name="questiondown" format="1">
  <advance width="310"/>
  <unicode hex="00BF"/>
  <outline>
    <contour>
      <point x="176" y="-187" type="curve" smooth="yes"/>
      <point x="216" y="-187"/>
      <point x="259" y="-175"/>
      <point x="292" y="-156" type="curve"/>
      <point x="288" y="-106" type="line"/>
      <point x="262" y="-120"/>
      <point x="223" y="-134"/>
      <point x="190" y="-134" type="curve" smooth="yes"/>
      <point x="154" y="-134"/>
      <point x="124" y="-115"/>
      <point x="128" y="-55" type="curve" smooth="yes"/>
      <point x="131" y="-3"/>
      <point x="153" y="35"/>
      <point x="214" y="90" type="curve"/>
      <point x="279" y="157"/>
      <point x="324" y="210"/>
      <point x="331" y="308" type="curve"/>
      <point x="280" y="308" type="line"/>
      <point x="275" y="236"/>
      <point x="230" y="187"/>
      <point x="183" y="139" type="curve" smooth="yes"/>
      <point x="128" y="86"/>
      <point x="70" y="31"/>
      <point x="65" y="-55" type="curve" smooth="yes"/>
      <point x="59" y="-155"/>
      <point x="113" y="-187"/>
    </contour>
    <contour>
      <point x="321" y="428" type="curve" smooth="yes"/>
      <point x="351" y="428"/>
      <point x="372" y="460"/>
      <point x="373" y="487" type="curve" smooth="yes"/>
      <point x="375" y="509"/>
      <point x="362" y="532"/>
      <point x="334" y="532" type="curve" smooth="yes"/>
      <point x="304" y="532"/>
      <point x="283" y="501"/>
      <point x="281" y="474" type="curve" smooth="yes"/>
      <point x="280" y="451"/>
      <point x="293" y="428"/>
    </contour>
  </outline>
</glyph>
<glyph name="Aring" format="2">
  <advance width="472"/>
  <unicode hex="00C5"/>
  <outline>
    <contour>
      <point x="25" y="0" type="curve"/>
      <point x="87" y="0" type="line"/>
      <point x="107" y="56"/>
      <point x="134" y="119"/>
      <point x="163" y="186" type="curve"/>
      <point x="392" y="186" type="line"/>
      <point x="391" y="119"/>
      <point x="389" y="58"/>
      <point x="386" y="0" type="curve"/>
      <point x="450" y="0" type="line"/>
      <point x="460" y="222"/>
      <point x="451" y="447"/>
      <point x="432" y="670" type="curve"/>
      <point x="462" y="679"/>
      <point x="486" y="704"/>
      <point x="486" y="746" type="curve" smooth="yes"/>
      <point x="486" y="793"/>
      <point x="452" y="829"/>
      <point x="405" y="829" type="curve" smooth="yes"/>
      <point x="357" y="829"/>
      <point x="322" y="794"/>
      <point x="322" y="746" type="curve" smooth="yes"/>
      <point x="322" y="715"/>
      <point x="336" y="693"/>
      <point x="355" y="681" type="curve"/>
      <point x="238" y="478"/>
      <point x="110" y="225"/>
    </contour>
    <contour>
      <point x="187" y="240" type="line"/>
      <point x="243" y="364"/>
      <point x="311" y="498"/>
      <point x="379" y="619" type="curve"/>
      <point x="389" y="484"/>
      <point x="392" y="357"/>
      <point x="393" y="240" type="curve"/>
    </contour>
    <contour>
      <point x="405" y="697" type="curve" smooth="yes"/>
      <point x="376" y="697"/>
      <point x="359" y="717"/>
      <point x="359" y="746" type="curve" smooth="yes"/>
      <point x="359" y="774"/>
      <point x="378" y="794"/>
      <point x="405" y="794" type="curve" smooth="yes"/>
      <point x="431" y="794"/>
      <point x="450" y="774"/>
      <point x="450" y="746" type="curve" smooth="yes"/>
      <point x="450" y="717"/>
      <point x="431" y="697"/>
    </contour>
  </outline>
</glyph>
<glyph name="AE" format="2">
  <advance width="704"/>
  <unicode hex="00C6"/>
  <outline>
    <contour>
      <point x="14" y="0" type="curve"/>
      <point x="77" y="0" type="line"/>
      <point x="107" y="56"/>
      <point x="147" y="120"/>
      <point x="191" y="187" type="curve"/>
      <point x="406" y="187" type="line"/>
      <point x="362" y="0" type="line"/>
      <point x="672" y="0" type="line"/>
      <point x="685" y="54" type="line"/>
      <point x="437" y="54" type="line"/>
      <point x="505" y="338" type="line"/>
      <point x="710" y="338" type="line"/>
      <point x="723" y="392" type="line"/>
      <point x="518" y="392" type="line"/>
      <point x="578" y="639" type="line"/>
      <point x="806" y="639" type="line"/>
      <point x="819" y="693" type="line"/>
      <point x="513" y="693" type="line"/>
      <point x="349" y="510"/>
      <point x="144" y="235"/>
    </contour>
    <contour>
      <point x="227" y="241" type="line"/>
      <point x="317" y="372"/>
      <point x="418" y="506"/>
      <point x="508" y="612" type="curve"/>
      <point x="420" y="241" type="line"/>
    </contour>
  </outline>
</glyph>
<glyph name="Ccedilla" format="2">
  <advance width="468"/>
  <unicode hex="00C7"/>
  <outline>
    <contour>
      <point x="225" y="-192" type="curve" smooth="yes"/>
      <point x="287" y="-192"/>
      <point x="333" y="-155"/>
      <point x="333" y="-102" type="curve" smooth="yes"/>
      <point x="333" y="-78"/>
      <point x="321" y="-56"/>
      <point x="289" y="-39" type="curve"/>
      <point x="297" y="-28"/>
      <point x="302" y="-19"/>
      <point x="308" y="-10" type="curve"/>
      <point x="362" y="-10"/>
      <point x="406" y="3"/>
      <point x="452" y="32" type="curve"/>
      <point x="445" y="88" type="line"/>
      <point x="404" y="59"/>
      <point x="363" y="45"/>
      <point x="323" y="45" type="curve" smooth="yes"/>
      <point x="241" y="45"/>
      <point x="198" y="95"/>
      <point x="198" y="204" type="curve" smooth="yes"/>
      <point x="198" y="456"/>
      <point x="324" y="649"/>
      <point x="471" y="649" type="curve" smooth="yes"/>
      <point x="500" y="649"/>
      <point x="535" y="642"/>
      <point x="560" y="628" type="curve"/>
      <point x="583" y="682" type="line"/>
      <point x="555" y="696"/>
      <point x="517" y="704"/>
      <point x="474" y="704" type="curve" smooth="yes"/>
      <point x="277" y="704"/>
      <point x="132" y="478"/>
      <point x="132" y="203" type="curve" smooth="yes"/>
      <point x="132" y="84"/>
      <point x="177" y="11"/>
      <point x="264" y="-6" type="curve"/>
      <point x="255" y="-22"/>
      <point x="243" y="-40"/>
      <point x="233" y="-57" type="curve"/>
      <point x="267" y="-68"/>
      <point x="281" y="-84"/>
      <point x="281" y="-105" type="curve" smooth="yes"/>
      <point x="281" y="-133"/>
      <point x="262" y="-149"/>
      <point x="230" y="-149" type="curve" smooth="yes"/>
      <point x="215" y="-149"/>
      <point x="194" y="-146"/>
      <point x="180" y="-141" type="curve"/>
      <point x="165" y="-182" type="line"/>
      <point x="184" y="-188"/>
      <point x="204" y="-192"/>
    </contour>
  </outline>
</glyph>
<glyph name="Eth" format="2">
  <advance width="554"/>
  <unicode hex="00D0"/>
  <outline>
    <contour>
      <point x="222" y="-4" type="curve" smooth="yes"/>
      <point x="447" y="-4"/>
      <point x="588" y="227"/>
      <point x="588" y="478" type="curve" smooth="yes"/>
      <point x="588" y="621"/>
      <point x="523" y="699"/>
      <point x="389" y="699" type="curve" smooth="yes"/>
      <point x="342" y="699"/>
      <point x="298" y="695"/>
      <point x="249" y="683" type="curve"/>
      <point x="174" y="372" type="line"/>
      <point x="121" y="372" type="line"/>
      <point x="110" y="323" type="line"/>
      <point x="163" y="323" type="line"/>
      <point x="89" y="12" type="line"/>
      <point x="121" y="3"/>
      <point x="176" y="-4"/>
    </contour>
    <contour>
      <point x="236" y="51" type="curve" smooth="yes"/>
      <point x="219" y="51"/>
      <point x="192" y="54"/>
      <point x="162" y="59" type="curve"/>
      <point x="225" y="323" type="line"/>
      <point x="349" y="323" type="line"/>
      <point x="360" y="372" type="line"/>
      <point x="238" y="372" type="line"/>
      <point x="301" y="636" type="line"/>
      <point x="328" y="641"/>
      <point x="355" y="643"/>
      <point x="380" y="643" type="curve" smooth="yes"/>
      <point x="480" y="643"/>
      <point x="522" y="588"/>
      <point x="522" y="470" type="curve" smooth="yes"/>
      <point x="522" y="249"/>
      <point x="402" y="51"/>
    </contour>
  </outline>
</glyph>
<glyph name="multiply" format="2">
  <advance width="437"/>
  <unicode hex="00D7"/>
  <outline>
    <contour>
      <point x="154" y="157" type="line"/>
      <point x="284" y="262" type="line"/>
      <point x="370" y="150" type="line"/>
      <point x="413" y="184" type="line"/>
      <point x="328" y="297" type="line"/>
      <point x="462" y="405" type="line"/>
      <point x="429" y="446" type="line"/>
      <point x="296" y="339" type="line"/>
      <point x="212" y="449" type="line"/>
      <point x="169" y="415" type="line"/>
      <point x="253" y="304" type="line"/>
      <point x="121" y="198" type="line"/>
    </contour>
  </outline>
</glyph>
<glyph name="Oslash" format="2">
  <advance width="586"/>
  <unicode hex="00D8"/>
  <outline>
    <contour>
      <point x="132" y="-28" type="line"/>
      <point x="182" y="39" type="line"/>
      <point x="213" y="2"/>
      <point x="255" y="-15"/>
      <point x="301" y="-15" type="curve" smooth="yes"/>
      <point x="458" y="-15"/>
      <point x="614" y="156"/>
      <point x="630" y="437" type="curve" smooth="yes"/>
      <point x="635" y="512"/>
      <point x="623" y="570"/>
      <point x="602" y="614" type="curve"/>
      <point x="658" y="691" type="line"/>
      <point x="623" y="726" type="line"/>
      <point x="571" y="653" type="line"/>
      <point x="539" y="690"/>
      <point x="497" y="708"/>
      <point x="452" y="708" type="curve" smooth="yes"/>
      <point x="295" y="708"/>
      <point x="138" y="537"/>
      <point x="122" y="257" type="curve" smooth="yes"/>
      <point x="118" y="182"/>
      <point x="128" y="123"/>
      <point x="150" y="79" type="curve"/>
      <point x="96" y="7" type="line"/>
    </contour>
    <contour>
      <point x="309" y="41" type="curve" smooth="yes"/>
      <point x="275" y="41"/>
      <point x="245" y="56"/>
      <point x="224" y="85" type="curve"/>
      <point x="556" y="565" type="line"/>
      <point x="564" y="534"/>
      <point x="568" y="495"/>
      <point x="566" y="448" type="curve" smooth="yes"/>
      <point x="550" y="185"/>
      <point x="429" y="41"/>
    </contour>
    <contour>
      <point x="196" y="128" type="line"/>
      <point x="187" y="159"/>
      <point x="184" y="197"/>
      <point x="187" y="245" type="curve" smooth="yes"/>
      <point x="202" y="508"/>
      <point x="323" y="651"/>
      <point x="443" y="651" type="curve" smooth="yes"/>
      <point x="477" y="651"/>
      <point x="507" y="637"/>
      <point x="528" y="607" type="curve"/>
    </contour>
  </outline>
</glyph>
<glyph name="Thorn" format="2">
  <advance width="465"/>
  <unicode hex="00DE"/>
  <outline>
    <contour>
      <point x="85" y="0" type="line"/>
      <point x="147" y="0" type="line"/>
      <point x="182" y="143" type="line"/>
      <point x="234" y="143" type="line" smooth="yes"/>
      <point x="411" y="143"/>
      <point x="526" y="260"/>
      <point x="526" y="417" type="curve" smooth="yes"/>
      <point x="526" y="523"/>
      <point x="466" y="574"/>
      <point x="354" y="574" type="curve" smooth="yes"/>
      <point x="332" y="574"/>
      <point x="308" y="573"/>
      <point x="284" y="569" type="curve"/>
      <point x="313" y="693" type="line"/>
      <point x="251" y="693" type="line"/>
    </contour>
    <contour>
      <point x="195" y="198" type="line"/>
      <point x="270" y="512" type="line"/>
      <point x="291" y="518"/>
      <point x="323" y="519"/>
      <point x="345" y="519" type="curve" smooth="yes"/>
      <point x="421" y="519"/>
      <point x="462" y="488"/>
      <point x="462" y="409" type="curve" smooth="yes"/>
      <point x="462" y="288"/>
      <point x="385" y="198"/>
      <point x="246" y="198" type="curve" smooth="yes"/>
    </contour>
  </outline>
</glyph>
<glyph name="germandbls" format="2">
  <advance width="466"/>
  <unicode hex="00DF"/>
  <outline>
    <contour>
      <point x="44" y="-189" type="line"/>
      <point x="96" y="-129"/>
      <point x="125" y="-54"/>
      <point x="154" y="67" type="curve" smooth="yes"/>
      <point x="278" y="588" type="line" smooth="yes"/>
      <point x="299" y="674"/>
      <point x="336" y="724"/>
      <point x="400" y="724" type="curve" smooth="yes"/>
      <point x="444" y="724"/>
      <point x="467" y="696"/>
      <point x="467" y="652" type="curve" smooth="yes"/>
      <point x="467" y="522"/>
      <point x="315" y="502"/>
      <point x="315" y="364" type="curve" smooth="yes"/>
      <point x="315" y="316"/>
      <point x="340" y="287"/>
      <point x="365" y="257" type="curve" smooth="yes"/>
      <point x="394" y="227"/>
      <point x="421" y="199"/>
      <point x="421" y="155" type="curve"/>
      <point x="421" y="95"/>
      <point x="379" y="41"/>
      <point x="303" y="41" type="curve" smooth="yes"/>
      <point x="277" y="41"/>
      <point x="254" y="46"/>
      <point x="232" y="54" type="curve"/>
      <point x="210" y="4" type="line"/>
      <point x="237" y="-6"/>
      <point x="267" y="-11"/>
      <point x="297" y="-11" type="curve" smooth="yes"/>
      <point x="414" y="-11"/>
      <point x="480" y="76"/>
      <point x="480" y="163" type="curve" smooth="yes"/>
      <point x="480" y="218"/>
      <point x="446" y="253"/>
      <point x="416" y="286" type="curve" smooth="yes"/>
      <point x="395" y="311"/>
      <point x="375" y="335"/>
      <point x="375" y="373" type="curve" smooth="yes"/>
      <point x="375" y="485"/>
      <point x="527" y="513"/>
      <point x="527" y="663" type="curve" smooth="yes"/>
      <point x="527" y="737"/>
      <point x="479" y="776"/>
      <point x="406" y="776" type="curve" smooth="yes"/>
      <point x="316" y="776"/>
      <point x="248" y="712"/>
      <point x="219" y="592" type="curve" smooth="yes"/>
      <point x="86" y="35" type="line" smooth="yes"/>
      <point x="66" y="-48"/>
      <point x="39" y="-116"/>
      <point x="-11" y="-179" type="curve"/>
    </contour>
  </outline>
</glyph>
<glyph name="ae" format="2">
  <advance width="612"/>
  <unicode hex="00E6"/>
  <outline>
    <contour>
      <point x="161" y="-12" type="curve" smooth="yes"/>
      <point x="228" y="-12"/>
      <point x="287" y="34"/>
      <point x="327" y="101" type="curve"/>
      <point x="342" y="33"/>
      <point x="382" y="-12"/>
      <point x="456" y="-12" type="curve" smooth="yes"/>
      <point x="501" y="-12"/>
      <point x="548" y="4"/>
      <point x="582" y="24" type="curve"/>
      <point x="579" y="80" type="line"/>
      <point x="542" y="57"/>
      <point x="505" y="44"/>
      <point x="474" y="44" type="curve" smooth="yes"/>
      <point x="392" y="44"/>
      <point x="375" y="86"/>
      <point x="380" y="203" type="curve"/>
      <point x="559" y="213"/>
      <point x="654" y="240"/>
      <point x="663" y="397" type="curve" smooth="yes"/>
      <point x="668" y="487"/>
      <point x="619" y="528"/>
      <point x="558" y="528" type="curve" smooth="yes"/>
      <point x="500" y="528"/>
      <point x="435" y="490"/>
      <point x="392" y="415" type="curve"/>
      <point x="377" y="483"/>
      <point x="336" y="528"/>
      <point x="263" y="528" type="curve" smooth="yes"/>
      <point x="218" y="528"/>
      <point x="170" y="512"/>
      <point x="137" y="493" type="curve"/>
      <point x="140" y="439" type="line"/>
      <point x="178" y="462"/>
      <point x="214" y="475"/>
      <point x="246" y="475" type="curve" smooth="yes"/>
      <point x="329" y="475"/>
      <point x="346" y="427"/>
      <point x="340" y="316" type="curve"/>
      <point x="161" y="304"/>
      <point x="65" y="277"/>
      <point x="56" y="120" type="curve" smooth="yes"/>
      <point x="51" y="32"/>
      <point x="99" y="-12"/>
    </contour>
    <contour>
      <point x="173" y="44" type="curve" smooth="yes"/>
      <point x="135" y="44"/>
      <point x="112" y="71"/>
      <point x="115" y="123" type="curve" smooth="yes"/>
      <point x="120" y="210"/>
      <point x="161" y="251"/>
      <point x="330" y="255" type="curve"/>
      <point x="301" y="106"/>
      <point x="234" y="44"/>
    </contour>
    <contour>
      <point x="390" y="260" type="curve"/>
      <point x="419" y="409"/>
      <point x="487" y="473"/>
      <point x="546" y="473" type="curve" smooth="yes"/>
      <point x="584" y="473"/>
      <point x="607" y="445"/>
      <point x="604" y="393" type="curve" smooth="yes"/>
      <point x="599" y="305"/>
      <point x="558" y="263"/>
    </contour>
  </outline>
</glyph>
<glyph name="ccedilla" format="2">
  <advance width="350"/>
  <unicode hex="00E7"/>
  <outline>
    <contour>
      <point x="161" y="-192" type="curve" smooth="yes"/>
      <point x="224" y="-192"/>
      <point x="269" y="-155"/>
      <point x="269" y="-102" type="curve" smooth="yes"/>
      <point x="269" y="-78"/>
      <point x="257" y="-56"/>
      <point x="225" y="-39" type="curve"/>
      <point x="233" y="-28"/>
      <point x="239" y="-19"/>
      <point x="244" y="-11" type="curve"/>
      <point x="276" y="-8"/>
      <point x="304" y="1"/>
      <point x="331" y="18" type="curve"/>
      <point x="325" y="68" type="line"/>
      <point x="303" y="53"/>
      <point x="273" y="42"/>
      <point x="246" y="42" type="curve" smooth="yes"/>
      <point x="185" y="42"/>
      <point x="163" y="76"/>
      <point x="163" y="163" type="curve" smooth="yes"/>
      <point x="163" y="341"/>
      <point x="242" y="480"/>
      <point x="345" y="480" type="curve" smooth="yes"/>
      <point x="368" y="480"/>
      <point x="390" y="476"/>
      <point x="411" y="465" type="curve"/>
      <point x="431" y="518" type="line"/>
      <point x="406" y="529"/>
      <point x="377" y="534"/>
      <point x="349" y="534" type="curve" smooth="yes"/>
      <point x="208" y="534"/>
      <point x="102" y="369"/>
      <point x="102" y="155" type="curve" smooth="yes"/>
      <point x="102" y="55"/>
      <point x="132" y="3"/>
      <point x="199" y="-8" type="curve"/>
      <point x="190" y="-23"/>
      <point x="179" y="-40"/>
      <point x="169" y="-57" type="curve"/>
      <point x="204" y="-68"/>
      <point x="218" y="-84"/>
      <point x="218" y="-105" type="curve" smooth="yes"/>
      <point x="218" y="-133"/>
      <point x="198" y="-149"/>
      <point x="167" y="-149" type="curve" smooth="yes"/>
      <point x="151" y="-149"/>
      <point x="131" y="-146"/>
      <point x="116" y="-141" type="curve"/>
      <point x="102" y="-182" type="line"/>
      <point x="120" y="-188"/>
      <point x="140" y="-192"/>
    </contour>
  </outline>
</glyph>
<glyph name="eth" format="2">
  <advance width="447"/>
  <unicode hex="00F0"/>
  <outline>
    <contour>
      <point x="214" y="-7" type="curve" smooth="yes"/>
      <point x="367" y="-7"/>
      <point x="472" y="203"/>
      <point x="472" y="469" type="curve" smooth="yes"/>
      <point x="472" y="530"/>
      <point x="463" y="586"/>
      <point x="443" y="638" type="curve"/>
      <point x="539" y="680" type="line"/>
      <point x="525" y="721" type="line"/>
      <point x="427" y="678" type="line"/>
      <point x="410" y="712"/>
      <point x="390" y="746"/>
      <point x="365" y="775" type="curve"/>
      <point x="313" y="746" type="line"/>
      <point x="337" y="716"/>
      <point x="356" y="685"/>
      <point x="371" y="653" type="curve"/>
      <point x="269" y="608" type="line"/>
      <point x="282" y="567" type="line"/>
      <point x="386" y="613" type="line"/>
      <point x="402" y="569"/>
      <point x="409" y="524"/>
      <point x="409" y="473" type="curve" smooth="yes"/>
      <point x="409" y="468"/>
      <point x="409" y="463"/>
      <point x="409" y="458" type="curve"/>
      <point x="388" y="475"/>
      <point x="362" y="484"/>
      <point x="334" y="484" type="curve" smooth="yes"/>
      <point x="198" y="484"/>
      <point x="91" y="329"/>
      <point x="91" y="143" type="curve" smooth="yes"/>
      <point x="91" y="48"/>
      <point x="137" y="-7"/>
    </contour>
    <contour>
      <point x="222" y="46" type="curve" smooth="yes"/>
      <point x="178" y="46"/>
      <point x="155" y="79"/>
      <point x="155" y="146" type="curve" smooth="yes"/>
      <point x="155" y="297"/>
      <point x="231" y="435"/>
      <point x="331" y="435" type="curve" smooth="yes"/>
      <point x="360" y="435"/>
      <point x="386" y="424"/>
      <point x="404" y="404" type="curve"/>
      <point x="389" y="200"/>
      <point x="312" y="46"/>
    </contour>
  </outline>
</glyph>
<glyph name="divide" format="2">
  <advance width="437"/>
  <unicode hex="00F7"/>
  <outline>
    <contour>
      <point x="116" y="274" type="line"/>
      <point x="452" y="274" type="line"/>
      <point x="464" y="326" type="line"/>
      <point x="129" y="326" type="line"/>
    </contour>
    <contour>
      <point x="253" y="110" type="curve" smooth="yes"/>
      <point x="278" y="110"/>
      <point x="298" y="130"/>
      <point x="298" y="160" type="curve" smooth="yes"/>
      <point x="298" y="179"/>
      <point x="282" y="196"/>
      <point x="260" y="196" type="curve" smooth="yes"/>
      <point x="231" y="196"/>
      <point x="214" y="172"/>
      <point x="214" y="146" type="curve" smooth="yes"/>
      <point x="214" y="126"/>
      <point x="230" y="110"/>
    </contour>
    <contour>
      <point x="322" y="405" type="curve" smooth="yes"/>
      <point x="347" y="405"/>
      <point x="367" y="426"/>
      <point x="367" y="455" type="curve" smooth="yes"/>
      <point x="367" y="475"/>
      <point x="351" y="491"/>
      <point x="328" y="491" type="curve" smooth="yes"/>
      <point x="300" y="491"/>
      <point x="283" y="467"/>
      <point x="283" y="441" type="curve" smooth="yes"/>
      <point x="283" y="421"/>
      <point x="299" y="405"/>
    </contour>
  </outline>
</glyph>
<glyph name="oslash" format="2">
  <advance width="431"/>
  <unicode hex="00F8"/>
  <outline>
    <contour>
      <point x="81" y="-25" type="line"/>
      <point x="131" y="38" type="line"/>
      <point x="150" y="7"/>
      <point x="181" y="-10"/>
      <point x="224" y="-10" type="curve" smooth="yes"/>
      <point x="356" y="-10"/>
      <point x="456" y="175"/>
      <point x="456" y="379" type="curve" smooth="yes"/>
      <point x="456" y="404"/>
      <point x="453" y="426"/>
      <point x="448" y="445" type="curve"/>
      <point x="511" y="524" type="line"/>
      <point x="477" y="548" type="line"/>
      <point x="427" y="484" type="line"/>
      <point x="407" y="516"/>
      <point x="376" y="533"/>
      <point x="334" y="533" type="curve" smooth="yes"/>
      <point x="201" y="533"/>
      <point x="101" y="350"/>
      <point x="101" y="147" type="curve" smooth="yes"/>
      <point x="101" y="121"/>
      <point x="104" y="98"/>
      <point x="110" y="78" type="curve"/>
      <point x="48" y="0" type="line"/>
    </contour>
    <contour>
      <point x="229" y="40" type="curve" smooth="yes"/>
      <point x="196" y="40"/>
      <point x="176" y="54"/>
      <point x="166" y="86" type="curve"/>
      <point x="397" y="384" type="line"/>
      <point x="398" y="378"/>
      <point x="398" y="371"/>
      <point x="398" y="363" type="curve" smooth="yes"/>
      <point x="395" y="196"/>
      <point x="321" y="40"/>
    </contour>
    <contour>
      <point x="161" y="142" type="line"/>
      <point x="160" y="148"/>
      <point x="160" y="156"/>
      <point x="160" y="165" type="curve" smooth="yes"/>
      <point x="164" y="329"/>
      <point x="237" y="482"/>
      <point x="329" y="482" type="curve" smooth="yes"/>
      <point x="361" y="482"/>
      <point x="381" y="468"/>
      <point x="391" y="438" type="curve"/>
    </contour>
  </outline>
</glyph>
<glyph name="thorn" format="1">
  <advance width="415"/>
  <unicode hex="00FE"/>
  <outline>
    <contour>
      <point x="21" y="-185" type="line"/>
      <point x="81" y="-185" type="line"/>
      <point x="125" y="1" type="line"/>
      <point x="142" y="-6"/>
      <point x="161" y="-9"/>
      <point x="180" y="-9" type="curve" smooth="yes"/>
      <point x="340" y="-9"/>
      <point x="443" y="156"/>
      <point x="454" y="340" type="curve" smooth="yes"/>
      <point x="461" y="464"/>
      <point x="418" y="529"/>
      <point x="320" y="529" type="curve" smooth="yes"/>
      <point x="298" y="529"/>
      <point x="275" y="525"/>
      <point x="251" y="516" type="curve"/>
      <point x="313" y="776" type="line"/>
      <point x="249" y="765" type="line"/>
    </contour>
    <contour>
      <point x="188" y="47" type="curve" smooth="yes"/>
      <point x="173" y="47"/>
      <point x="158" y="50"/>
      <point x="142" y="56" type="curve"/>
      <point x="235" y="461" type="line"/>
      <point x="260" y="471"/>
      <point x="283" y="477"/>
      <point x="305" y="477" type="curve" smooth="yes"/>
      <point x="370" y="477"/>
      <point x="398" y="432"/>
      <point x="392" y="330" type="curve" smooth="yes"/>
      <point x="384" y="185"/>
      <point x="309" y="47"/>
    </contour>
  </outline>
</glyph>
<glyph name="Aogonek" format="2">
  <advance width="499"/>
  <unicode hex="0104"/>
  <outline>
    <contour>
      <point x="407" y="-184" type="curve" smooth="yes"/>
      <point x="423" y="-184"/>
      <point x="439" y="-181"/>
      <point x="454" y="-178" type="curve"/>
      <point x="462" y="-132" type="line"/>
      <point x="455" y="-134"/>
      <point x="444" y="-135"/>
      <point x="434" y="-135" type="curve" smooth="yes"/>
      <point x="417" y="-135"/>
      <point x="403" y="-130"/>
      <point x="404" y="-108" type="curve" smooth="yes"/>
      <point x="405" y="-81"/>
      <point x="427" y="-48"/>
      <point x="486" y="0" type="curve"/>
      <point x="479" y="282"/>
      <point x="467" y="498"/>
      <point x="451" y="693" type="curve"/>
      <point x="387" y="693" type="line"/>
      <point x="268" y="487"/>
      <point x="141" y="244"/>
      <point x="18" y="0" type="curve"/>
      <point x="86" y="0" type="line"/>
      <point x="115" y="67"/>
      <point x="145" y="131"/>
      <point x="174" y="193" type="curve"/>
      <point x="418" y="193" type="line"/>
      <point x="419" y="128"/>
      <point x="421" y="64"/>
      <point x="422" y="0" type="curve"/>
      <point x="429" y="0" type="line"/>
      <point x="389" y="-29"/>
      <point x="349" y="-74"/>
      <point x="346" y="-121" type="curve" smooth="yes"/>
      <point x="344" y="-170"/>
      <point x="373" y="-184"/>
    </contour>
    <contour>
      <point x="207" y="247" type="line"/>
      <point x="268" y="373"/>
      <point x="333" y="495"/>
      <point x="399" y="620" type="curve"/>
      <point x="406" y="491"/>
      <point x="411" y="368"/>
      <point x="415" y="247" type="curve"/>
    </contour>
  </outline>
</glyph>
<glyph name="aogonek" format="1">
  <advance width="418"/>
  <unicode hex="0105"/>
  <outline>
    <contour>
      <point x="312" y="-184" type="curve" smooth="yes"/>
      <point x="328" y="-184"/>
      <point x="343" y="-181"/>
      <point x="359" y="-178" type="curve"/>
      <point x="367" y="-132" type="line"/>
      <point x="350" y="-138"/>
      <point x="312" y="-142"/>
      <point x="312" y="-107" type="curve" smooth="yes"/>
      <point x="311" y="-79"/>
      <point x="332" y="-40"/>
      <point x="383" y="11" type="curve"/>
      <point x="374" y="50"/>
      <point x="374" y="80"/>
      <point x="387" y="115" type="curve"/>
      <point x="385" y="138"/>
      <point x="389" y="165"/>
      <point x="399" y="195" type="curve"/>
      <point x="474" y="508" type="line"/>
      <point x="441" y="521"/>
      <point x="403" y="529"/>
      <point x="373" y="529" type="curve" smooth="yes"/>
      <point x="221" y="529"/>
      <point x="101" y="391"/>
      <point x="89" y="176" type="curve" smooth="yes"/>
      <point x="81" y="42"/>
      <point x="135" y="-13"/>
      <point x="205" y="-13" type="curve" smooth="yes"/>
      <point x="247" y="-13"/>
      <point x="288" y="8"/>
      <point x="325" y="54" type="curve"/>
      <point x="326" y="35"/>
      <point x="328" y="16"/>
      <point x="333" y="0" type="curve"/>
      <point x="294" y="-29"/>
      <point x="254" y="-74"/>
      <point x="251" y="-121" type="curve" smooth="yes"/>
      <point x="249" y="-170"/>
      <point x="278" y="-184"/>
    </contour>
    <contour>
      <point x="217" y="43" type="curve" smooth="yes"/>
      <point x="174" y="43"/>
      <point x="144" y="79"/>
      <point x="150" y="189" type="curve" smooth="yes"/>
      <point x="159" y="331"/>
      <point x="237" y="472"/>
      <point x="354" y="472" type="curve" smooth="yes"/>
      <point x="370" y="472"/>
      <point x="384" y="470"/>
      <point x="402" y="464" type="curve"/>
      <point x="350" y="247" type="line" smooth="yes"/>
      <point x="341" y="210"/>
      <point x="328" y="157"/>
      <point x="326" y="121" type="curve"/>
      <point x="291" y="71"/>
      <point x="256" y="43"/>
    </contour>
  </outline>
</glyph>
<glyph name="dcroat" format="2">
  <advance width="439"/>
  <unicode hex="0111"/>
  <outline>
    <contour>
      <point x="207" y="-10" type="curve" smooth="yes"/>
      <point x="250" y="-10"/>
      <point x="296" y="11"/>
      <point x="332" y="41" type="curve"/>
      <point x="335" y="24"/>
      <point x="340" y="11"/>
      <point x="345" y="-7" type="curve"/>
      <point x="402" y="3" type="line"/>
      <point x="389" y="49"/>
      <point x="380" y="88"/>
      <point x="401" y="179" type="curve" smooth="yes"/>
      <point x="510" y="633" type="line"/>
      <point x="583" y="633" type="line"/>
      <point x="594" y="679" type="line"/>
      <point x="521" y="679" type="line"/>
      <point x="544" y="776" type="line"/>
      <point x="482" y="765" type="line"/>
      <point x="462" y="679" type="line"/>
      <point x="345" y="679" type="line"/>
      <point x="334" y="633" type="line"/>
      <point x="451" y="633" type="line"/>
      <point x="423" y="521" type="line"/>
      <point x="405" y="528"/>
      <point x="381" y="533"/>
      <point x="360" y="533" type="curve" smooth="yes"/>
      <point x="216" y="533"/>
      <point x="93" y="359"/>
      <point x="93" y="146" type="curve" smooth="yes"/>
      <point x="93" y="47"/>
      <point x="131" y="-10"/>
    </contour>
    <contour>
      <point x="223" y="43" type="curve" smooth="yes"/>
      <point x="177" y="43"/>
      <point x="154" y="76"/>
      <point x="154" y="150" type="curve" smooth="yes"/>
      <point x="154" y="324"/>
      <point x="248" y="480"/>
      <point x="350" y="480" type="curve" smooth="yes"/>
      <point x="372" y="480"/>
      <point x="393" y="476"/>
      <point x="411" y="471" type="curve"/>
      <point x="345" y="199" type="line" smooth="yes"/>
      <point x="334" y="152"/>
      <point x="328" y="119"/>
      <point x="327" y="94" type="curve"/>
      <point x="295" y="62"/>
      <point x="257" y="43"/>
    </contour>
  </outline>
</glyph>
<glyph name="Eogonek" format="2">
  <advance width="427"/>
  <unicode hex="0118"/>
  <outline>
    <contour>
      <point x="314" y="-192" type="curve" smooth="yes"/>
      <point x="332" y="-192"/>
      <point x="351" y="-189"/>
      <point x="368" y="-183" type="curve"/>
      <point x="373" y="-139" type="line"/>
      <point x="357" y="-144"/>
      <point x="346" y="-145"/>
      <point x="335" y="-145" type="curve" smooth="yes"/>
      <point x="316" y="-145"/>
      <point x="306" y="-134"/>
      <point x="306" y="-114" type="curve" smooth="yes"/>
      <point x="306" y="-77"/>
      <point x="335" y="-39"/>
      <point x="394" y="0" type="curve"/>
      <point x="407" y="54" type="line"/>
      <point x="159" y="54" type="line"/>
      <point x="228" y="338" type="line"/>
      <point x="432" y="338" type="line"/>
      <point x="445" y="392" type="line"/>
      <point x="240" y="392" type="line"/>
      <point x="300" y="639" type="line"/>
      <point x="529" y="639" type="line"/>
      <point x="541" y="693" type="line"/>
      <point x="250" y="693" type="line"/>
      <point x="84" y="0" type="line"/>
      <point x="338" y="0" type="line"/>
      <point x="279" y="-41"/>
      <point x="251" y="-83"/>
      <point x="251" y="-129" type="curve" smooth="yes"/>
      <point x="251" y="-168"/>
      <point x="274" y="-192"/>
    </contour>
  </outline>
</glyph>
<glyph name="eogonek" format="2">
  <advance width="389"/>
  <unicode hex="0119"/>
  <outline>
    <contour>
      <point x="256" y="-184" type="curve" smooth="yes"/>
      <point x="271" y="-184"/>
      <point x="286" y="-181"/>
      <point x="302" y="-178" type="curve"/>
      <point x="310" y="-132" type="line"/>
      <point x="303" y="-134"/>
      <point x="292" y="-135"/>
      <point x="282" y="-135" type="curve" smooth="yes"/>
      <point x="266" y="-135"/>
      <point x="250" y="-130"/>
      <point x="252" y="-108" type="curve" smooth="yes"/>
      <point x="254" y="-71"/>
      <point x="285" y="-35"/>
      <point x="358" y="29" type="curve"/>
      <point x="355" y="86" type="line"/>
      <point x="322" y="57"/>
      <point x="283" y="44"/>
      <point x="248" y="44" type="curve" smooth="yes"/>
      <point x="161" y="44"/>
      <point x="143" y="107"/>
      <point x="149" y="201" type="curve"/>
      <point x="320" y="212"/>
      <point x="437" y="240"/>
      <point x="446" y="397" type="curve" smooth="yes"/>
      <point x="451" y="476"/>
      <point x="411" y="528"/>
      <point x="340" y="528" type="curve" smooth="yes"/>
      <point x="194" y="528"/>
      <point x="98" y="348"/>
      <point x="89" y="177" type="curve" smooth="yes"/>
      <point x="82" y="63"/>
      <point x="118" y="-12"/>
      <point x="232" y="-12" type="curve" smooth="yes"/>
      <point x="243" y="-12"/>
      <point x="255" y="-10"/>
      <point x="266" y="-8" type="curve"/>
      <point x="230" y="-36"/>
      <point x="197" y="-78"/>
      <point x="194" y="-121" type="curve" smooth="yes"/>
      <point x="191" y="-170"/>
      <point x="221" y="-184"/>
    </contour>
    <contour>
      <point x="159" y="261" type="curve"/>
      <point x="185" y="374"/>
      <point x="251" y="473"/>
      <point x="330" y="473" type="curve" smooth="yes"/>
      <point x="367" y="473"/>
      <point x="390" y="447"/>
      <point x="387" y="393" type="curve" smooth="yes"/>
      <point x="382" y="306"/>
      <point x="328" y="265"/>
    </contour>
  </outline>
</glyph>
<glyph name="Hbar" format="2">
  <advance width="558"/>
  <unicode hex="0126"/>
  <outline>
    <contour>
      <point x="89" y="0" type="line"/>
      <point x="152" y="0" type="line"/>
      <point x="232" y="334" type="line"/>
      <point x="486" y="334" type="line"/>
      <point x="406" y="0" type="line"/>
      <point x="469" y="0" type="line"/>
      <point x="595" y="528" type="line"/>
      <point x="662" y="528" type="line"/>
      <point x="674" y="576" type="line"/>
      <point x="606" y="576" type="line"/>
      <point x="635" y="693" type="line"/>
      <point x="572" y="693" type="line"/>
      <point x="544" y="576" type="line"/>
      <point x="290" y="576" type="line"/>
      <point x="318" y="693" type="line"/>
      <point x="255" y="693" type="line"/>
      <point x="226" y="576" type="line"/>
      <point x="160" y="576" type="line"/>
      <point x="149" y="528" type="line"/>
      <point x="215" y="528" type="line"/>
    </contour>
    <contour>
      <point x="245" y="390" type="line"/>
      <point x="278" y="528" type="line"/>
      <point x="532" y="528" type="line"/>
      <point x="500" y="390" type="line"/>
    </contour>
  </outline>
</glyph>
<glyph name="hbar" format="2">
  <advance width="442"/>
  <unicode hex="0127"/>
  <outline>
    <contour>
      <point x="74" y="0" type="line"/>
      <point x="134" y="0" type="line"/>
      <point x="246" y="466" type="line"/>
      <point x="271" y="474"/>
      <point x="301" y="481"/>
      <point x="325" y="481" type="curve" smooth="yes"/>
      <point x="381" y="481"/>
      <point x="408" y="456"/>
      <point x="408" y="396" type="curve" smooth="yes"/>
      <point x="408" y="373"/>
      <point x="404" y="345"/>
      <point x="395" y="310" type="curve" smooth="yes"/>
      <point x="321" y="0" type="line"/>
      <point x="381" y="0" type="line"/>
      <point x="457" y="317" type="line" smooth="yes"/>
      <point x="465" y="350"/>
      <point x="469" y="380"/>
      <point x="469" y="405" type="curve" smooth="yes"/>
      <point x="469" y="491"/>
      <point x="423" y="532"/>
      <point x="341" y="532" type="curve" smooth="yes"/>
      <point x="316" y="532"/>
      <point x="287" y="526"/>
      <point x="258" y="516" type="curve"/>
      <point x="286" y="633" type="line"/>
      <point x="402" y="633" type="line"/>
      <point x="413" y="679" type="line"/>
      <point x="297" y="679" type="line"/>
      <point x="320" y="776" type="line"/>
      <point x="258" y="765" type="line"/>
      <point x="238" y="679" type="line"/>
      <point x="168" y="679" type="line"/>
      <point x="157" y="633" type="line"/>
      <point x="227" y="633" type="line"/>
    </contour>
  </outline>
</glyph>
<glyph name="Iogonek" format="2">
  <advance width="231"/>
  <unicode hex="012E"/>
  <outline>
    <contour>
      <point x="69" y="-192" type="curve" smooth="yes"/>
      <point x="86" y="-192"/>
      <point x="105" y="-189"/>
      <point x="122" y="-183" type="curve"/>
      <point x="127" y="-139" type="line"/>
      <point x="111" y="-144"/>
      <point x="100" y="-145"/>
      <point x="89" y="-145" type="curve" smooth="yes"/>
      <point x="70" y="-145"/>
      <point x="60" y="-134"/>
      <point x="60" y="-114" type="curve" smooth="yes"/>
      <point x="60" y="-77"/>
      <point x="88" y="-39"/>
      <point x="147" y="0" type="curve"/>
      <point x="313" y="693" type="line"/>
      <point x="251" y="693" type="line"/>
      <point x="85" y="1" type="line"/>
      <point x="93" y="1" type="line"/>
      <point x="34" y="-41"/>
      <point x="5" y="-83"/>
      <point x="5" y="-129" type="curve" smooth="yes"/>
      <point x="5" y="-168"/>
      <point x="29" y="-192"/>
    </contour>
  </outline>
</glyph>
<glyph name="iogonek" format="2">
  <advance width="218"/>
  <unicode hex="012F"/>
  <outline>
    <contour>
      <point x="60" y="-192" type="curve" smooth="yes"/>
      <point x="77" y="-192"/>
      <point x="96" y="-189"/>
      <point x="114" y="-183" type="curve"/>
      <point x="118" y="-139" type="line"/>
      <point x="102" y="-144"/>
      <point x="91" y="-145"/>
      <point x="80" y="-145" type="curve" smooth="yes"/>
      <point x="61" y="-145"/>
      <point x="51" y="-134"/>
      <point x="51" y="-114" type="curve" smooth="yes"/>
      <point x="51" y="-77"/>
      <point x="80" y="-40"/>
      <point x="139" y="0" type="curve"/>
      <point x="264" y="521" type="line"/>
      <point x="204" y="521" type="line"/>
      <point x="80" y="2" type="line"/>
      <point x="87" y="2" type="line"/>
      <point x="26" y="-40"/>
      <point x="-4" y="-83"/>
      <point x="-4" y="-129" type="curve" smooth="yes"/>
      <point x="-4" y="-168"/>
      <point x="20" y="-192"/>
    </contour>
    <contour>
      <point x="265" y="625" type="curve" smooth="yes"/>
      <point x="291" y="625"/>
      <point x="314" y="648"/>
      <point x="314" y="678" type="curve" smooth="yes"/>
      <point x="314" y="700"/>
      <point x="297" y="716"/>
      <point x="276" y="716" type="curve" smooth="yes"/>
      <point x="248" y="716"/>
      <point x="227" y="691"/>
      <point x="227" y="663" type="curve" smooth="yes"/>
      <point x="227" y="641"/>
      <point x="243" y="625"/>
    </contour>
  </outline>
</glyph>
<glyph name="dotlessi" format="2">
  <advance width="219"/>
  <unicode hex="0131"/>
  <outline>
    <contour>
      <point x="79" y="0" type="line"/>
      <point x="140" y="0" type="line"/>
      <point x="265" y="521" type="line"/>
      <point x="204" y="521" type="line"/>
    </contour>
  </outline>
</glyph>
<glyph name="kgreenlandic" format="2">
  <advance width="403"/>
  <unicode hex="0138"/>
  <outline>
    <contour>
      <point x="77" y="0" type="line"/>
      <point x="138" y="0" type="line"/>
      <point x="199" y="257" type="line"/>
      <point x="245" y="205"/>
      <point x="296" y="119"/>
      <point x="333" y="0" type="curve"/>
      <point x="395" y="0" type="line"/>
      <point x="373" y="83"/>
      <point x="324" y="194"/>
      <point x="257" y="278" type="curve"/>
      <point x="326" y="340"/>
      <point x="443" y="461"/>
      <point x="479" y="521" type="curve"/>
      <point x="414" y="521" type="line"/>
      <point x="382" y="471"/>
      <point x="283" y="363"/>
      <point x="208" y="296" type="curve"/>
      <point x="263" y="521" type="line"/>
      <point x="203" y="521" type="line"/>
    </contour>
  </outline>
</glyph>
<glyph name="Lslash" format="2">
  <advance width="396"/>
  <unicode hex="0141"/>
  <outline>
    <contour>
      <point x="89" y="0" type="line"/>
      <point x="375" y="0" type="line"/>
      <point x="389" y="55" type="line"/>
      <point x="165" y="55" type="line"/>
      <point x="232" y="335" type="line"/>
      <point x="390" y="422" type="line"/>
      <point x="375" y="463" type="line"/>
      <point x="246" y="391" type="line"/>
      <point x="318" y="693" type="line"/>
      <point x="255" y="693" type="line"/>
      <point x="175" y="355" type="line"/>
      <point x="73" y="299" type="line"/>
      <point x="89" y="258" type="line"/>
      <point x="160" y="298" type="line"/>
    </contour>
  </outline>
</glyph>
<glyph name="lslash" format="1">
  <advance width="232"/>
  <unicode hex="0142"/>
  <outline>
    <contour>
      <point x="197" y="-9" type="curve"/>
      <point x="214" y="45" type="line"/>
      <point x="131" y="69"/>
      <point x="154" y="150"/>
      <point x="179" y="259" type="curve" smooth="yes"/>
      <point x="211" y="380" type="line"/>
      <point x="303" y="429" type="line"/>
      <point x="296" y="473" type="line"/>
      <point x="226" y="434" type="line"/>
      <point x="305" y="776" type="line"/>
      <point x="242" y="765" type="line"/>
      <point x="157" y="405" type="line"/>
      <point x="79" y="361" type="line"/>
      <point x="87" y="317" type="line"/>
      <point x="142" y="350" type="line"/>
      <point x="114" y="232" type="line" smooth="yes"/>
      <point x="85" y="109"/>
      <point x="80" y="1"/>
    </contour>
  </outline>
</glyph>
<glyph name="Eng" format="2">
  <advance width="557"/>
  <unicode hex="014A"/>
  <outline>
    <contour>
      <point x="329" y="-187" type="curve" smooth="yes"/>
      <point x="406" y="-187"/>
      <point x="442" y="-131"/>
      <point x="463" y="-44" type="curve" smooth="yes"/>
      <point x="639" y="693" type="line"/>
      <point x="578" y="693" type="line"/>
      <point x="446" y="142" type="line"/>
      <point x="407" y="343"/>
      <point x="357" y="539"/>
      <point x="308" y="693" type="curve"/>
      <point x="250" y="693" type="line"/>
      <point x="84" y="0" type="line"/>
      <point x="145" y="0" type="line"/>
      <point x="284" y="581" type="line"/>
      <point x="338" y="399"/>
      <point x="383" y="202"/>
      <point x="416" y="13" type="curve"/>
      <point x="401" y="-47" type="line" smooth="yes"/>
      <point x="389" y="-97"/>
      <point x="372" y="-133"/>
      <point x="330" y="-133" type="curve" smooth="yes"/>
      <point x="317" y="-133"/>
      <point x="300" y="-131"/>
      <point x="289" y="-127" type="curve"/>
      <point x="272" y="-177" type="line"/>
      <point x="286" y="-184"/>
      <point x="310" y="-187"/>
    </contour>
  </outline>
</glyph>
<glyph name="eng" format="2">
  <advance width="461"/>
  <unicode hex="014B"/>
  <outline>
    <contour>
      <point x="230" y="-189" type="curve" smooth="yes"/>
      <point x="315" y="-189"/>
      <point x="356" y="-130"/>
      <point x="384" y="-8" type="curve" smooth="yes"/>
      <point x="462" y="317" type="line" smooth="yes"/>
      <point x="497" y="463"/>
      <point x="456" y="531"/>
      <point x="336" y="531" type="curve" smooth="yes"/>
      <point x="295" y="531"/>
      <point x="244" y="521"/>
      <point x="201" y="506" type="curve"/>
      <point x="79" y="0" type="line"/>
      <point x="139" y="0" type="line"/>
      <point x="251" y="467" type="line"/>
      <point x="275" y="475"/>
      <point x="303" y="480"/>
      <point x="327" y="480" type="curve" smooth="yes"/>
      <point x="409" y="480"/>
      <point x="429" y="429"/>
      <point x="400" y="310" type="curve" smooth="yes"/>
      <point x="323" y="-14" type="line" smooth="yes"/>
      <point x="306" y="-84"/>
      <point x="280" y="-139"/>
      <point x="233" y="-139" type="curve" smooth="yes"/>
      <point x="216" y="-139"/>
      <point x="200" y="-134"/>
      <point x="186" y="-126" type="curve"/>
      <point x="169" y="-174" type="line"/>
      <point x="186" y="-183"/>
      <point x="208" y="-189"/>
    </contour>
  </outline>
</glyph>
<glyph name="OE" format="2">
  <advance width="729"/>
  <unicode hex="0152"/>
  <outline>
    <contour>
      <point x="308" y="-8" type="curve" smooth="yes"/>
      <point x="335" y="-8"/>
      <point x="369" y="-5"/>
      <point x="396" y="0" type="curve"/>
      <point x="702" y="0" type="line"/>
      <point x="714" y="54" type="line"/>
      <point x="467" y="54" type="line"/>
      <point x="535" y="338" type="line"/>
      <point x="740" y="338" type="line"/>
      <point x="752" y="392" type="line"/>
      <point x="548" y="392" type="line"/>
      <point x="608" y="639" type="line"/>
      <point x="836" y="639" type="line"/>
      <point x="849" y="693" type="line"/>
      <point x="558" y="693" type="line"/>
      <point x="535" y="698"/>
      <point x="509" y="702"/>
      <point x="477" y="702" type="curve" smooth="yes"/>
      <point x="290" y="702"/>
      <point x="127" y="479"/>
      <point x="127" y="209" type="curve" smooth="yes"/>
      <point x="127" y="68"/>
      <point x="188" y="-8"/>
    </contour>
    <contour>
      <point x="324" y="48" type="curve" smooth="yes"/>
      <point x="235" y="48"/>
      <point x="192" y="97"/>
      <point x="192" y="214" type="curve" smooth="yes"/>
      <point x="192" y="462"/>
      <point x="333" y="646"/>
      <point x="472" y="646" type="curve" smooth="yes"/>
      <point x="499" y="646"/>
      <point x="524" y="643"/>
      <point x="544" y="638" type="curve"/>
      <point x="405" y="55" type="line"/>
      <point x="381" y="50"/>
      <point x="346" y="48"/>
    </contour>
  </outline>
</glyph>
<glyph name="oe" format="2">
  <advance width="656"/>
  <unicode hex="0153"/>
  <outline>
    <contour>
      <point x="219" y="-10" type="curve" smooth="yes"/>
      <point x="281" y="-10"/>
      <point x="337" y="35"/>
      <point x="376" y="105" type="curve"/>
      <point x="387" y="24"/>
      <point x="426" y="-11"/>
      <point x="500" y="-11" type="curve" smooth="yes"/>
      <point x="548" y="-11"/>
      <point x="595" y="6"/>
      <point x="628" y="30" type="curve"/>
      <point x="621" y="79" type="line"/>
      <point x="591" y="56"/>
      <point x="551" y="41"/>
      <point x="517" y="41" type="curve" smooth="yes"/>
      <point x="453" y="41"/>
      <point x="428" y="67"/>
      <point x="428" y="159" type="curve" smooth="yes"/>
      <point x="428" y="177"/>
      <point x="429" y="199"/>
      <point x="432" y="216" type="curve"/>
      <point x="601" y="224"/>
      <point x="710" y="294"/>
      <point x="712" y="422" type="curve" smooth="yes"/>
      <point x="713" y="490"/>
      <point x="672" y="534"/>
      <point x="607" y="534" type="curve" smooth="yes"/>
      <point x="541" y="534"/>
      <point x="483" y="489"/>
      <point x="441" y="419" type="curve"/>
      <point x="431" y="493"/>
      <point x="393" y="533"/>
      <point x="329" y="533" type="curve" smooth="yes"/>
      <point x="196" y="533"/>
      <point x="96" y="350"/>
      <point x="96" y="147" type="curve" smooth="yes"/>
      <point x="96" y="46"/>
      <point x="138" y="-10"/>
    </contour>
    <contour>
      <point x="225" y="42" type="curve" smooth="yes"/>
      <point x="177" y="42"/>
      <point x="158" y="75"/>
      <point x="158" y="147" type="curve" smooth="yes"/>
      <point x="158" y="305"/>
      <point x="230" y="480"/>
      <point x="322" y="480" type="curve" smooth="yes"/>
      <point x="369" y="480"/>
      <point x="389" y="448"/>
      <point x="389" y="379" type="curve" smooth="yes"/>
      <point x="389" y="217"/>
      <point x="317" y="42"/>
    </contour>
    <contour>
      <point x="437" y="263" type="curve"/>
      <point x="461" y="390"/>
      <point x="525" y="482"/>
      <point x="598" y="482" type="curve" smooth="yes"/>
      <point x="633" y="482"/>
      <point x="655" y="457"/>
      <point x="655" y="418" type="curve" smooth="yes"/>
      <point x="655" y="333"/>
      <point x="578" y="270"/>
    </contour>
  </outline>
</glyph>
<glyph name="Scedilla" format="2">
  <advance width="392"/>
  <unicode hex="015E"/>
  <outline>
    <contour>
      <point x="128" y="-185" type="curve" smooth="yes"/>
      <point x="177" y="-185"/>
      <point x="218" y="-154"/>
      <point x="221" y="-102" type="curve" smooth="yes"/>
      <point x="223" y="-69"/>
      <point x="214" y="-55"/>
      <point x="191" y="-38" type="curve"/>
      <point x="195" y="-31"/>
      <point x="199" y="-22"/>
      <point x="205" y="-13" type="curve"/>
      <point x="334" y="-2"/>
      <point x="400" y="101"/>
      <point x="405" y="198" type="curve" smooth="yes"/>
      <point x="412" y="319"/>
      <point x="349" y="352"/>
      <point x="295" y="390" type="curve" smooth="yes"/>
      <point x="255" y="417"/>
      <point x="223" y="448"/>
      <point x="227" y="518" type="curve" smooth="yes"/>
      <point x="232" y="617"/>
      <point x="295" y="655"/>
      <point x="359" y="655" type="curve" smooth="yes"/>
      <point x="399" y="655"/>
      <point x="434" y="645"/>
      <point x="466" y="617" type="curve"/>
      <point x="500" y="670" type="line"/>
      <point x="458" y="700"/>
      <point x="418" y="708"/>
      <point x="370" y="708" type="curve" smooth="yes"/>
      <point x="235" y="708"/>
      <point x="166" y="607"/>
      <point x="161" y="511" type="curve" smooth="yes"/>
      <point x="155" y="403"/>
      <point x="208" y="366"/>
      <point x="260" y="331" type="curve" smooth="yes"/>
      <point x="303" y="300"/>
      <point x="345" y="270"/>
      <point x="340" y="195" type="curve" smooth="yes"/>
      <point x="334" y="85"/>
      <point x="263" y="39"/>
      <point x="193" y="39" type="curve" smooth="yes"/>
      <point x="147" y="39"/>
      <point x="102" y="59"/>
      <point x="74" y="88" type="curve"/>
      <point x="41" y="33" type="line"/>
      <point x="73" y="3"/>
      <point x="116" y="-12"/>
      <point x="162" y="-14" type="curve"/>
      <point x="152" y="-33"/>
      <point x="140" y="-51"/>
      <point x="134" y="-66" type="curve"/>
      <point x="161" y="-81"/>
      <point x="169" y="-90"/>
      <point x="168" y="-111" type="curve" smooth="yes"/>
      <point x="166" y="-133"/>
      <point x="151" y="-142"/>
      <point x="128" y="-142" type="curve" smooth="yes"/>
      <point x="114" y="-142"/>
      <point x="100" y="-139"/>
      <point x="89" y="-133" type="curve"/>
      <point x="71" y="-173" type="line"/>
      <point x="90" y="-184"/>
      <point x="109" y="-185"/>
    </contour>
  </outline>
</glyph>
<glyph name="scedilla" format="2">
  <advance width="328"/>
  <unicode hex="015F"/>
  <outline>
    <contour>
      <point x="117" y="-192" type="curve" smooth="yes"/>
      <point x="179" y="-192"/>
      <point x="224" y="-155"/>
      <point x="224" y="-102" type="curve" smooth="yes"/>
      <point x="224" y="-78"/>
      <point x="212" y="-56"/>
      <point x="180" y="-39" type="curve"/>
      <point x="189" y="-25"/>
      <point x="197" y="-14"/>
      <point x="203" y="-4" type="curve"/>
      <point x="278" y="15"/>
      <point x="328" y="77"/>
      <point x="328" y="158" type="curve" smooth="yes"/>
      <point x="328" y="214"/>
      <point x="311" y="240"/>
      <point x="257" y="283" type="curve" smooth="yes"/>
      <point x="208" y="321"/>
      <point x="192" y="342"/>
      <point x="192" y="380" type="curve" smooth="yes"/>
      <point x="192" y="441"/>
      <point x="233" y="482"/>
      <point x="294" y="482" type="curve" smooth="yes"/>
      <point x="318" y="482"/>
      <point x="345" y="477"/>
      <point x="368" y="466" type="curve"/>
      <point x="388" y="516" type="line"/>
      <point x="367" y="526"/>
      <point x="337" y="534"/>
      <point x="301" y="534" type="curve" smooth="yes"/>
      <point x="202" y="534"/>
      <point x="132" y="464"/>
      <point x="132" y="370" type="curve" smooth="yes"/>
      <point x="132" y="314"/>
      <point x="152" y="288"/>
      <point x="205" y="248" type="curve" smooth="yes"/>
      <point x="253" y="211"/>
      <point x="268" y="190"/>
      <point x="268" y="151" type="curve" smooth="yes"/>
      <point x="268" y="86"/>
      <point x="225" y="40"/>
      <point x="156" y="40" type="curve" smooth="yes"/>
      <point x="128" y="40"/>
      <point x="94" y="48"/>
      <point x="64" y="62" type="curve"/>
      <point x="43" y="12" type="line"/>
      <point x="76" y="-4"/>
      <point x="110" y="-10"/>
      <point x="153" y="-11" type="curve"/>
      <point x="143" y="-25"/>
      <point x="134" y="-42"/>
      <point x="124" y="-57" type="curve"/>
      <point x="159" y="-68"/>
      <point x="173" y="-84"/>
      <point x="173" y="-105" type="curve" smooth="yes"/>
      <point x="173" y="-133"/>
      <point x="153" y="-149"/>
      <point x="122" y="-149" type="curve" smooth="yes"/>
      <point x="106" y="-149"/>
      <point x="86" y="-146"/>
      <point x="71" y="-141" type="curve"/>
      <point x="57" y="-182" type="line"/>
      <point x="75" y="-188"/>
      <point x="95" y="-192"/>
    </contour>
  </outline>
</glyph>
<glyph name="uni0162" format="1">
  <advance width="419"/>
  <unicode hex="0162"/>
  <outline>
    <contour>
      <point x="146" y="-185" type="curve" smooth="yes"/>
      <point x="195" y="-185"/>
      <point x="237" y="-154"/>
      <point x="239" y="-102" type="curve" smooth="yes"/>
      <point x="241" y="-69"/>
      <point x="232" y="-55"/>
      <point x="209" y="-38" type="curve"/>
      <point x="215" y="-28"/>
      <point x="223" y="-13"/>
      <point x="232" y="0" type="curve"/>
      <point x="240" y="0" type="line"/>
      <point x="391" y="639" type="line"/>
      <point x="553" y="639" type="line"/>
      <point x="568" y="693" type="line"/>
      <point x="182" y="693" type="line"/>
      <point x="166" y="639" type="line"/>
      <point x="328" y="639" type="line"/>
      <point x="177" y="0" type="line"/>
      <point x="189" y="0" type="line"/>
      <point x="177" y="-19"/>
      <point x="160" y="-47"/>
      <point x="152" y="-66" type="curve"/>
      <point x="180" y="-81"/>
      <point x="187" y="-90"/>
      <point x="186" y="-111" type="curve" smooth="yes"/>
      <point x="185" y="-133"/>
      <point x="169" y="-142"/>
      <point x="146" y="-142" type="curve" smooth="yes"/>
      <point x="133" y="-142"/>
      <point x="119" y="-139"/>
      <point x="107" y="-133" type="curve"/>
      <point x="89" y="-173" type="line"/>
      <point x="109" y="-184"/>
      <point x="127" y="-185"/>
    </contour>
  </outline>
</glyph>
<glyph name="uni0163" format="1">
  <advance width="303"/>
  <unicode hex="0163"/>
  <outline>
    <contour>
      <point x="130" y="-185" type="curve" smooth="yes"/>
      <point x="180" y="-185"/>
      <point x="221" y="-154"/>
      <point x="224" y="-102" type="curve" smooth="yes"/>
      <point x="226" y="-69"/>
      <point x="216" y="-55"/>
      <point x="193" y="-38" type="curve"/>
      <point x="197" y="-31"/>
      <point x="203" y="-21"/>
      <point x="208" y="-11" type="curve"/>
      <point x="240" y="-9"/>
      <point x="269" y="2"/>
      <point x="294" y="15" type="curve"/>
      <point x="292" y="70" type="line"/>
      <point x="264" y="54"/>
      <point x="242" y="44"/>
      <point x="211" y="44" type="curve" smooth="yes"/>
      <point x="144" y="44"/>
      <point x="151" y="127"/>
      <point x="171" y="208" type="curve" smooth="yes"/>
      <point x="230" y="464" type="line"/>
      <point x="369" y="464" type="line"/>
      <point x="384" y="517" type="line"/>
      <point x="245" y="517" type="line"/>
      <point x="285" y="681" type="line"/>
      <point x="221" y="670" type="line"/>
      <point x="111" y="206" type="line" smooth="yes"/>
      <point x="86" y="107"/>
      <point x="79" y="5"/>
      <point x="167" y="-10" type="curve"/>
      <point x="156" y="-28"/>
      <point x="143" y="-50"/>
      <point x="136" y="-66" type="curve"/>
      <point x="164" y="-81"/>
      <point x="171" y="-90"/>
      <point x="170" y="-111" type="curve" smooth="yes"/>
      <point x="168" y="-133"/>
      <point x="154" y="-142"/>
      <point x="130" y="-142" type="curve" smooth="yes"/>
      <point x="117" y="-142"/>
      <point x="103" y="-139"/>
      <point x="92" y="-133" type="curve"/>
      <point x="73" y="-173" type="line"/>
      <point x="93" y="-184"/>
      <point x="111" y="-185"/>
    </contour>
  </outline>
</glyph>
<glyph name="Tbar" format="2">
  <advance width="415"/>
  <unicode hex="0166"/>
  <outline>
    <contour>
      <point x="176" y="0" type="line"/>
      <point x="238" y="0" type="line"/>
      <point x="317" y="325" type="line"/>
      <point x="396" y="325" type="line"/>
      <point x="408" y="374" type="line"/>
      <point x="328" y="374" type="line"/>
      <point x="392" y="638" type="line"/>
      <point x="545" y="638" type="line"/>
      <point x="558" y="693" type="line"/>
      <point x="189" y="693" type="line"/>
      <point x="176" y="638" type="line"/>
      <point x="329" y="638" type="line"/>
      <point x="266" y="374" type="line"/>
      <point x="185" y="374" type="line"/>
      <point x="174" y="325" type="line"/>
      <point x="254" y="325" type="line"/>
    </contour>
  </outline>
</glyph>
<glyph name="tbar" format="1">
  <advance width="303"/>
  <unicode hex="0167"/>
  <outline>
    <contour>
      <point x="192" y="-12" type="curve" smooth="yes"/>
      <point x="228" y="-12"/>
      <point x="265" y="0"/>
      <point x="294" y="15" type="curve"/>
      <point x="292" y="70" type="line"/>
      <point x="264" y="54"/>
      <point x="242" y="44"/>
      <point x="211" y="44" type="curve" smooth="yes"/>
      <point x="144" y="44"/>
      <point x="151" y="127"/>
      <point x="171" y="208" type="curve" smooth="yes"/>
      <point x="179" y="246" type="line"/>
      <point x="321" y="246" type="line"/>
      <point x="334" y="295" type="line"/>
      <point x="192" y="295" type="line"/>
      <point x="230" y="464" type="line"/>
      <point x="369" y="464" type="line"/>
      <point x="384" y="517" type="line"/>
      <point x="245" y="517" type="line"/>
      <point x="285" y="681" type="line"/>
      <point x="221" y="670" type="line"/>
      <point x="111" y="206" type="line" smooth="yes"/>
      <point x="81" y="87"/>
      <point x="84" y="-12"/>
    </contour>
  </outline>
</glyph>
<glyph name="Uogonek" format="2">
  <advance width="528"/>
  <unicode hex="0172"/>
  <outline>
    <contour>
      <point x="276" y="-192" type="curve" smooth="yes"/>
      <point x="294" y="-192"/>
      <point x="312" y="-189"/>
      <point x="330" y="-183" type="curve"/>
      <point x="334" y="-139" type="line"/>
      <point x="318" y="-144"/>
      <point x="307" y="-145"/>
      <point x="297" y="-145" type="curve" smooth="yes"/>
      <point x="277" y="-145"/>
      <point x="267" y="-134"/>
      <point x="267" y="-114" type="curve" smooth="yes"/>
      <point x="267" y="-75"/>
      <point x="299" y="-36"/>
      <point x="364" y="7" type="curve"/>
      <point x="434" y="35"/>
      <point x="476" y="105"/>
      <point x="502" y="213" type="curve" smooth="yes"/>
      <point x="616" y="693" type="line"/>
      <point x="553" y="693" type="line"/>
      <point x="438" y="212" type="line" smooth="yes"/>
      <point x="411" y="100"/>
      <point x="368" y="47"/>
      <point x="284" y="47" type="curve" smooth="yes"/>
      <point x="218" y="47"/>
      <point x="183" y="78"/>
      <point x="183" y="144" type="curve" smooth="yes"/>
      <point x="183" y="164"/>
      <point x="186" y="187"/>
      <point x="192" y="213" type="curve" smooth="yes"/>
      <point x="308" y="693" type="line"/>
      <point x="245" y="693" type="line"/>
      <point x="130" y="216" type="line" smooth="yes"/>
      <point x="123" y="186"/>
      <point x="120" y="158"/>
      <point x="120" y="134" type="curve" smooth="yes"/>
      <point x="120" y="34"/>
      <point x="186" y="-12"/>
      <point x="287" y="-8" type="curve"/>
      <point x="237" y="-47"/>
      <point x="212" y="-87"/>
      <point x="212" y="-129" type="curve" smooth="yes"/>
      <point x="212" y="-168"/>
      <point x="236" y="-192"/>
    </contour>
  </outline>
</glyph>
<glyph name="uogonek" format="2">
  <advance width="458"/>
  <unicode hex="0173"/>
  <outline>
    <contour>
      <point x="333" y="-192" type="curve" smooth="yes"/>
      <point x="351" y="-192"/>
      <point x="369" y="-189"/>
      <point x="387" y="-183" type="curve"/>
      <point x="391" y="-139" type="line"/>
      <point x="375" y="-144"/>
      <point x="364" y="-145"/>
      <point x="354" y="-145" type="curve" smooth="yes"/>
      <point x="334" y="-145"/>
      <point x="324" y="-134"/>
      <point x="324" y="-114" type="curve" smooth="yes"/>
      <point x="324" y="-76"/>
      <point x="355" y="-37"/>
      <point x="418" y="3" type="curve"/>
      <point x="411" y="29"/>
      <point x="404" y="53"/>
      <point x="404" y="85" type="curve" smooth="yes"/>
      <point x="404" y="110"/>
      <point x="408" y="141"/>
      <point x="417" y="179" type="curve" smooth="yes"/>
      <point x="499" y="521" type="line"/>
      <point x="439" y="521" type="line"/>
      <point x="361" y="199" type="line" smooth="yes"/>
      <point x="350" y="153"/>
      <point x="344" y="120"/>
      <point x="343" y="94" type="curve"/>
      <point x="311" y="63"/>
      <point x="276" y="42"/>
      <point x="244" y="42" type="curve" smooth="yes"/>
      <point x="170" y="42"/>
      <point x="152" y="95"/>
      <point x="181" y="211" type="curve" smooth="yes"/>
      <point x="256" y="521" type="line"/>
      <point x="195" y="521" type="line"/>
      <point x="119" y="204" type="line" smooth="yes"/>
      <point x="85" y="63"/>
      <point x="127" y="-10"/>
      <point x="227" y="-10" type="curve" smooth="yes"/>
      <point x="269" y="-10"/>
      <point x="312" y="12"/>
      <point x="349" y="41" type="curve"/>
      <point x="351" y="27"/>
      <point x="354" y="15"/>
      <point x="359" y="1" type="curve"/>
      <point x="298" y="-41"/>
      <point x="269" y="-83"/>
      <point x="269" y="-129" type="curve" smooth="yes"/>
      <point x="269" y="-168"/>
      <point x="293" y="-192"/>
    </contour>
  </outline>
</glyph>
<glyph name="longs" format="2">
  <advance width="230"/>
  <unicode hex="017F"/>
  <outline>
    <contour>
      <point x="49" y="-189" type="line"/>
      <point x="101" y="-125"/>
      <point x="130" y="-55"/>
      <point x="156" y="54" type="curve" smooth="yes"/>
      <point x="285" y="591" type="line" smooth="yes"/>
      <point x="310" y="692"/>
      <point x="348" y="724"/>
      <point x="400" y="724" type="curve" smooth="yes"/>
      <point x="426" y="724"/>
      <point x="443" y="718"/>
      <point x="462" y="711" type="curve"/>
      <point x="483" y="762" type="line"/>
      <point x="463" y="770"/>
      <point x="441" y="776"/>
      <point x="409" y="776" type="curve" smooth="yes"/>
      <point x="331" y="776"/>
      <point x="260" y="738"/>
      <point x="226" y="593" type="curve" smooth="yes"/>
      <point x="88" y="24" type="line" smooth="yes"/>
      <point x="69" y="-56"/>
      <point x="42" y="-119"/>
      <point x="-5" y="-179" type="curve"/>
    </contour>
  </outline>
</glyph>
<glyph name="uni0180" format="2">
  <advance width="444"/>
  <unicode hex="0180"/>
  <outline>
    <contour>
      <point x="196" y="-10" type="curve" smooth="yes"/>
      <point x="349" y="-10"/>
      <point x="470" y="161"/>
      <point x="470" y="370" type="curve" smooth="yes"/>
      <point x="470" y="470"/>
      <point x="433" y="527"/>
      <point x="352" y="527" type="curve" smooth="yes"/>
      <point x="323" y="527"/>
      <point x="288" y="517"/>
      <point x="254" y="490" type="curve"/>
      <point x="288" y="633" type="line"/>
      <point x="414" y="633" type="line"/>
      <point x="425" y="678" type="line"/>
      <point x="299" y="678" type="line"/>
      <point x="322" y="776" type="line"/>
      <point x="260" y="765" type="line"/>
      <point x="239" y="678" type="line"/>
      <point x="168" y="678" type="line"/>
      <point x="157" y="633" type="line"/>
      <point x="229" y="633" type="line"/>
      <point x="80" y="16" type="line"/>
      <point x="113" y="0"/>
      <point x="161" y="-10"/>
    </contour>
    <contour>
      <point x="213" y="42" type="curve" smooth="yes"/>
      <point x="190" y="42"/>
      <point x="167" y="46"/>
      <point x="149" y="54" type="curve"/>
      <point x="239" y="428" type="line"/>
      <point x="271" y="458"/>
      <point x="307" y="474"/>
      <point x="337" y="474" type="curve" smooth="yes"/>
      <point x="388" y="474"/>
      <point x="409" y="440"/>
      <point x="409" y="366" type="curve" smooth="yes"/>
      <point x="409" y="196"/>
      <point x="316" y="42"/>
    </contour>
  </outline>
</glyph>
<glyph name="uni0181" format="2">
  <advance width="543"/>
  <unicode hex="0181"/>
  <outline>
    <contour>
      <point x="270" y="-4" type="curve" smooth="yes"/>
      <point x="453" y="-4"/>
      <point x="543" y="92"/>
      <point x="543" y="223" type="curve" smooth="yes"/>
      <point x="543" y="284"/>
      <point x="513" y="333"/>
      <point x="446" y="359" type="curve"/>
      <point x="567" y="394"/>
      <point x="603" y="487"/>
      <point x="603" y="564" type="curve" smooth="yes"/>
      <point x="603" y="652"/>
      <point x="541" y="699"/>
      <point x="415" y="699" type="curve" smooth="yes"/>
      <point x="196" y="699"/>
      <point x="131" y="606"/>
      <point x="128" y="492" type="curve"/>
      <point x="180" y="497" type="line"/>
      <point x="183" y="567"/>
      <point x="210" y="613"/>
      <point x="280" y="632" type="curve"/>
      <point x="131" y="11" type="line"/>
      <point x="174" y="1"/>
      <point x="224" y="-4"/>
    </contour>
    <contour>
      <point x="282" y="50" type="curve" smooth="yes"/>
      <point x="258" y="50"/>
      <point x="228" y="53"/>
      <point x="205" y="57" type="curve"/>
      <point x="271" y="333" type="line"/>
      <point x="345" y="333" type="line" smooth="yes"/>
      <point x="432" y="333"/>
      <point x="477" y="293"/>
      <point x="477" y="219" type="curve" smooth="yes"/>
      <point x="477" y="112"/>
      <point x="412" y="50"/>
    </contour>
    <contour>
      <point x="284" y="386" type="line"/>
      <point x="345" y="638" type="line"/>
      <point x="365" y="642"/>
      <point x="391" y="645"/>
      <point x="415" y="645" type="curve" smooth="yes"/>
      <point x="498" y="645"/>
      <point x="537" y="618"/>
      <point x="537" y="554" type="curve" smooth="yes"/>
      <point x="537" y="476"/>
      <point x="495" y="386"/>
      <point x="363" y="386" type="curve" smooth="yes"/>
    </contour>
  </outline>
</glyph>
<glyph name="uni0182" format="2">
  <advance width="466"/>
  <unicode hex="0182"/>
  <outline>
    <contour>
      <point x="206" y="-7" type="curve" smooth="yes"/>
      <point x="363" y="-7"/>
      <point x="467" y="95"/>
      <point x="476" y="258" type="curve" smooth="yes"/>
      <point x="483" y="379"/>
      <point x="415" y="422"/>
      <point x="297" y="422" type="curve" smooth="yes"/>
      <point x="228" y="422" type="line"/>
      <point x="277" y="638" type="line"/>
      <point x="522" y="638" type="line"/>
      <point x="537" y="693" type="line"/>
      <point x="231" y="693" type="line"/>
      <point x="67" y="13" type="line"/>
      <point x="103" y="1"/>
      <point x="164" y="-7"/>
    </contour>
    <contour>
      <point x="206" y="48" type="curve" smooth="yes"/>
      <point x="186" y="48"/>
      <point x="149" y="54"/>
      <point x="142" y="56" type="curve"/>
      <point x="213" y="369" type="line"/>
      <point x="288" y="369" type="line" smooth="yes"/>
      <point x="355" y="369"/>
      <point x="417" y="355"/>
      <point x="411" y="254" type="curve" smooth="yes"/>
      <point x="401" y="81"/>
      <point x="303" y="48"/>
    </contour>
  </outline>
</glyph>
<glyph name="uni0183" format="2">
  <advance width="437"/>
  <unicode hex="0183"/>
  <outline>
    <contour>
      <point x="194" y="-10" type="curve" smooth="yes"/>
      <point x="347" y="-10"/>
      <point x="468" y="164"/>
      <point x="470" y="375" type="curve" smooth="yes"/>
      <point x="470" y="476"/>
      <point x="432" y="533"/>
      <point x="351" y="533" type="curve" smooth="yes"/>
      <point x="321" y="533"/>
      <point x="288" y="522"/>
      <point x="253" y="495" type="curve"/>
      <point x="307" y="722" type="line"/>
      <point x="504" y="722" type="line"/>
      <point x="516" y="774" type="line"/>
      <point x="260" y="774" type="line"/>
      <point x="78" y="16" type="line"/>
      <point x="111" y="0"/>
      <point x="159" y="-10"/>
    </contour>
    <contour>
      <point x="210" y="42" type="curve" smooth="yes"/>
      <point x="187" y="42"/>
      <point x="165" y="46"/>
      <point x="147" y="54" type="curve"/>
      <point x="237" y="432" type="line"/>
      <point x="270" y="463"/>
      <point x="305" y="480"/>
      <point x="337" y="480" type="curve" smooth="yes"/>
      <point x="388" y="480"/>
      <point x="408" y="446"/>
      <point x="408" y="372" type="curve" smooth="yes"/>
      <point x="408" y="199"/>
      <point x="314" y="42"/>
    </contour>
  </outline>
</glyph>
<glyph name="uni0184" format="2">
  <advance width="448"/>
  <unicode hex="0184"/>
  <outline>
    <contour>
      <point x="201" y="-10" type="curve" smooth="yes"/>
      <point x="354" y="-10"/>
      <point x="475" y="164"/>
      <point x="476" y="375" type="curve" smooth="yes"/>
      <point x="477" y="476"/>
      <point x="439" y="533"/>
      <point x="357" y="533" type="curve" smooth="yes"/>
      <point x="328" y="533"/>
      <point x="294" y="522"/>
      <point x="259" y="495" type="curve"/>
      <point x="327" y="776" type="line"/>
      <point x="283" y="764"/>
      <point x="249" y="748"/>
      <point x="208" y="723" type="curve"/>
      <point x="237" y="651" type="line"/>
      <point x="84" y="16" type="line"/>
      <point x="117" y="0"/>
      <point x="165" y="-10"/>
    </contour>
    <contour>
      <point x="217" y="42" type="curve" smooth="yes"/>
      <point x="194" y="42"/>
      <point x="171" y="46"/>
      <point x="154" y="54" type="curve"/>
      <point x="244" y="432" type="line"/>
      <point x="276" y="463"/>
      <point x="312" y="480"/>
      <point x="343" y="480" type="curve" smooth="yes"/>
      <point x="394" y="480"/>
      <point x="414" y="446"/>
      <point x="414" y="372" type="curve" smooth="yes"/>
      <point x="414" y="199"/>
      <point x="320" y="42"/>
    </contour>
  </outline>
</glyph>
<glyph name="uni0185" format="2">
  <advance width="477"/>
  <unicode hex="0185"/>
  <outline>
    <contour>
      <point x="216" y="-7" type="curve" smooth="yes"/>
      <point x="379" y="-7"/>
      <point x="493" y="112"/>
      <point x="493" y="261" type="curve" smooth="yes"/>
      <point x="493" y="368"/>
      <point x="429" y="427"/>
      <point x="314" y="427" type="curve" smooth="yes"/>
      <point x="293" y="427"/>
      <point x="272" y="426"/>
      <point x="249" y="424" type="curve"/>
      <point x="315" y="697" type="line"/>
      <point x="274" y="687"/>
      <point x="228" y="666"/>
      <point x="193" y="645" type="curve"/>
      <point x="223" y="571" type="line"/>
      <point x="88" y="7" type="line"/>
      <point x="129" y="-3"/>
      <point x="177" y="-7"/>
    </contour>
    <contour>
      <point x="226" y="49" type="curve" smooth="yes"/>
      <point x="205" y="49"/>
      <point x="180" y="50"/>
      <point x="161" y="55" type="curve"/>
      <point x="236" y="368" type="line"/>
      <point x="258" y="371"/>
      <point x="280" y="372"/>
      <point x="301" y="372" type="curve" smooth="yes"/>
      <point x="389" y="372"/>
      <point x="427" y="331"/>
      <point x="427" y="263" type="curve" smooth="yes"/>
      <point x="427" y="153"/>
      <point x="353" y="49"/>
    </contour>
  </outline>
</glyph>
<glyph name="uni0186" format="2">
  <advance width="459"/>
  <unicode hex="0186"/>
  <outline>
    <contour>
      <point x="147" y="-10" type="curve" smooth="yes"/>
      <point x="347" y="-10"/>
      <point x="494" y="217"/>
      <point x="494" y="492" type="curve" smooth="yes"/>
      <point x="494" y="628"/>
      <point x="435" y="704"/>
      <point x="321" y="704" type="curve" smooth="yes"/>
      <point x="271" y="704"/>
      <point x="227" y="693"/>
      <point x="186" y="670" type="curve"/>
      <point x="196" y="616" type="line"/>
      <point x="232" y="638"/>
      <point x="269" y="648"/>
      <point x="304" y="648" type="curve" smooth="yes"/>
      <point x="385" y="648"/>
      <point x="429" y="598"/>
      <point x="429" y="487" type="curve" smooth="yes"/>
      <point x="429" y="237"/>
      <point x="302" y="45"/>
      <point x="150" y="45" type="curve" smooth="yes"/>
      <point x="120" y="45"/>
      <point x="85" y="52"/>
      <point x="59" y="66" type="curve"/>
      <point x="36" y="13" type="line"/>
      <point x="65" y="-1"/>
      <point x="103" y="-10"/>
    </contour>
  </outline>
</glyph>
